<?xml version="1.0" encoding="UTF-8" standalone="no"?>
<!-- Generator: Adobe Illustrator 18.1.1, SVG Export Plug-In . SVG Version: 6.00 Build 0)  -->

<svg
   xmlns:dc="http://purl.org/dc/elements/1.1/"
   xmlns:cc="http://creativecommons.org/ns#"
   xmlns:rdf="http://www.w3.org/1999/02/22-rdf-syntax-ns#"
   xmlns:svg="http://www.w3.org/2000/svg"
   xmlns="http://www.w3.org/2000/svg"
   xmlns:sodipodi="http://sodipodi.sourceforge.net/DTD/sodipodi-0.dtd"
   xmlns:inkscape="http://www.inkscape.org/namespaces/inkscape"
   version="1.1"
   id="Ebene_1"
   x="0px"
   y="0px"
   viewBox="0 0 460 120"
   enable-background="new 0 0 87.6 103.3"
   xml:space="preserve"
   sodipodi:docname="age-stiftung.svg"
   width="460"
   height="120"
   inkscape:version="0.92.4 (5da689c313, 2019-01-14)"><metadata
   id="metadata75"><rdf:RDF><cc:Work
       rdf:about=""><dc:format>image/svg+xml</dc:format><dc:type
         rdf:resource="http://purl.org/dc/dcmitype/StillImage" /><dc:title></dc:title></cc:Work></rdf:RDF></metadata><defs
   id="defs73" /><sodipodi:namedview
   pagecolor="#ffffff"
   bordercolor="#666666"
   borderopacity="1"
   objecttolerance="10"
   gridtolerance="10"
   guidetolerance="10"
   inkscape:pageopacity="0"
   inkscape:pageshadow="2"
   inkscape:window-width="1874"
   inkscape:window-height="1043"
   id="namedview71"
   showgrid="false"
   inkscape:zoom="3.4757669"
   inkscape:cx="-7.0658947"
   inkscape:cy="61.6107"
   inkscape:window-x="1246"
   inkscape:window-y="1200"
   inkscape:window-maximized="1"
   inkscape:current-layer="Ebene_1"
   fit-margin-top="0"
   fit-margin-left="0"
   fit-margin-right="0"
   fit-margin-bottom="0" />

































<g
   id="g916"
   transform="matrix(1.161665,0,0,1.161665,178.53824,-19.399802)"><path
     style="fill:#5f4c8d"
     inkscape:connector-curvature="0"
     id="path2"
     d="M 12.6,29.499997 H 5.8 l -1.4,3.8 H 1 l 6.4,-16.6 h 3.7 l 6.3,16.6 H 14 Z m -5.7,-3 h 4.6 l -2.3,-6.2 z" /><path
     style="fill:#5f4c8d"
     inkscape:connector-curvature="0"
     id="path4"
     d="m 21.3,33.199997 c 0.2,1.3 1.2,2.2 2.7,2.2 2,0 3.1,-1 3.1,-3.2 v -0.8 c -0.5,0.7 -1.5,1.5 -3.2,1.5 -3.1,0 -5.4,-2.4 -5.4,-5.6 0,-3 2.2,-5.6 5.4,-5.6 1.8,0 2.9,0.8 3.3,1.6 v -1.5 h 3 v 10.3 c 0,3.2 -1.7,6 -6,6 -3.2,0 -5.3,-2 -5.6,-4.2 z m 5.8,-6 c 0,-1.8 -1.2,-2.9 -2.7,-2.9 -1.5,0 -2.8,1.1 -2.8,2.9 0,1.8 1.1,2.9 2.8,2.9 1.6,0 2.7,-1.1 2.7,-2.9 z" /><path
     style="fill:#5f4c8d"
     inkscape:connector-curvature="0"
     id="path6"
     d="m 43.6,29.999997 c -0.6,2 -2.4,3.6 -5.2,3.6 -3.2,0 -5.9,-2.3 -5.9,-6.1 0,-3.7 2.7,-6.1 5.7,-6.1 3.6,0 5.7,2.3 5.7,6 0,0.4 0,0.9 0,1 h -8.2 c 0.1,1.5 1.4,2.6 2.9,2.6 1.4,0 2.2,-0.7 2.6,-1.8 z m -2.9,-3.8 c 0,-1.1 -0.8,-2.3 -2.6,-2.3 -1.6,0 -2.5,1.2 -2.6,2.3 z" /><path
     style="fill:#5f4c8d"
     inkscape:connector-curvature="0"
     id="path8"
     d="m 10.5,46.499997 c -0.2,-0.9 -0.9,-2.3 -3,-2.3 -1.6,0 -2.6,1 -2.6,2.1 0,0.9 0.6,1.6 1.8,1.9 l 2.3,0.4 c 3,0.6 4.6,2.5 4.6,4.9 0,2.5 -2.1,5.1 -6,5.1 -4.4,0 -6.3,-2.8 -6.6,-5.2 l 3,-0.8 c 0.2,1.6 1.3,3.1 3.7,3.1 1.7,0 2.7,-0.9 2.7,-2 0,-1 -0.7,-1.7 -2,-2 l -2.4,-0.5 c -2.6,-0.5 -4.3,-2.2 -4.3,-4.7 0,-2.9 2.6,-5.2 5.8,-5.2 4,0 5.6,2.4 5.9,4.3 z" /><path
     style="fill:#5f4c8d"
     inkscape:connector-curvature="0"
     id="path10"
     d="m 20,46.699997 h 2.3 v 2.8 H 20 v 4.8 c 0,1 0.5,1.3 1.4,1.3 0.4,0 0.8,0 1,-0.1 v 2.6 c -0.3,0.1 -0.8,0.3 -1.8,0.3 -2.2,0 -3.6,-1.3 -3.6,-3.6 v -5.4 h -2.1 v -2.7 h 0.6 c 1.2,0 1.8,-0.8 1.8,-1.8 v -1.6 H 20 Z" /><path
     style="fill:#5f4c8d"
     inkscape:connector-curvature="0"
     id="path12"
     d="m 35.5,45.499997 v 1.2 h 2.6 v 2.7 h -2.6 v 8.8 h -3.1 v -8.8 h -1.9 v -2.7 h 1.9 v -1.3 c 0,-2.6 1.6,-4.3 4.2,-4.3 0.7,0 1.3,0.1 1.5,0.2 v 2.6 c -0.2,0 -0.5,-0.1 -1,-0.1 -0.7,0.1 -1.6,0.4 -1.6,1.7 z" /><path
     style="fill:#5f4c8d"
     inkscape:connector-curvature="0"
     id="path14"
     d="m 44.2,46.699997 h 2.3 v 2.8 h -2.3 v 4.8 c 0,1 0.5,1.3 1.4,1.3 0.4,0 0.8,0 1,-0.1 v 2.6 c -0.3,0.1 -0.8,0.3 -1.8,0.3 -2.2,0 -3.6,-1.3 -3.6,-3.6 v -5.4 h -2.1 v -2.7 h 0.6 c 1.2,0 1.8,-0.8 1.8,-1.8 v -1.6 h 2.8 v 3.4 z" /><path
     style="fill:#5f4c8d"
     inkscape:connector-curvature="0"
     id="path16"
     d="m 56.7,56.999997 c -0.6,1.1 -2,1.5 -3.2,1.5 -2.8,0 -4.4,-2 -4.4,-4.5 v -7.3 h 3.1 v 6.6 c 0,1.3 0.7,2.3 2.1,2.3 1.4,0 2.2,-0.9 2.2,-2.3 v -6.6 h 3.1 v 9.4 c 0,0.9 0.1,1.7 0.1,2.1 h -3 c 0.1,-0.2 0,-0.7 0,-1.2 z" /><path
     style="fill:#5f4c8d"
     inkscape:connector-curvature="0"
     id="path18"
     d="M 66.1,58.199997 H 63 v -11.5 h 3 v 1.4 c 0.7,-1.2 2.1,-1.7 3.3,-1.7 2.9,0 4.2,2 4.2,4.6 v 7.2 h -3.1 v -6.7 c 0,-1.3 -0.6,-2.3 -2.1,-2.3 -1.4,0 -2.2,1.1 -2.2,2.4 z" /><path
     style="fill:#5f4c8d"
     inkscape:connector-curvature="0"
     id="path20"
     d="m 78.7,58.099997 c 0.2,1.3 1.2,2.2 2.7,2.2 2,0 3.1,-1 3.1,-3.2 v -0.8 c -0.5,0.7 -1.6,1.4 -3.3,1.4 -3.1,0 -5.4,-2.4 -5.4,-5.6 0,-3 2.2,-5.6 5.4,-5.6 1.8,0 2.9,0.8 3.3,1.6 v -1.4 h 3 v 10.3 c 0,3.2 -1.7,6 -6,6 -3.2,0 -5.3,-2 -5.6,-4.2 z m 5.8,-6 c 0,-1.8 -1.2,-2.9 -2.7,-2.9 -1.5,0 -2.8,1.1 -2.8,2.9 0,1.8 1.1,2.9 2.8,2.9 1.6,0 2.7,-1.1 2.7,-2.9 z" /><rect
     style="fill:#5f4c8d"
     id="rect22"
     height="3"
     width="39"
     y="24.899998"
     x="48.5" /><rect
     style="fill:#5f4c8d"
     id="rect24"
     height="3"
     width="39"
     y="117"
     x="48.5" /><rect
     style="fill:#5f4c8d"
     id="rect26"
     height="3"
     width="39"
     y="66.799995"
     x="1" /><path
     style="fill:#5f4c8d"
     inkscape:connector-curvature="0"
     id="path28"
     d="m 26.6,40.999997 c 1.1,0 1.9,0.9 1.9,1.9 0,1 -0.8,1.9 -1.9,1.9 -1.1,0 -1.9,-0.9 -1.9,-1.9 0,-1 0.9,-1.9 1.9,-1.9 z m -1.5,17.2 v -11.5 h 3.1 v 11.5 z" /><path
     style="fill:#5f4c8d"
     inkscape:connector-curvature="0"
     id="path30"
     d="m 14.6,77.399997 h 1.5 l -3.1,10.8 h -1.5 l -2.8,-8.8 -2.8,8.8 H 4.4 l -3.1,-10.8 h 1.5 l 2.4,8.5 2.7,-8.5 h 1.6 l 2.8,8.6 z" /><path
     style="fill:#5f4c8d"
     inkscape:connector-curvature="0"
     id="path32"
     d="m 24,84.499997 c 0,2.2 -1.6,3.9 -3.8,3.9 -2.2,0 -3.8,-1.7 -3.8,-3.9 0,-2.2 1.6,-3.9 3.8,-3.9 2.2,0 3.8,1.7 3.8,3.9 z m -1.5,0 c 0,-1.7 -1.1,-2.6 -2.3,-2.6 -1.2,0 -2.3,0.9 -2.3,2.6 0,1.7 1.1,2.6 2.3,2.6 1.3,0.1 2.3,-0.9 2.3,-2.6 z" /><path
     style="fill:#5f4c8d"
     inkscape:connector-curvature="0"
     id="path34"
     d="m 27.3,88.199997 h -1.4 v -11.1 h 1.4 v 4.6 c 0.5,-0.8 1.4,-1.1 2.2,-1.1 1.8,0 2.6,1.3 2.6,2.9 v 4.7 h -1.4 v -4.4 c 0,-1 -0.4,-1.8 -1.7,-1.8 -1.1,0 -1.7,0.9 -1.7,1.9 z" /><path
     style="fill:#5f4c8d"
     inkscape:connector-curvature="0"
     id="path36"
     d="m 35.9,88.199997 h -1.4 v -7.3 h 1.4 v 1.1 c 0.5,-0.9 1.4,-1.3 2.3,-1.3 1.8,0 2.6,1.3 2.6,2.9 v 4.7 h -1.4 v -4.4 c 0,-1 -0.4,-1.8 -1.7,-1.8 -1.1,0 -1.7,0.9 -1.7,2 v 4.1 z" /><path
     style="fill:#5f4c8d"
     inkscape:connector-curvature="0"
     id="path38"
     d="m 49.4,86.099997 c -0.4,1.3 -1.6,2.3 -3.3,2.3 -2,0 -3.7,-1.4 -3.7,-3.9 0,-2.3 1.7,-3.9 3.5,-3.9 2.3,0 3.5,1.6 3.5,3.9 0,0.2 0,0.4 0,0.5 h -5.5 c 0,1.3 1,2.2 2.2,2.2 1.2,0 1.8,-0.7 2.1,-1.5 z m -1.4,-2.3 c 0,-1.1 -0.7,-1.9 -2,-1.9 -1.2,0 -1.9,0.9 -2,1.9 z" /><path
     style="fill:#5f4c8d"
     inkscape:connector-curvature="0"
     id="path40"
     d="m 52.7,88.199997 h -1.4 v -7.3 h 1.4 v 1.1 c 0.5,-0.9 1.4,-1.3 2.3,-1.3 1.8,0 2.6,1.3 2.6,2.9 v 4.7 h -1.4 v -4.4 c 0,-1 -0.4,-1.8 -1.7,-1.8 -1.1,0 -1.7,0.9 -1.7,2 v 4.1 z" /><path
     style="fill:#5f4c8d"
     inkscape:connector-curvature="0"
     id="path42"
     d="m 66.4,88.399997 c -1.7,0 -2.7,-1.3 -2.7,-2.9 v -4.6 h 1.4 v 4.4 c 0,1 0.5,1.9 1.7,1.9 1.2,0 1.7,-0.8 1.7,-1.9 v -4.4 h 1.4 v 6 c 0,0.6 0,1.1 0.1,1.4 h -1.4 c 0,-0.2 -0.1,-0.6 -0.1,-0.9 -0.3,0.7 -1.2,1 -2.1,1 z" /><path
     style="fill:#5f4c8d"
     inkscape:connector-curvature="0"
     id="path44"
     d="m 73.8,88.199997 h -1.4 v -7.3 h 1.4 v 1.1 c 0.5,-0.9 1.4,-1.3 2.3,-1.3 1.8,0 2.6,1.3 2.6,2.9 v 4.7 h -1.4 v -4.4 c 0,-1 -0.4,-1.8 -1.7,-1.8 -1.1,0 -1.7,0.9 -1.7,2 v 4.1 z" /><path
     style="fill:#5f4c8d"
     inkscape:connector-curvature="0"
     id="path46"
     d="m 86.1,87.099997 c -0.4,0.7 -1.1,1.3 -2.3,1.3 -2.2,0 -3.5,-1.7 -3.5,-3.9 0,-2.1 1.4,-3.9 3.5,-3.9 1.3,0 2,0.6 2.2,1.2 v -4.8 h 1.4 v 9.7 c 0,0.7 0.1,1.2 0.1,1.4 h -1.4 c 0,-0.2 -0.1,-0.6 -0.1,-1 v 0 z m -2.1,0 c 1.3,0 2.1,-1.1 2.1,-2.7 0,-1.5 -0.8,-2.6 -2.1,-2.6 -1.3,0 -2.2,1.1 -2.2,2.6 0,1.5 0.8,2.7 2.2,2.7 z" /><path
     style="fill:#5f4c8d"
     inkscape:connector-curvature="0"
     id="path48"
     d="M 8.5,103.7 H 3.7 l -1.1,3 H 1 L 5.3,95.899997 H 7 L 11.3,106.7 H 9.7 Z M 3.9,93.299997 c 0.5,0 0.9,0.4 0.9,0.9 0,0.5 -0.4,0.9 -0.9,0.9 -0.5,0 -0.9,-0.4 -0.9,-0.9 0,-0.5 0.4,-0.9 0.9,-0.9 z M 4.3,102.3 H 8 L 6.1,97.399997 Z m 4.1,-9.000003 c 0.5,0 0.9,0.4 0.9,0.9 0,0.5 -0.4,0.9 -0.9,0.9 -0.5,0 -0.9,-0.4 -0.9,-0.9 0,-0.5 0.4,-0.9 0.9,-0.9 z" /><path
     style="fill:#5f4c8d"
     inkscape:connector-curvature="0"
     id="path50"
     d="M 12.9,106.7 V 95.599997 h 1.4 V 106.7 Z" /><path
     style="fill:#5f4c8d"
     inkscape:connector-curvature="0"
     id="path52"
     d="m 19,99.399997 h 1.6 V 100.7 H 19 v 3.8 c 0,0.7 0.3,1 1,1 0.2,0 0.4,0 0.6,-0.1 v 1.2 c -0.1,0 -0.5,0.1 -1,0.1 -1.3,0 -2,-0.8 -2,-2.1 v -4 h -1.4 v -1.300003 h 0.4 c 0.8,0 1.1,-0.5 1.1,-1.1 v -1.2 H 19 Z" /><path
     style="fill:#5f4c8d"
     inkscape:connector-curvature="0"
     id="path54"
     d="m 29,104.6 c -0.4,1.3 -1.6,2.3 -3.3,2.3 -2,0 -3.7,-1.4 -3.7,-3.9 0,-2.3 1.7,-3.900003 3.5,-3.900003 2.3,0 3.5,1.600003 3.5,3.900003 0,0.2 0,0.4 0,0.5 h -5.5 c 0,1.3 1,2.2 2.2,2.2 1.2,0 1.8,-0.7 2.1,-1.5 z m -1.5,-2.3 c 0,-1.1 -0.7,-1.9 -2,-1.9 -1.2,0 -1.9,0.9 -2,1.9 z" /><path
     style="fill:#5f4c8d"
     inkscape:connector-curvature="0"
     id="path56"
     d="m 35.2,100.8 c -0.2,0 -0.4,0 -0.6,0 -1.2,0 -2,0.6 -2,2.3 v 3.6 h -1.4 v -7.300003 h 1.4 V 100.7 c 0.5,-1.100003 1.5,-1.400003 2.2,-1.400003 0.2,0 0.4,0 0.5,0 V 100.8 Z" /><path
     style="fill:#5f4c8d"
     inkscape:connector-curvature="0"
     id="path58"
     d="M 42.7,99.399997 44.6,104.9 46.2,99.399997 h 1.5 L 45.4,106.7 h -1.5 l -2,-5.6 -1.9,5.6 h -1.5 l -2.4,-7.300003 h 1.6 L 39.4,104.9 41.3,99.399997 Z" /><path
     style="fill:#5f4c8d"
     inkscape:connector-curvature="0"
     id="path60"
     d="m 55.7,104.6 c -0.4,1.3 -1.6,2.3 -3.3,2.3 -2,0 -3.7,-1.4 -3.7,-3.9 0,-2.3 1.7,-3.900003 3.5,-3.900003 2.3,0 3.5,1.600003 3.5,3.900003 0,0.2 0,0.4 0,0.5 h -5.5 c 0,1.3 1,2.2 2.2,2.2 1.2,0 1.8,-0.7 2.1,-1.5 z m -1.5,-2.3 c 0,-1.1 -0.7,-1.9 -2,-1.9 -1.2,0 -1.9,0.9 -2,1.9 z" /><path
     style="fill:#5f4c8d"
     inkscape:connector-curvature="0"
     id="path62"
     d="m 61.8,100.8 c -0.2,0 -0.4,0 -0.6,0 -1.2,0 -2,0.6 -2,2.3 v 3.6 h -1.4 v -7.300003 h 1.4 V 100.7 c 0.5,-1.100003 1.5,-1.400003 2.2,-1.400003 0.2,0 0.4,0 0.5,0 V 100.8 Z" /><path
     style="fill:#5f4c8d"
     inkscape:connector-curvature="0"
     id="path64"
     d="m 68.7,105.6 c -0.4,0.7 -1.1,1.3 -2.3,1.3 -2.2,0 -3.5,-1.7 -3.5,-3.9 0,-2.1 1.4,-3.900003 3.5,-3.900003 1.3,0 2,0.6 2.2,1.200003 V 95.499997 H 70 V 105.2 c 0,0.7 0.1,1.2 0.1,1.4 h -1.4 c 0,-0.2 -0.1,-0.6 -0.1,-1 v 0 z m -2.2,0 c 1.3,0 2.1,-1.1 2.1,-2.7 0,-1.5 -0.8,-2.6 -2.1,-2.6 -1.3,0 -2.2,1.1 -2.2,2.6 0,1.5 0.9,2.7 2.2,2.7 z" /><path
     style="fill:#5f4c8d"
     inkscape:connector-curvature="0"
     id="path66"
     d="m 79.1,104.6 c -0.4,1.3 -1.6,2.3 -3.3,2.3 -2,0 -3.7,-1.4 -3.7,-3.9 0,-2.3 1.7,-3.900003 3.5,-3.900003 2.3,0 3.5,1.600003 3.5,3.900003 0,0.2 0,0.4 0,0.5 h -5.5 c 0,1.3 1,2.2 2.2,2.2 1.2,0 1.8,-0.7 2.1,-1.5 z m -1.4,-2.3 c 0,-1.1 -0.7,-1.9 -2,-1.9 -1.2,0 -1.9,0.9 -2,1.9 z" /><path
     style="fill:#5f4c8d"
     inkscape:connector-curvature="0"
     id="path68"
     d="m 82.7,106.7 h -1.4 v -7.300003 h 1.4 V 100.5 c 0.5,-0.900003 1.4,-1.300003 2.3,-1.300003 1.8,0 2.6,1.300003 2.6,2.900003 v 4.6 h -1.4 v -4.4 c 0,-1 -0.4,-1.8 -1.7,-1.8 -1.1,0 -1.7,0.9 -1.7,2 v 4.2 z" /></g>
</svg>