<?xml version="1.0" encoding="UTF-8" standalone="no"?>
<!-- Created with Inkscape (http://www.inkscape.org/) -->

<svg
   xmlns:dc="http://purl.org/dc/elements/1.1/"
   xmlns:cc="http://creativecommons.org/ns#"
   xmlns:rdf="http://www.w3.org/1999/02/22-rdf-syntax-ns#"
   xmlns:svg="http://www.w3.org/2000/svg"
   xmlns="http://www.w3.org/2000/svg"
   xmlns:sodipodi="http://sodipodi.sourceforge.net/DTD/sodipodi-0.dtd"
   xmlns:inkscape="http://www.inkscape.org/namespaces/inkscape"
   version="1.1"
   id="svg2"
   xml:space="preserve"
   width="460"
   height="120"
   viewBox="0 0 460 120.00001"
   sodipodi:docname="caritas-stiftung.svg"
   inkscape:version="0.92.4 (5da689c313, 2019-01-14)"><metadata
     id="metadata8"><rdf:RDF><cc:Work
         rdf:about=""><dc:format>image/svg+xml</dc:format><dc:type
           rdf:resource="http://purl.org/dc/dcmitype/StillImage" /><dc:title></dc:title></cc:Work></rdf:RDF></metadata><defs
     id="defs6"><clipPath
       clipPathUnits="userSpaceOnUse"
       id="clipPath18"><path
         d="M 416.692,357.448 H 530.077 V 507.4 H 416.692 Z"
         id="path16"
         inkscape:connector-curvature="0"
         style="clip-rule:evenodd" /></clipPath><clipPath
       clipPathUnits="userSpaceOnUse"
       id="clipPath30"><path
         d="M 0,0.028 H 595.247 V 841.889 H 0 Z"
         id="path28"
         inkscape:connector-curvature="0"
         style="clip-rule:evenodd" /></clipPath></defs><sodipodi:namedview
     pagecolor="#ffffff"
     bordercolor="#666666"
     borderopacity="1"
     objecttolerance="10"
     gridtolerance="10"
     guidetolerance="10"
     inkscape:pageopacity="0"
     inkscape:pageshadow="2"
     inkscape:window-width="1874"
     inkscape:window-height="1016"
     id="namedview4"
     showgrid="false"
     fit-margin-top="0"
     fit-margin-left="0"
     fit-margin-right="0"
     fit-margin-bottom="0"
     inkscape:zoom="1.1893044"
     inkscape:cx="185.61907"
     inkscape:cy="-91.970311"
     inkscape:window-x="46"
     inkscape:window-y="27"
     inkscape:window-maximized="1"
     inkscape:current-layer="g26" /><g
     id="g10"
     inkscape:groupmode="layer"
     inkscape:label="Caritas-Stiftung inofficial"
     transform="matrix(1.3333333,0,0,-1.3333333,-85.268265,591.44224)"><g
       id="g12"
       transform="matrix(0.58182276,0,0,0.58182276,63.641641,148.11232)"><g
         id="g14"
         clip-path="url(#clipPath18)"><path
           d="m 530.079,364.932 v 134.957 c 0,4.167 -3.487,7.512 -7.796,7.512 h -97.795 c -4.308,0 -7.795,-3.345 -7.795,-7.512 V 364.932 c 0,-4.139 3.487,-7.484 7.795,-7.484 h 97.795 c 4.309,0 7.796,3.345 7.796,7.484 z"
           style="fill:#e3000e;fill-opacity:1;fill-rule:evenodd;stroke:none"
           id="path20"
           inkscape:connector-curvature="0" /><path
           d="m 464.627,500.484 v -42.406 h -42.095 v -18.454 h 42.095 v -42.491 h 18.255 v 42.491 h 41.981 v 18.454 h -41.981 v 42.406 z m 34.129,-5.669 c -0.992,-0.595 -2.75,-1.559 -5.528,-4.195 -3.061,-2.892 -5.187,-8.136 -8.248,-11.396 v -9.354 c 3.883,2.721 7.766,6.548 10.148,10.517 2.324,3.656 5.272,7.115 8.985,9.184 0.596,0.34 1.021,0.624 1.361,0.85 -2.126,1.644 -4.365,3.09 -6.718,4.394 z m -51.052,-0.454 c -2.239,-1.303 -4.337,-2.806 -6.321,-4.422 2.636,-3.6 6.519,-7.653 10.431,-9.666 4.025,-2.353 7.54,-5.896 10.602,-9.184 v 10.828 c -0.482,0.596 -1.304,1.531 -1.899,2.098 -3.686,3.543 -9.298,6.236 -12.813,10.346 z m 55.162,-9.297 c -3.43,-2.863 -5.357,-6.86 -7.937,-10.517 -2.466,-3.515 -6.293,-6.406 -9.949,-8.617 v -5.641 h 6.434 c 2.948,2.041 6.18,4.961 8.391,7.569 3.656,5.074 6.406,11.253 11.764,14.541 0.566,0.312 0.963,0.596 1.36,0.851 -1.672,1.927 -3.43,3.77 -5.357,5.442 -1.644,-1.19 -3.26,-2.239 -4.706,-3.628 z m -63.581,3.175 c -1.899,-1.701 -3.628,-3.6 -5.272,-5.556 0.34,-0.596 0.935,-1.503 1.927,-2.977 2.608,-3.997 6.52,-6.123 10.403,-8.617 1.134,-0.595 2.211,-1.474 3.26,-2.296 3.033,-2.41 5.528,-5.641 7.739,-8.504 h 5.074 v 6.123 c -1.333,1.757 -2.807,3.543 -4.309,5.159 -3.231,3.628 -7.483,5.953 -11.48,8.617 -2.778,2.098 -5.386,5.329 -7.342,8.051 z m 75.657,-7.37 c -0.425,-0.227 -0.879,-0.511 -1.446,-0.879 -4.649,-2.948 -7.455,-7.966 -10.431,-12.246 -1.73,-2.608 -4.422,-5.244 -6.889,-7.455 h 10.829 c 2.523,2.268 4.734,5.556 6.094,7.739 1.474,2.352 3.94,4.507 5.953,6.519 -1.247,2.211 -2.608,4.309 -4.11,6.322 z m -82.659,-0.284 c -1.559,-2.126 -2.948,-4.28 -4.195,-6.605 2.381,-4.025 5.386,-7.682 9.666,-9.864 3.232,-1.673 4.961,-3.147 5.641,-3.827 h 9.751 c -1.133,2.041 -3.089,4.394 -4.592,6.038 -4.648,4.195 -10.998,5.584 -14.456,11.282 -0.964,1.587 -1.474,2.466 -1.815,2.976 z m 7.654,-43.257 c -2.608,-2.551 -4.167,-5.017 -5.924,-7.937 -1.304,-2.267 -3.544,-4.478 -5.84,-6.037 1.276,-2.325 2.807,-4.508 4.394,-6.605 l 2.693,1.927 c 1.134,0.794 2.353,1.786 3.146,2.863 2.126,2.268 3.6,5.273 5.471,7.767 2.041,2.863 4.479,5.103 7.058,7.257 0.171,0.142 0.652,0.482 0.964,0.765 z m 16.072,0 c -4.223,-3.004 -7.937,-6.689 -10.8,-10.998 -2.778,-4.876 -5.867,-8.872 -10.431,-12.161 l -0.085,-0.085 c 1.644,-1.899 3.43,-3.628 5.357,-5.272 0.397,0.283 0.851,0.623 1.418,1.049 4.337,3.316 7.767,7.256 10.346,11.678 2.608,4.111 6.662,7.739 10.602,10.63 v 5.159 z m 28.971,0 v -5.272 c 2.607,-3.827 6.434,-8.391 10.148,-10.602 4.875,-3.004 9.666,-7.001 13.492,-11.593 1.815,1.672 3.487,3.458 5.074,5.357 -0.255,0.425 -0.481,0.936 -0.878,1.531 -3.26,5.272 -9.241,8.362 -13.947,11.792 -3.401,2.438 -5.754,5.499 -7.937,8.787 z m 9.666,0 0.878,-1.445 c 3.232,-4.479 8.022,-6.945 12.331,-10.035 3.09,-2.041 5.811,-5.159 7.739,-8.22 1.587,2.154 2.976,4.478 4.223,6.888 -2.324,3.061 -4.648,5.953 -7.937,8.022 -2.352,1.36 -4.96,3.146 -7.285,4.79 z m -32.23,-8.985 c -3.685,-2.665 -7.314,-6.208 -9.468,-10.063 -2.183,-4.082 -5.528,-7.541 -9.553,-10.234 -0.567,-0.368 -0.992,-0.708 -1.332,-0.963 2.126,-1.644 4.394,-3.09 6.775,-4.394 0.51,0.397 1.247,0.935 2.211,1.644 5.074,3.628 7.823,9.071 11.367,14.06 z m 22.564,-1.049 v -11.112 c 0.311,-0.369 0.822,-0.936 1.644,-1.899 3.373,-4.054 8.56,-5.5 11.962,-9.383 0.538,-0.624 0.992,-1.077 1.332,-1.446 2.183,1.304 4.224,2.722 6.208,4.309 -2.58,3.997 -6.123,7.087 -10.148,9.269 -4.025,2.211 -8.221,6.492 -10.998,10.262 z m -12.048,-38.665 v -3.345 h 2.58 v 3.345 z m 6.888,-2.012 v -5.358 h -2.664 v -1.899 h 2.664 V 365.3 c 0,-2.891 1.248,-3.827 3.459,-3.827 1.077,0 2.041,0.369 2.579,0.454 v 1.842 c -0.595,-0.17 -1.219,-0.311 -1.814,-0.311 -1.871,0 -1.927,0.793 -1.927,2.692 v 13.21 h 3.628 v 1.899 h -3.628 v 5.358 z m -46.091,-4.876 c -5.811,0 -8.901,-4.791 -8.901,-10.148 0,-5.669 2.722,-10.12 8.901,-10.12 4.876,0 7.625,2.892 8.419,7.172 h -2.381 c -0.539,-3.203 -2.693,-5.187 -6.038,-5.187 -4.649,0 -6.491,4.081 -6.491,8.135 0,4.025 1.871,8.135 6.491,8.135 3.005,0 5.046,-1.615 5.84,-4.478 h 2.296 c -0.681,4.45 -3.685,6.491 -8.136,6.491 z m 17.972,0 c -4.224,0 -7.597,-1.786 -7.937,-6.321 h 2.296 c 0.425,3.345 2.551,4.308 5.641,4.308 3.486,0 4.79,-1.559 4.79,-3.826 0,-0.652 -0.028,-1.673 -0.765,-2.013 -0.737,-0.312 -2.126,-0.595 -2.976,-0.652 l -3.147,-0.397 c -4.535,-0.595 -6.69,-2.608 -6.69,-5.839 0,-3.714 3.005,-5.528 6.407,-5.528 2.806,0 5.386,1.077 7.256,3.147 0.057,-1.333 0.341,-2.551 1.815,-2.778 0.34,-0.085 0.595,-0.199 0.963,-0.199 0.652,0 1.474,0.284 1.815,0.397 v 1.814 c -1.9,-0.68 -2.382,-0.311 -2.382,1.446 v 10.517 c 0,4.45 -3.146,5.924 -7.086,5.924 z m 19.53,0 c -3.259,0 -5.074,-1.021 -6.321,-4.11 h -0.085 v 3.628 h -2.211 V 362.04 h 2.211 v 9.383 c 0,4.309 1.332,8.05 6.406,7.937 z m 15.591,-6.321 h 2.183 c 0.425,3.345 2.636,4.308 5.754,4.308 3.458,0 4.762,-1.559 4.762,-3.826 0,-0.652 -0.113,-1.673 -0.85,-2.013 -0.737,-0.312 -2.126,-0.595 -2.977,-0.652 l -3.061,-0.397 c -4.507,-0.595 -6.775,-2.608 -6.775,-5.839 0,-3.714 3.09,-5.528 6.492,-5.528 2.806,0 5.3,1.077 7.171,3.147 0.057,-1.333 0.34,-2.551 1.814,-2.778 0.341,-0.085 0.681,-0.199 1.078,-0.199 0.623,0 1.36,0.284 1.7,0.397 v 1.814 c -1.899,-0.68 -2.296,-0.311 -2.296,1.446 v 10.517 c 0,4.45 -3.146,5.924 -7.058,5.924 -4.252,0 -7.625,-1.786 -7.937,-6.321 z m 24.463,6.321 c -4.28,0 -6.775,-2.239 -6.775,-5.443 0,-7.596 12.416,-3.713 12.416,-9.297 0,-1.843 -1.502,-3.543 -4.762,-3.543 -3.373,0 -5.131,1.19 -5.84,4.507 h -2.296 c 0.199,-3.629 2.807,-6.492 7.37,-6.492 4.564,0 7.937,1.956 7.937,5.641 0,7.399 -12.444,4.11 -12.444,9.355 0,1.984 1.559,3.259 4.394,3.259 2.806,0 4.847,-1.02 5.272,-4.025 h 2.297 c -0.567,4.366 -3.374,6.038 -7.569,6.038 z m -38.353,-0.482 V 362.04 h 2.296 v 19.219 z m -16.441,-9.184 v -2.948 c 0,-3.912 -3.515,-5.669 -7.086,-5.669 -2.126,0 -4.111,1.105 -4.111,3.458 0,2.608 2.041,3.855 5.471,4.11 1.928,0.142 3.827,0.283 5.726,1.049 z m 43.03,-2.948 c 0,-3.912 -3.515,-5.669 -7.058,-5.669 -2.154,0 -4.224,1.105 -4.224,3.458 0,2.608 2.041,3.855 5.471,4.11 1.928,0.142 3.912,0.283 5.811,1.049 z"
           style="fill:#ffffff;fill-opacity:1;fill-rule:evenodd;stroke:none"
           id="path22"
           inkscape:connector-curvature="0" /></g></g><g
       id="g24"><g
         id="g26"
         clip-path="url(#clipPath30)"><g
           id="g32"
           transform="matrix(0.58182276,0,0,0.58182276,63.641641,148.11232)"><g
             aria-label="Caritas-Stiftung"
             transform="matrix(1,0,0,-1,62.391,400.393)"
             style="font-variant:normal;font-weight:normal;font-size:39.00500107px;font-family:FreeSans;-inkscape-font-specification:FreeSans;writing-mode:lr-tb;fill:#e3000e;fill-opacity:1;fill-rule:nonzero;stroke:none"
             id="text36"><path
               d="m 1.5602,-13.88578 c 0,5.8117448 2.5743301,14.78289502 12.832645,14.78289502 6.942891,0 10.843391,-3.74448012 11.701501,-11.27244502 h -3.74448 c -0.85811,5.3826899 -3.159405,8.0740349 -7.918016,8.0740349 -5.6557248,0 -9.2441849,-4.5245801 -9.2441849,-11.6234899 0,-7.293936 3.4324401,-11.779511 8.9321449,-11.779511 4.602591,0 6.864881,2.10627 7.683986,6.08478 h 3.705475 c -1.131145,-6.2408 -4.719605,-9.28319 -10.960406,-9.28319 -10.3753299,0 -12.988665,9.088165 -12.988665,15.016926 z"
               id="path868"
               inkscape:connector-curvature="0" /><path
               d="m 33.427285,-14.392845 h 3.27642 c 0.273035,-2.49632 1.755225,-3.627465 4.797615,-3.627465 2.925375,0 4.563585,1.09214 4.563585,3.04239 v 0.85811 c 0,1.365175 -0.819105,1.95025 -3.393435,2.26229 -5.967765,0.7801 -10.1413,1.24816 -10.1413,6.7088599 0,3.7054751 2.57433,6.04577512 6.70886,6.04577512 2.57433,0 4.641595,-0.89711502 6.94289,-3.00338512 0.23403,2.0672651 1.24816,3.00338512 3.35443,3.00338512 0.663085,0 1.17015,-0.07801 2.223285,-0.35104501 V -1.9112451 c -0.351045,0.07801 -0.507065,0.07801 -0.70209,0.07801 -1.131145,0 -1.755225,-0.585075 -1.755225,-1.599205 V -15.44598 c 0,-3.627466 -2.65234,-5.577716 -7.683985,-5.577716 -3.66647,0 -7.996025,1.09214 -8.19105,6.630851 z m 6.513835,12.4425949 c -2.535325,0 -4.017515,-1.209155 -4.017515,-3.27642 0,-4.4855752 6.825875,-3.3544301 10.1413,-4.8756249 v 3.6664698 c 0,1.9502501 -2.26229,4.4855751 -6.123785,4.4855751 z"
               id="path870"
               inkscape:connector-curvature="0" /><path
               d="m 68.375764,-17.591255 v -3.315426 c -0.54607,-0.07801 -0.819105,-0.117015 -1.24816,-0.117015 -2.10627,0 -3.705475,1.24816 -5.577715,4.290551 v -3.705476 H 58.546504 V 0 h 3.27642 v -10.60936 c 0,-5.733735 2.613335,-6.903885 6.55284,-6.981895 z"
               id="path872"
               inkscape:connector-curvature="0" /><path
               d="M 78.712094,-20.438621 H 75.474678 V 0 h 3.237416 z m 0,-7.996025 h -3.276421 v 4.095525 h 3.276421 z"
               id="path874"
               inkscape:connector-curvature="0" /><path
               d="m 95.484242,-20.438621 h -3.354431 v -5.61672 h -3.237415 v 5.61672 h -2.769355 v 2.652341 h 2.769355 v 15.4459799 c 0,2.06726509 1.40418,3.23741512 3.939505,3.23741512 0.780101,0 1.560201,-0.07801 2.652341,-0.273035 V -2.1062701 c -0.429055,0.117015 -0.93612,0.15602 -1.5602,0.15602 -1.404181,0 -1.794231,-0.39005 -1.794231,-1.833235 V -17.78628 h 3.354431 z"
               id="path876"
               inkscape:connector-curvature="0" /><path
               d="m 102.07608,-14.392845 h 3.27642 c 0.27304,-2.49632 1.75523,-3.627465 4.79762,-3.627465 2.92537,0 4.56358,1.09214 4.56358,3.04239 v 0.85811 c 0,1.365175 -0.8191,1.95025 -3.39343,2.26229 -5.96777,0.7801 -10.1413,1.24816 -10.1413,6.7088599 0,3.7054751 2.57433,6.04577512 6.70886,6.04577512 2.57433,0 4.64159,-0.89711502 6.94289,-3.00338512 0.23403,2.0672651 1.24816,3.00338512 3.35443,3.00338512 0.66309,0 1.17015,-0.07801 2.22329,-0.35104501 V -1.9112451 c -0.35105,0.07801 -0.50707,0.07801 -0.70209,0.07801 -1.13115,0 -1.75523,-0.585075 -1.75523,-1.599205 V -15.44598 c 0,-3.627466 -2.65234,-5.577716 -7.68399,-5.577716 -3.66647,0 -7.99602,1.09214 -8.19105,6.630851 z m 6.51384,12.4425949 c -2.53533,0 -4.01752,-1.209155 -4.01752,-3.27642 0,-4.4855752 6.82588,-3.3544301 10.1413,-4.8756249 v 3.6664698 c 0,1.9502501 -2.26229,4.4855751 -6.12378,4.4855751 z"
               id="path878"
               inkscape:connector-curvature="0" /><path
               d="m 129.61361,-6.0847802 h -3.43244 c 0.15602,4.7196052 2.80836,6.98189522 8.15205,6.98189522 5.14866,0 8.42508,-2.53532502 8.42508,-6.47483022 0,-3.04239 -1.71622,-4.7196048 -5.77274,-5.6947298 l -3.1204,-0.741095 c -2.65234,-0.62408 -3.78349,-1.48219 -3.78349,-2.925375 0,-1.87224 1.67722,-3.081395 4.32956,-3.081395 2.61333,0 4.01751,1.131145 4.09552,3.27642 h 3.43244 c -0.039,-4.017516 -2.69134,-6.279806 -7.41095,-6.279806 -4.75861,0 -7.84,2.457315 -7.84,6.240801 0,3.19841 1.63821,4.719605 6.47483,5.8897548 l 3.04239,0.741095 c 2.26229,0.54607 3.1594,1.365175 3.1594,2.8473651 0,1.911245 -1.91124,3.19841 -4.75861,3.19841 -3.97851,0 -4.7196,-1.989255 -4.99264,-3.9785101 z"
               id="path880"
               inkscape:connector-curvature="0" /><path
               d="m 159.02338,-12.16956 h -9.4002 v 2.8083597 h 9.4002 z"
               id="path882"
               inkscape:connector-curvature="0" /><path
               d="m 177.94082,-2.3012951 c -6.43583,0 -8.03504,-3.6664701 -8.03504,-6.5528401 v -0.195025 h -3.43244 c 0.11702,8.07403517 6.31881,9.94627522 11.23345,9.94627522 8.89314,0 11.11642,-5.22667012 11.11642,-8.69811522 0,-3.5104498 -2.18428,-6.0847798 -6.04577,-7.1379148 l -7.13792,-1.911245 c -3.43244,-0.93612 -4.6806,-2.028261 -4.6806,-4.212541 0,-2.88637 2.53532,-4.797615 6.35782,-4.797615 4.52458,0 7.0599,2.067265 7.09891,5.77274 h 3.43244 c -0.039,-5.577715 -3.8615,-8.81513 -10.41434,-8.81513 -6.2408,0 -10.1023,3.19841 -10.1023,8.34707 0,3.471446 1.83324,5.655726 5.57772,6.630851 l 7.05991,1.87224 c 3.58846,0.93612 5.22667,2.3793047 5.22667,4.6025898 0,2.0282601 -1.09214,5.1486601 -7.25493,5.1486601 z"
               id="path884"
               inkscape:connector-curvature="0" /><path
               d="m 204.50321,-20.438621 h -3.35443 v -5.61672 h -3.23742 v 5.61672 h -2.76935 v 2.652341 h 2.76935 v 15.4459799 c 0,2.06726509 1.40418,3.23741512 3.93951,3.23741512 0.7801,0 1.5602,-0.07801 2.65234,-0.273035 V -2.1062701 c -0.42906,0.117015 -0.93612,0.15602 -1.5602,0.15602 -1.40418,0 -1.79423,-0.39005 -1.79423,-1.833235 V -17.78628 h 3.35443 z"
               id="path886"
               inkscape:connector-curvature="0" /><path
               d="m 214.87855,-20.438621 h -3.23741 V 0 h 3.23741 z m 0,-7.996025 h -3.27642 v 4.095525 h 3.27642 z"
               id="path888"
               inkscape:connector-curvature="0" /><path
               d="m 231.6507,-20.438621 h -3.39344 v -3.19841 c 0,-1.365175 0.7801,-2.067265 2.26229,-2.067265 0.27304,0 0.39005,0 1.13115,0.039 v -2.691345 c -0.7411,-0.15602 -1.17015,-0.195025 -1.83324,-0.195025 -3.00338,0 -4.79761,1.71622 -4.79761,4.641595 v 3.471445 h -2.73035 v 2.652341 h 2.73035 V 0 h 3.23741 v -17.78628 h 3.39344 z"
               id="path890"
               inkscape:connector-curvature="0" /><path
               d="m 246.31658,-20.438621 h -3.35443 v -5.61672 h -3.23742 v 5.61672 h -2.76935 v 2.652341 h 2.76935 v 15.4459799 c 0,2.06726509 1.40418,3.23741512 3.93951,3.23741512 0.7801,0 1.5602,-0.07801 2.65234,-0.273035 V -2.1062701 c -0.42906,0.117015 -0.93612,0.15602 -1.5602,0.15602 -1.40418,0 -1.79423,-0.39005 -1.79423,-1.833235 V -17.78628 h 3.35443 z"
               id="path892"
               inkscape:connector-curvature="0" /><path
               d="m 269.44654,0 v -20.438621 h -3.23741 v 11.5844858 c 0,4.1735351 -2.18428,6.9038851 -5.57772,6.9038851 -2.57433,0 -4.21254,-1.5602 -4.21254,-4.0175151 V -20.438621 h -3.23741 v 15.7580209 c 0,3.3934351 2.53532,5.57771512 6.51383,5.57771512 3.00339,0 4.91463,-1.05313502 6.82588,-3.74448012 V 0 Z"
               id="path894"
               inkscape:connector-curvature="0" /><path
               d="M 277.94964,-20.438621 V 0 h 3.27642 v -11.272445 c 0,-4.173535 2.18428,-6.903885 5.53871,-6.903885 2.57433,0 4.21254,1.5602 4.21254,4.017515 V 0 h 3.23742 v -15.44598 c 0,-3.393436 -2.53533,-5.577716 -6.47483,-5.577716 -3.04239,0 -4.99264,1.17015 -6.78687,4.017516 v -3.432441 z"
               id="path896"
               inkscape:connector-curvature="0" /><path
               d="m 309.97273,0.89711502 c 2.57433,0 4.36856,-1.09214003 6.2018,-3.66647012 V -1.71622 c 0,4.6806001 -1.09214,7.4889602 -5.69473,7.4889602 -1.01413,0 -4.40757,-0.117015 -4.95364,-3.4324401 h -3.31542 c 0.35104,3.8614951 3.35443,6.1627901 8.15204,6.1627901 7.762,0 9.12717,-4.7586101 9.12717,-11.8575203 V -20.438621 h -3.39343 l 0.39005,2.964381 c -1.63821,-2.418311 -3.62747,-3.549456 -6.2408,-3.549456 -5.18767,0 -8.69812,4.524581 -8.69812,11.1554307 0,6.6698552 3.78349,10.76538032 8.42508,10.76538032 z M 310.59681,-18.02031 c 3.51045,0 5.57772,2.96438 5.57772,8.0740347 0,4.8756252 -2.10627,7.8400052 -5.53871,7.8400052 -3.54946,0 -5.69473,-3.003385 -5.69473,-7.9570199 0,-4.91463 2.18428,-7.95702 5.65572,-7.95702 z"
               id="path898"
               inkscape:connector-curvature="0" /></g></g><g
           id="g38"
           transform="matrix(0.58182276,0,0,0.58182276,63.641641,148.11232)"><g
             aria-label="Erzdiözese Freiburg"
             transform="matrix(1,0,0,-1,62.901,359.687)"
             style="font-variant:normal;font-weight:normal;font-size:28.00600052px;font-family:FreeSans;-inkscape-font-specification:FreeSans;writing-mode:lr-tb;fill:#000000;fill-opacity:1;fill-rule:nonzero;stroke:none"
             id="text42"><path
               d="M 4.8450381,-9.2979922 H 15.96342 V -11.594484 H 4.8450381 v -6.525398 H 16.38351 v -2.296492 H 2.24048 V 0 H 16.887618 V -2.296492 H 4.8450381 Z"
               id="path901"
               inkscape:connector-curvature="0" /><path
               d="m 30.722583,-12.630706 v -2.38051 c -0.392084,-0.05601 -0.588126,-0.08402 -0.896192,-0.08402 -1.512324,0 -2.66057,0.896192 -4.004858,3.08066 v -2.66057 H 23.665071 V 0 h 2.352504 v -7.6176321 c 0,-4.1168819 1.876402,-4.9570619 4.705008,-5.0130739 z"
               id="path903"
               inkscape:connector-curvature="0" /><path
               d="M 47.834249,-14.675144 H 36.883903 v 2.044438 h 8.177752 L 36.295777,-2.10045 V 0 h 11.930556 v -2.044438 h -9.10195 L 47.834249,-12.6027 Z"
               id="path905"
               inkscape:connector-curvature="0" /><path
               d="m 67.29842,-20.416374 h -2.324498 v 7.589626 c -0.980211,-1.484318 -2.548547,-2.268486 -4.508967,-2.268486 -3.808816,0 -6.30135,3.052654 -6.30135,7.7296559 0,4.9570621 2.436522,8.00971611 6.385368,8.00971611 2.016432,0 3.416732,-0.75616201 4.677003,-2.57655201 V 0 h 2.072444 z m -6.441381,7.505608 c 2.52054,0 4.116883,2.24048 4.116883,5.7412299 0,3.388726 -1.624349,5.6292061 -4.088877,5.6292061 -2.576552,0 -4.284918,-2.2684861 -4.284918,-5.6852181 0,-3.4167319 1.708366,-5.6852179 4.256912,-5.6852179 z"
               id="path907"
               inkscape:connector-curvature="0" /><path
               d="M 77.408587,-14.675144 H 75.084089 V 0 h 2.324498 z m 0,-5.74123 h -2.352504 v 2.94063 h 2.352504 z"
               id="path909"
               inkscape:connector-curvature="0" /><path
               d="m 95.080373,-20.416374 h -2.912624 v 2.912624 h 2.912624 z m -5.013074,0 h -2.912624 v 2.912624 h 2.912624 z m 1.064228,5.32114 c -4.116882,0 -6.609416,2.94063 -6.609416,7.8696859 0,4.9290561 2.464528,7.86968611 6.637422,7.86968611 4.116882,0 6.637422,-2.94063001 6.637422,-7.75766211 0,-5.0690859 -2.436522,-7.9817099 -6.665428,-7.9817099 z m 0.02801,2.156462 c 2.632564,0 4.2009,2.156462 4.2009,5.7972419 0,3.444738 -1.624348,5.6292061 -4.2009,5.6292061 -2.604558,0 -4.2009,-2.1564621 -4.2009,-5.7132241 0,-3.5287559 1.596342,-5.7132239 4.2009,-5.7132239 z"
               id="path911"
               inkscape:connector-curvature="0" /><path
               d="m 115.2447,-14.675144 h -10.95035 v 2.044438 h 8.17775 L 103.70622,-2.10045 V 0 h 11.93056 v -2.044438 h -9.10195 L 115.2447,-12.6027 Z"
               id="path913"
               inkscape:connector-curvature="0" /><path
               d="m 134.82087,-6.5534041 c 0,-5.3211399 -1.98842,-8.5418299 -6.52539,-8.5418299 -4.08888,0 -6.72144,3.136672 -6.72144,7.9537039 0,4.8170321 2.54854,7.78566811 6.66542,7.78566811 3.36072,0 5.68522,-1.90440801 6.27335,-5.09709211 h -2.35251 c -0.64413,1.9324141 -1.96042,2.9406301 -3.83682,2.9406301 -2.71658,0 -4.25691,-2.0444381 -4.31292,-5.0410801 z m -10.7543,-1.9044081 c 0.19604,-2.7165818 1.8484,-4.4809598 4.2009,-4.4809598 2.40852,0 4.06087,1.96042 4.06087,4.4809598 z"
               id="path915"
               inkscape:connector-curvature="0" /><path
               d="m 143.3347,-4.3689361 h -2.46453 c 0.11203,3.38872608 2.01643,5.01307411 5.85326,5.01307411 3.69679,0 6.04929,-1.82039001 6.04929,-4.64899611 0,-2.184468 -1.23226,-3.388726 -4.14489,-4.088876 l -2.24048,-0.5321141 c -1.9044,-0.448096 -2.71658,-1.064228 -2.71658,-2.1004498 0,-1.344288 1.20426,-2.212474 3.10867,-2.212474 1.8764,0 2.88462,0.812174 2.94063,2.352504 h 2.46453 c -0.028,-2.884618 -1.93242,-4.508966 -5.32114,-4.508966 -3.41674,0 -5.62921,1.764378 -5.62921,4.48096 0,2.2964918 1.17625,3.3887259 4.649,4.2289059 l 2.18446,0.532114 c 1.62435,0.392084 2.26849,0.98021 2.26849,2.044438 0,1.3722941 -1.37229,2.2964921 -3.41673,2.2964921 -2.85661,0 -3.38873,-1.4283061 -3.58477,-2.8566121 z"
               id="path917"
               inkscape:connector-curvature="0" /><path
               d="m 172.06886,-6.5534041 c 0,-5.3211399 -1.98843,-8.5418299 -6.5254,-8.5418299 -4.08887,0 -6.72144,3.136672 -6.72144,7.9537039 0,4.8170321 2.54855,7.78566811 6.66543,7.78566811 3.36072,0 5.68522,-1.90440801 6.27334,-5.09709211 h -2.3525 c -0.64414,1.9324141 -1.96042,2.9406301 -3.83682,2.9406301 -2.71658,0 -4.25691,-2.0444381 -4.31293,-5.0410801 z m -10.7543,-1.9044081 c 0.19604,-2.7165818 1.84839,-4.4809598 4.2009,-4.4809598 2.40851,0 4.06087,1.96042 4.06087,4.4809598 z"
               id="path919"
               inkscape:connector-curvature="0" /><path
               d="m 193.29742,-9.2979922 h 9.74608 v -2.2964918 h -9.74608 v -6.525398 h 11.09037 v -2.296492 H 190.69286 V 0 h 2.60456 z"
               id="path921"
               inkscape:connector-curvature="0" /><path
               d="m 218.27877,-12.630706 v -2.38051 c -0.39209,-0.05601 -0.58813,-0.08402 -0.8962,-0.08402 -1.51232,0 -2.66057,0.896192 -4.00485,3.08066 v -2.66057 h -2.15647 V 0 h 2.35251 v -7.6176321 c 0,-4.1168819 1.8764,-4.9570619 4.70501,-5.0130739 z"
               id="path923"
               inkscape:connector-curvature="0" /><path
               d="m 237.0988,-6.5534041 c 0,-5.3211399 -1.98843,-8.5418299 -6.5254,-8.5418299 -4.08888,0 -6.72144,3.136672 -6.72144,7.9537039 0,4.8170321 2.54855,7.78566811 6.66543,7.78566811 3.36072,0 5.68522,-1.90440801 6.27334,-5.09709211 h -2.3525 c -0.64414,1.9324141 -1.96042,2.9406301 -3.83682,2.9406301 -2.71659,0 -4.25692,-2.0444381 -4.31293,-5.0410801 z m -10.75431,-1.9044081 c 0.19605,-2.7165818 1.8484,-4.4809598 4.2009,-4.4809598 2.40852,0 4.06087,1.96042 4.06087,4.4809598 z"
               id="path925"
               inkscape:connector-curvature="0" /><path
               d="m 246.39679,-14.675144 h -2.3245 V 0 h 2.3245 z m 0,-5.74123 h -2.3525 v 2.94063 h 2.3525 z"
               id="path927"
               inkscape:connector-curvature="0" /><path
               d="M 254.3505,-20.416374 V 0 h 2.10045 v -1.876402 c 1.12024,1.708366 2.60455,2.52054001 4.64899,2.52054001 3.86483,0 6.38537,-3.16467801 6.38537,-8.03772211 0,-4.7610199 -2.40852,-7.7016499 -6.27334,-7.7016499 -2.01644,0 -3.44474,0.756162 -4.53698,2.408516 v -7.729656 z m 6.41337,7.505608 c 2.60456,0 4.28492,2.268486 4.28492,5.7692359 0,3.332714 -1.73637,5.6012001 -4.28492,5.6012001 -2.46453,0 -4.08888,-2.2404801 -4.08888,-5.6852181 0,-3.4447379 1.62435,-5.6852179 4.08888,-5.6852179 z"
               id="path929"
               inkscape:connector-curvature="0" /><path
               d="m 285.99726,0 v -14.675144 h -2.3245 v 8.3177819 c 0,2.996642 -1.56833,4.9570621 -4.00486,4.9570621 -1.84839,0 -3.02464,-1.12024 -3.02464,-2.8846181 V -14.675144 h -2.3245 v 11.3144239 c 0,2.43652208 1.82039,4.00485811 4.677,4.00485811 2.15646,0 3.52876,-0.75616201 4.90105,-2.68857601 V 0 Z"
               id="path931"
               inkscape:connector-curvature="0" /><path
               d="m 300.6444,-12.630706 v -2.38051 c -0.39209,-0.05601 -0.58813,-0.08402 -0.8962,-0.08402 -1.51232,0 -2.66057,0.896192 -4.00485,3.08066 v -2.66057 h -2.15647 V 0 h 2.35251 v -7.6176321 c 0,-4.1168819 1.8764,-4.9570619 4.70501,-5.0130739 z"
               id="path933"
               inkscape:connector-curvature="0" /><path
               d="m 312.26689,0.64413801 c 1.84839,0 3.13667,-0.78416801 4.45295,-2.63256401 v 0.756162 c 0,3.36072 -0.78417,5.3771521 -4.08887,5.3771521 -0.72816,0 -3.16468,-0.084018 -3.55677,-2.4645281 h -2.38051 c 0.25206,2.7725941 2.40852,4.4249481 5.85326,4.4249481 5.57319,0 6.5534,-3.4167321 6.5534,-8.5138241 v -12.266628 h -2.43652 l 0.28006,2.128456 c -1.17625,-1.736372 -2.60456,-2.548546 -4.48096,-2.548546 -3.7248,0 -6.24534,3.248696 -6.24534,8.0097159 0,4.7890261 2.71658,7.72965611 6.0493,7.72965611 z m 0.44809,-13.58291001 c 2.52054,0 4.00486,2.128456 4.00486,5.7972419 0,3.50075 -1.51232,5.6292061 -3.97685,5.6292061 -2.54855,0 -4.08888,-2.1564621 -4.08888,-5.7132241 0,-3.5287559 1.56834,-5.7132239 4.06087,-5.7132239 z"
               id="path935"
               inkscape:connector-curvature="0" /></g></g></g></g></g></svg>