<?xml version="1.0" encoding="UTF-8" standalone="no"?>
<svg
   xmlns:dc="http://purl.org/dc/elements/1.1/"
   xmlns:cc="http://creativecommons.org/ns#"
   xmlns:rdf="http://www.w3.org/1999/02/22-rdf-syntax-ns#"
   xmlns:svg="http://www.w3.org/2000/svg"
   xmlns="http://www.w3.org/2000/svg"
   xmlns:sodipodi="http://sodipodi.sourceforge.net/DTD/sodipodi-0.dtd"
   xmlns:inkscape="http://www.inkscape.org/namespaces/inkscape"
   viewBox="0 0 460 120"
   height="120"
   width="460"
   xml:space="preserve"
   id="svg2"
   version="1.1"
   sodipodi:docname="efre.svg"
   inkscape:version="0.92.4 (5da689c313, 2019-01-14)"><sodipodi:namedview
     pagecolor="#ffffff"
     bordercolor="#666666"
     borderopacity="1"
     objecttolerance="10"
     gridtolerance="10"
     guidetolerance="10"
     inkscape:pageopacity="0"
     inkscape:pageshadow="2"
     inkscape:window-width="1874"
     inkscape:window-height="1043"
     id="namedview76"
     showgrid="false"
     inkscape:zoom="1.6802688"
     inkscape:cx="65.835947"
     inkscape:cy="27.641285"
     inkscape:window-x="1246"
     inkscape:window-y="1200"
     inkscape:window-maximized="1"
     inkscape:current-layer="svg2" /><metadata
     id="metadata8"><rdf:RDF><cc:Work
         rdf:about=""><dc:format>image/svg+xml</dc:format><dc:type
           rdf:resource="http://purl.org/dc/dcmitype/StillImage" /><dc:title></dc:title></cc:Work></rdf:RDF></metadata><defs
     id="defs6" /><g
     transform="matrix(2.4463834,0,0,-2.4463834,0,120)"
     id="g10"><g
       transform="scale(0.1)"
       id="g12"><path
         id="path14"
         style="fill:#254aa5;fill-opacity:1;fill-rule:nonzero;stroke:none"
         d="M 0,490.52 H 735.766 V 0 H 0 v 490.52 0"
         inkscape:connector-curvature="0" /><path
         id="path16"
         style="fill:#fff200;fill-opacity:1;fill-rule:nonzero;stroke:none"
         d="m 305.605,358.336 -15.316,11.129 -15.316,-11.129 5.847,18.008 -15.316,11.129 18.93,0.004 5.855,18.003 5.848,-18.003 18.929,-0.004 -15.308,-11.129 5.847,-18.008 v 0"
         inkscape:connector-curvature="0" /><path
         id="path18"
         style="fill:#fff200;fill-opacity:1;fill-rule:nonzero;stroke:none"
         d="m 248.359,301.387 -15.316,11.129 -15.316,-11.129 5.851,18.008 -15.316,11.128 h 18.929 l 5.852,18.004 5.852,-18.004 h 18.933 l -15.316,-11.128 5.847,-18.008 v 0"
         inkscape:connector-curvature="0" /><path
         id="path20"
         style="fill:#fff200;fill-opacity:1;fill-rule:nonzero;stroke:none"
         d="m 227.348,223.418 -15.317,11.121 -15.316,-11.121 5.848,18.004 -15.317,11.129 h 18.93 l 5.855,18.008 5.852,-18.008 h 18.93 l -15.313,-11.129 5.848,-18.004 v 0"
         inkscape:connector-curvature="0" /><path
         id="path22"
         style="fill:#fff200;fill-opacity:1;fill-rule:nonzero;stroke:none"
         d="m 305.605,87.8516 -15.316,11.1328 -15.316,-11.1328 5.847,18.0074 -15.316,11.133 h 18.93 l 5.855,18.008 5.848,-18.008 h 18.929 l -15.308,-11.133 5.847,-18.0074 v 0"
         inkscape:connector-curvature="0" /><path
         id="path24"
         style="fill:#fff200;fill-opacity:1;fill-rule:nonzero;stroke:none"
         d="m 248.359,144.805 -15.316,11.133 -15.316,-11.133 5.851,18.008 -15.316,11.132 h 18.929 l 5.852,18.008 5.852,-18.008 h 18.933 l -15.316,-11.132 5.847,-18.008 v 0"
         inkscape:connector-curvature="0" /><path
         id="path26"
         style="fill:#fff200;fill-opacity:1;fill-rule:nonzero;stroke:none"
         d="m 430.156,358.336 15.317,11.129 15.324,-11.129 -5.856,18.008 15.317,11.129 -18.93,0.004 -5.855,18.003 -5.856,-18.003 -18.929,-0.004 15.32,-11.129 -5.852,-18.008 v 0"
         inkscape:connector-curvature="0" /><path
         id="path28"
         style="fill:#fff200;fill-opacity:1;fill-rule:nonzero;stroke:none"
         d="m 487.395,301.387 15.316,11.129 15.316,-11.129 -5.847,18.008 15.316,11.128 h -18.933 l -5.852,18.004 -5.852,-18.004 h -18.933 l 15.32,-11.128 -5.851,-18.008 v 0"
         inkscape:connector-curvature="0" /><path
         id="path30"
         style="fill:#fff200;fill-opacity:1;fill-rule:nonzero;stroke:none"
         d="m 508.418,223.418 15.316,11.121 15.321,-11.121 -5.852,18.004 15.317,11.129 h -18.93 l -5.856,18.008 -5.847,-18.008 h -18.934 l 15.317,-11.129 -5.852,-18.004 v 0"
         inkscape:connector-curvature="0" /><path
         id="path32"
         style="fill:#fff200;fill-opacity:1;fill-rule:nonzero;stroke:none"
         d="m 430.156,87.8516 15.317,11.1328 15.324,-11.1328 -5.856,18.0074 15.317,11.133 h -18.93 L 445.473,135 439.617,116.992 h -18.929 l 15.32,-11.133 -5.852,-18.0074 v 0"
         inkscape:connector-curvature="0" /><path
         id="path34"
         style="fill:#fff200;fill-opacity:1;fill-rule:nonzero;stroke:none"
         d="m 487.395,144.805 15.316,11.133 15.316,-11.133 -5.847,18.008 15.316,11.132 h -18.933 l -5.852,18.008 -5.852,-18.008 h -18.933 l 15.32,-11.132 -5.851,-18.008 v 0"
         inkscape:connector-curvature="0" /><path
         id="path36"
         style="fill:#fff200;fill-opacity:1;fill-rule:nonzero;stroke:none"
         d="m 352.668,379.566 15.316,11.133 15.317,-11.133 -5.852,18.008 15.321,11.129 h -18.93 l -5.856,18.008 -5.851,-18.008 h -18.93 l 15.313,-11.129 -5.848,-18.008 v 0"
         inkscape:connector-curvature="0" /><path
         id="path38"
         style="fill:#fff200;fill-opacity:1;fill-rule:nonzero;stroke:none"
         d="m 352.668,66.8555 15.316,11.125 15.317,-11.125 -5.852,18 15.321,11.1328 h -18.93 l -5.856,18.0077 -5.851,-18.0077 h -18.93 l 15.313,-11.1328 -5.848,-18 v 0"
         inkscape:connector-curvature="0" /><path
         id="path40"
         style="fill:#231f20;fill-opacity:1;fill-rule:nonzero;stroke:none"
         d="m 812.91,363.922 v 71.582 h 51.758 v -8.449 h -42.285 v -21.922 h 39.597 v -8.399 h -39.597 v -24.367 h 43.945 v -8.445 H 812.91"
         inkscape:connector-curvature="0" /><path
         id="path42"
         style="fill:#231f20;fill-opacity:1;fill-rule:nonzero;stroke:none"
         d="m 926.387,435.504 h 9.472 v -41.359 c 0,-7.192 -0.816,-12.903 -2.441,-17.137 -1.625,-4.235 -4.566,-7.676 -8.813,-10.328 -4.25,-2.653 -9.824,-3.981 -16.722,-3.981 -6.707,0 -12.195,1.16 -16.457,3.469 -4.262,2.309 -7.309,5.652 -9.129,10.035 -1.824,4.379 -2.734,10.36 -2.734,17.942 v 41.359 h 9.468 v -41.309 c 0,-6.215 0.578,-10.8 1.735,-13.746 1.16,-2.945 3.14,-5.215 5.957,-6.812 2.82,-1.594 6.261,-2.391 10.328,-2.391 6.969,0 11.929,1.578 14.89,4.734 2.965,3.161 4.446,9.231 4.446,18.215 v 41.309"
         inkscape:connector-curvature="0" /><path
         id="path44"
         style="fill:#231f20;fill-opacity:1;fill-rule:nonzero;stroke:none"
         d="m 961.25,403.91 h 20.359 c 4.329,0 7.715,0.449 10.161,1.344 2.441,0.894 4.293,2.328 5.566,4.297 1.269,1.969 1.902,4.113 1.902,6.422 0,3.382 -1.23,6.168 -3.691,8.347 -2.449,2.184 -6.336,3.274 -11.641,3.274 H 961.25 Z m -9.473,-39.988 v 71.582 h 31.739 c 6.379,0 11.23,-0.645 14.55,-1.93 3.324,-1.285 5.974,-3.554 7.964,-6.812 1.98,-3.254 2.97,-6.848 2.97,-10.789 0,-5.078 -1.64,-9.36 -4.93,-12.844 -3.29,-3.481 -8.367,-5.695 -15.23,-6.641 2.508,-1.203 4.414,-2.39 5.711,-3.562 2.762,-2.539 5.39,-5.715 7.859,-9.524 l 12.45,-19.48 h -11.91 l -9.473,14.891 c -2.762,4.296 -5.047,7.585 -6.836,9.863 -1.786,2.281 -3.399,3.875 -4.805,4.785 -1.426,0.914 -2.859,1.551 -4.324,1.906 -1.074,0.231 -2.832,0.34 -5.278,0.34 H 961.25 v -31.785 h -9.473"
         inkscape:connector-curvature="0" /><path
         id="path46"
         style="fill:#231f20;fill-opacity:1;fill-rule:nonzero;stroke:none"
         d="m 1030.73,398.637 c 0,-8.625 2.32,-15.418 6.97,-20.383 4.62,-4.969 10.44,-7.449 17.45,-7.449 7.13,0 12.99,2.508 17.6,7.519 4.6,5.016 6.91,12.125 6.91,21.34 0,5.824 -0.99,10.914 -2.96,15.258 -1.96,4.348 -4.84,7.715 -8.63,10.109 -3.8,2.391 -8.06,3.586 -12.78,3.586 -6.71,0 -12.48,-2.304 -17.3,-6.906 -4.85,-4.606 -7.26,-12.297 -7.26,-23.074 z m -9.76,0.148 c 0,11.879 3.19,21.18 9.57,27.906 6.37,6.723 14.62,10.082 24.7,10.082 6.62,0 12.57,-1.578 17.88,-4.738 5.3,-3.156 9.34,-7.558 12.13,-13.207 2.78,-5.648 4.17,-12.051 4.17,-19.215 0,-7.258 -1.46,-13.754 -4.39,-19.48 -2.93,-5.727 -7.08,-10.07 -12.45,-13.012 -5.37,-2.945 -11.16,-4.422 -17.38,-4.422 -6.74,0 -12.77,1.629 -18.07,4.883 -5.3,3.258 -9.33,7.703 -12.06,13.332 -2.74,5.629 -4.1,11.586 -4.1,17.871"
         inkscape:connector-curvature="0" /><path
         id="path48"
         style="fill:#231f20;fill-opacity:1;fill-rule:nonzero;stroke:none"
         d="m 1111.1,401.469 h 18.51 c 6.12,0 10.47,1.14 13.04,3.418 2.56,2.281 3.85,5.484 3.85,9.621 0,2.992 -0.76,5.555 -2.26,7.691 -1.53,2.133 -3.52,3.539 -5.99,4.223 -1.59,0.426 -4.54,0.633 -8.84,0.633 h -18.31 z m -9.47,-37.547 v 71.582 h 27 c 4.76,0 8.38,-0.231 10.89,-0.684 3.52,-0.586 6.47,-1.699 8.84,-3.343 2.37,-1.649 4.29,-3.946 5.74,-6.911 1.45,-2.964 2.17,-6.214 2.17,-9.765 0,-6.09 -1.93,-11.242 -5.81,-15.453 -3.88,-4.215 -10.87,-6.325 -21,-6.325 h -18.36 v -29.101 h -9.47"
         inkscape:connector-curvature="0" /><path
         id="path50"
         style="fill:#231f20;fill-opacity:1;fill-rule:nonzero;stroke:none"
         d="m 1197.33,439.898 v 10.008 h 9.18 v -10.008 z m -16.21,-46.582 h 24.27 l -7.47,19.825 c -2.28,6.019 -3.97,10.972 -5.08,14.843 -0.91,-4.589 -2.2,-9.144 -3.86,-13.671 z m -2,46.582 v 10.008 h 9.18 v -10.008 z m -18.65,-75.976 27.49,71.582 h 10.2 l 29.3,-71.582 h -10.79 l -8.35,21.68 h -29.93 l -7.86,-21.68 h -10.06"
         inkscape:connector-curvature="0" /><path
         id="path52"
         style="fill:#231f20;fill-opacity:1;fill-rule:nonzero;stroke:none"
         d="m 1236.64,363.922 v 71.582 h 9.47 v -71.582 h -9.47"
         inkscape:connector-curvature="0" /><path
         id="path54"
         style="fill:#231f20;fill-opacity:1;fill-rule:nonzero;stroke:none"
         d="m 1259.59,386.918 8.94,0.781 c 0.42,-3.578 1.4,-6.515 2.95,-8.812 1.55,-2.293 3.95,-4.149 7.2,-5.567 3.25,-1.414 6.92,-2.125 10.99,-2.125 3.61,0 6.8,0.539 9.57,1.614 2.76,1.074 4.82,2.546 6.17,4.418 1.36,1.871 2.03,3.918 2.03,6.128 0,2.247 -0.65,4.208 -1.95,5.883 -1.3,1.676 -3.45,3.086 -6.45,4.223 -1.92,0.75 -6.17,1.914 -12.74,3.492 -6.57,1.578 -11.18,3.067 -13.82,4.469 -3.42,1.793 -5.97,4.012 -7.64,6.664 -1.68,2.652 -2.52,5.625 -2.52,8.91 0,3.613 1.03,6.992 3.08,10.133 2.05,3.141 5.05,5.527 8.98,7.152 3.94,1.629 8.33,2.442 13.14,2.442 5.3,0 9.98,-0.852 14.04,-2.563 4.05,-1.707 7.17,-4.222 9.35,-7.543 2.18,-3.32 3.35,-7.082 3.51,-11.281 l -9.08,-0.684 c -0.49,4.528 -2.14,7.946 -4.95,10.254 -2.82,2.313 -6.98,3.469 -12.48,3.469 -5.73,0 -9.9,-1.051 -12.52,-3.148 -2.63,-2.102 -3.93,-4.629 -3.93,-7.594 0,-2.574 0.92,-4.688 2.78,-6.348 1.82,-1.66 6.58,-3.359 14.28,-5.101 7.7,-1.746 12.98,-3.262 15.85,-4.567 4.17,-1.918 7.24,-4.355 9.22,-7.301 1.99,-2.945 2.98,-6.336 2.98,-10.179 0,-3.809 -1.09,-7.399 -3.27,-10.766 -2.18,-3.371 -5.31,-5.992 -9.39,-7.863 -4.1,-1.871 -8.7,-2.809 -13.8,-2.809 -6.48,0 -11.91,0.946 -16.28,2.832 -4.39,1.891 -7.81,4.727 -10.31,8.524 -2.48,3.793 -3.8,8.078 -3.93,12.863"
         inkscape:connector-curvature="0" /><path
         id="path56"
         style="fill:#231f20;fill-opacity:1;fill-rule:nonzero;stroke:none"
         d="m 1380.59,389.02 9.47,-2.395 c -1.98,-7.777 -5.56,-13.711 -10.72,-17.797 -5.16,-4.086 -11.47,-6.129 -18.92,-6.129 -7.71,0 -13.99,1.574 -18.82,4.715 -4.84,3.137 -8.51,7.688 -11.03,13.645 -2.53,5.957 -3.79,12.355 -3.79,19.191 0,7.457 1.42,13.953 4.27,19.508 2.85,5.551 6.9,9.765 12.15,12.644 5.27,2.883 11.05,4.321 17.37,4.321 7.15,0 13.18,-1.821 18.06,-5.469 4.89,-3.645 8.28,-8.774 10.21,-15.379 l -9.33,-2.199 c -1.66,5.211 -4.07,9 -7.22,11.379 -3.16,2.379 -7.13,3.562 -11.92,3.562 -5.5,0 -10.1,-1.316 -13.79,-3.953 -3.7,-2.637 -6.3,-6.176 -7.79,-10.621 -1.5,-4.441 -2.25,-9.023 -2.25,-13.746 0,-6.086 0.89,-11.399 2.66,-15.942 1.78,-4.539 4.54,-7.933 8.28,-10.179 3.74,-2.246 7.79,-3.371 12.16,-3.371 5.3,0 9.79,1.531 13.48,4.59 3.68,3.062 6.17,7.601 7.47,13.625"
         inkscape:connector-curvature="0" /><path
         id="path58"
         style="fill:#231f20;fill-opacity:1;fill-rule:nonzero;stroke:none"
         d="m 1402.02,363.922 v 71.582 h 9.47 v -29.395 h 37.21 v 29.395 h 9.47 v -71.582 h -9.47 v 33.738 h -37.21 v -33.738 h -9.47"
         inkscape:connector-curvature="0" /><path
         id="path60"
         style="fill:#231f20;fill-opacity:1;fill-rule:nonzero;stroke:none"
         d="m 1474.14,363.922 v 71.582 h 51.76 v -8.449 h -42.29 v -21.922 h 39.6 v -8.399 h -39.6 v -24.367 h 43.95 v -8.445 h -53.42"
         inkscape:connector-curvature="0" /><path
         id="path62"
         style="fill:#231f20;fill-opacity:1;fill-rule:nonzero;stroke:none"
         d="m 1615.4,435.504 h 9.47 v -41.359 c 0,-7.192 -0.81,-12.903 -2.44,-17.137 -1.63,-4.235 -4.56,-7.676 -8.82,-10.328 -4.23,-2.653 -9.81,-3.981 -16.72,-3.981 -6.7,0 -12.18,1.16 -16.45,3.469 -4.27,2.309 -7.31,5.652 -9.13,10.035 -1.83,4.379 -2.74,10.36 -2.74,17.942 v 41.359 h 9.48 v -41.309 c 0,-6.215 0.57,-10.8 1.74,-13.746 1.15,-2.945 3.13,-5.215 5.95,-6.812 2.81,-1.594 6.25,-2.391 10.32,-2.391 6.97,0 11.94,1.578 14.9,4.734 2.96,3.161 4.44,9.231 4.44,18.215 v 41.309"
         inkscape:connector-curvature="0" /><path
         id="path64"
         style="fill:#231f20;fill-opacity:1;fill-rule:nonzero;stroke:none"
         d="m 1640.55,363.922 v 71.582 h 9.71 l 37.6,-56.203 v 56.203 h 9.08 v -71.582 h -9.71 l -37.6,56.25 v -56.25 h -9.08"
         inkscape:connector-curvature="0" /><path
         id="path66"
         style="fill:#231f20;fill-opacity:1;fill-rule:nonzero;stroke:none"
         d="m 1714.47,363.922 v 71.582 h 9.48 v -71.582 h -9.48"
         inkscape:connector-curvature="0" /><path
         id="path68"
         style="fill:#231f20;fill-opacity:1;fill-rule:nonzero;stroke:none"
         d="m 1747.53,398.637 c 0,-8.625 2.31,-15.418 6.96,-20.383 4.63,-4.969 10.45,-7.449 17.45,-7.449 7.13,0 13,2.508 17.61,7.519 4.6,5.016 6.91,12.125 6.91,21.34 0,5.824 -0.99,10.914 -2.96,15.258 -1.97,4.348 -4.85,7.715 -8.64,10.109 -3.8,2.391 -8.05,3.586 -12.77,3.586 -6.71,0 -12.48,-2.304 -17.3,-6.906 -4.85,-4.606 -7.26,-12.297 -7.26,-23.074 z m -9.77,0.148 c 0,11.879 3.2,21.18 9.57,27.906 6.38,6.723 14.62,10.082 24.71,10.082 6.61,0 12.57,-1.578 17.87,-4.738 5.3,-3.156 9.35,-7.558 12.14,-13.207 2.77,-5.648 4.17,-12.051 4.17,-19.215 0,-7.258 -1.46,-13.754 -4.39,-19.48 -2.93,-5.727 -7.08,-10.07 -12.45,-13.012 -5.38,-2.945 -11.17,-4.422 -17.39,-4.422 -6.74,0 -12.76,1.629 -18.06,4.883 -5.31,3.258 -9.33,7.703 -12.06,13.332 -2.74,5.629 -4.11,11.586 -4.11,17.871"
         inkscape:connector-curvature="0" /><path
         id="path70"
         style="fill:#231f20;fill-opacity:1;fill-rule:nonzero;stroke:none"
         d="m 1818.33,363.922 v 71.582 h 9.72 l 37.59,-56.203 v 56.203 h 9.09 v -71.582 h -9.72 l -37.6,56.25 v -56.25 h -9.08"
         inkscape:connector-curvature="0" /><path
         id="path72"
         style="fill:#231f20;fill-opacity:1;fill-rule:nonzero;stroke:none"
         d="m 812.117,143.918 v 64.434 h 46.582 v -7.61 h -38.054 v -19.734 h 35.64 v -7.559 h -35.64 v -21.926 h 39.55 v -7.605 h -48.078"
         inkscape:connector-curvature="0" /><path
         id="path74"
         style="fill:#231f20;fill-opacity:1;fill-rule:nonzero;stroke:none"
         d="m 901.098,143.918 v 6.855 c -3.633,-5.277 -8.571,-7.91 -14.809,-7.91 -2.754,0 -5.328,0.528 -7.715,1.582 -2.386,1.051 -4.16,2.383 -5.312,3.985 -1.16,1.59 -1.973,3.554 -2.442,5.859 -0.324,1.563 -0.484,4.024 -0.484,7.383 v 28.926 h 7.91 v -25.891 c 0,-4.129 0.16,-6.914 0.484,-8.348 0.5,-2.082 1.551,-3.711 3.165,-4.906 1.613,-1.18 3.601,-1.773 5.976,-1.773 2.371,0 4.602,0.605 6.68,1.824 2.082,1.211 3.551,2.863 4.414,4.961 0.863,2.101 1.301,5.137 1.301,9.121 v 25.012 h 7.91 v -46.68 h -7.078"
         inkscape:connector-curvature="0" /><path
         id="path76"
         style="fill:#231f20;fill-opacity:1;fill-rule:nonzero;stroke:none"
         d="m 920.027,143.918 v 46.68 h 7.121 v -7.082 c 1.817,3.312 3.497,5.5 5.032,6.554 1.543,1.051 3.23,1.582 5.078,1.582 2.664,0 5.375,-0.859 8.133,-2.558 l -2.731,-7.336 c -1.933,1.144 -3.867,1.711 -5.801,1.711 -1.726,0 -3.281,-0.52 -4.656,-1.555 -1.379,-1.043 -2.359,-2.488 -2.945,-4.324 -0.879,-2.813 -1.32,-5.899 -1.32,-9.238 v -24.434 h -7.911"
         inkscape:connector-curvature="0" /><path
         id="path78"
         style="fill:#231f20;fill-opacity:1;fill-rule:nonzero;stroke:none"
         d="m 954.824,167.258 c 0,-5.977 1.309,-10.449 3.914,-13.43 2.61,-2.976 5.891,-4.461 9.848,-4.461 3.926,0 7.184,1.504 9.793,4.492 2.605,2.989 3.918,7.539 3.918,13.661 0,5.773 -1.313,10.148 -3.938,13.117 -2.617,2.968 -5.879,4.461 -9.773,4.461 -3.957,0 -7.238,-1.477 -9.848,-4.442 -2.605,-2.953 -3.914,-7.422 -3.914,-13.398 z m -8.125,0 c 0,8.64 2.403,15.039 7.207,19.195 4.016,3.461 8.907,5.199 14.68,5.199 6.414,0 11.656,-2.109 15.73,-6.308 4.075,-4.211 6.114,-10.02 6.114,-17.422 0,-6.016 -0.91,-10.742 -2.703,-14.18 -1.809,-3.437 -4.426,-6.113 -7.872,-8.019 -3.437,-1.903 -7.199,-2.86 -11.269,-2.86 -6.535,0 -11.816,2.098 -15.844,6.289 -4.031,4.188 -6.043,10.223 -6.043,18.106"
         inkscape:connector-curvature="0" /><path
         id="path80"
         style="fill:#231f20;fill-opacity:1;fill-rule:nonzero;stroke:none"
         d="m 1006.42,166.992 c 0,-6.004 1.21,-10.437 3.64,-13.308 2.43,-2.871 5.38,-4.317 8.84,-4.317 3.51,0 6.52,1.485 9.03,4.461 2.5,2.981 3.75,7.59 3.75,13.82 0,5.957 -1.22,10.411 -3.66,13.36 -2.45,2.969 -5.37,4.441 -8.77,4.441 -3.37,0 -6.35,-1.57 -8.95,-4.726 -2.59,-3.153 -3.88,-7.727 -3.88,-13.731 z m -7.162,-40.957 v 64.563 h 7.202 v -6.075 c 1.69,2.383 3.62,4.161 5.76,5.34 2.14,1.192 4.72,1.789 7.78,1.789 3.97,0 7.49,-1.035 10.55,-3.086 3.03,-2.05 5.34,-4.945 6.89,-8.671 1.55,-3.743 2.33,-7.832 2.33,-12.286 0,-4.777 -0.85,-9.074 -2.57,-12.902 -1.71,-3.816 -4.2,-6.746 -7.47,-8.789 -3.27,-2.031 -6.7,-3.055 -10.31,-3.055 -2.63,0 -5,0.567 -7.1,1.68 -2.09,1.113 -3.81,2.52 -5.15,4.219 v -22.727 h -7.912"
         inkscape:connector-curvature="0" /><path
         id="path82"
         style="fill:#231f20;fill-opacity:1;fill-rule:nonzero;stroke:none"
         d="m 1071.76,199.738 v 9.004 h 8.26 v -9.004 z m -16.39,0 v 9.004 h 8.26 v -9.004 z m 23.28,-32.394 c -2.87,-1.172 -7.18,-2.168 -12.91,-2.989 -3.26,-0.468 -5.55,-0.996 -6.9,-1.582 -1.35,-0.585 -2.39,-1.445 -3.12,-2.57 -0.74,-1.129 -1.1,-2.379 -1.1,-3.758 0,-2.109 0.8,-3.867 2.39,-5.273 1.6,-1.406 3.94,-2.109 7.01,-2.109 3.05,0 5.77,0.664 8.13,2.003 2.38,1.329 4.12,3.153 5.23,5.469 0.85,1.785 1.27,4.422 1.27,7.91 z m 0.67,-17.664 c -2.93,-2.492 -5.76,-4.25 -8.46,-5.274 -2.72,-1.027 -5.63,-1.543 -8.73,-1.543 -5.13,0 -9.06,1.258 -11.82,3.758 -2.75,2.512 -4.13,5.715 -4.13,9.602 0,2.285 0.52,4.375 1.56,6.269 1.04,1.883 2.41,3.399 4.09,4.551 1.69,1.133 3.58,2 5.69,2.586 1.55,0.41 3.9,0.812 7.03,1.184 6.39,0.761 11.08,1.679 14.1,2.734 0.03,1.074 0.05,1.766 0.05,2.058 0,3.223 -0.75,5.5 -2.24,6.809 -2.03,1.797 -5.02,2.684 -9.01,2.684 -3.72,0 -6.46,-0.653 -8.24,-1.953 -1.77,-1.309 -3.09,-3.614 -3.94,-6.922 l -7.73,1.054 c 0.7,3.309 1.86,5.977 3.48,8.016 1.61,2.043 3.93,3.605 6.99,4.707 3.03,1.094 6.57,1.652 10.58,1.652 3.99,0 7.22,-0.468 9.71,-1.406 2.49,-0.937 4.33,-2.129 5.5,-3.547 1.17,-1.414 1.99,-3.211 2.46,-5.379 0.26,-1.347 0.4,-3.781 0.4,-7.297 v -10.546 c 0,-7.356 0.17,-12 0.5,-13.954 0.34,-1.953 1,-3.808 2,-5.605 h -8.26 c -0.82,1.641 -1.35,3.562 -1.58,5.762"
         inkscape:connector-curvature="0" /><path
         id="path84"
         style="fill:#231f20;fill-opacity:1;fill-rule:nonzero;stroke:none"
         d="m 1098.52,143.918 v 46.68 h 7.91 v -46.68 z m 0,55.328 v 9.106 h 7.91 v -9.106 h -7.91"
         inkscape:connector-curvature="0" /><path
         id="path86"
         style="fill:#231f20;fill-opacity:1;fill-rule:nonzero;stroke:none"
         d="m 1114.84,157.852 7.84,1.23 c 0.43,-3.133 1.66,-5.535 3.66,-7.207 2.01,-1.672 4.81,-2.508 8.42,-2.508 3.63,0 6.32,0.742 8.08,2.227 1.76,1.472 2.64,3.211 2.64,5.203 0,1.789 -0.78,3.195 -2.34,4.219 -1.08,0.703 -3.76,1.593 -8.08,2.687 -5.8,1.465 -9.82,2.723 -12.06,3.797 -2.24,1.066 -3.94,2.551 -5.1,4.434 -1.15,1.894 -1.73,3.976 -1.73,6.261 0,2.09 0.47,4.004 1.43,5.782 0.94,1.777 2.24,3.242 3.88,4.414 1.23,0.918 2.91,1.679 5.03,2.312 2.13,0.625 4.41,0.949 6.84,0.949 3.66,0 6.87,-0.531 9.65,-1.582 2.76,-1.054 4.81,-2.492 6.12,-4.289 1.33,-1.804 2.23,-4.207 2.74,-7.234 l -7.74,-1.055 c -0.35,2.403 -1.38,4.278 -3.06,5.625 -1.68,1.348 -4.07,2.031 -7.13,2.031 -3.65,0 -6.23,-0.605 -7.79,-1.808 -1.55,-1.199 -2.33,-2.606 -2.33,-4.219 0,-1.023 0.32,-1.941 0.98,-2.762 0.63,-0.863 1.65,-1.562 3.02,-2.113 0.79,-0.293 3.13,-0.973 6.99,-2.027 5.59,-1.485 9.5,-2.715 11.71,-3.664 2.21,-0.957 3.95,-2.332 5.21,-4.149 1.26,-1.816 1.89,-4.082 1.89,-6.777 0,-2.637 -0.77,-5.117 -2.31,-7.441 -1.53,-2.336 -3.76,-4.133 -6.65,-5.411 -2.91,-1.269 -6.19,-1.914 -9.85,-1.914 -6.07,0 -10.69,1.27 -13.86,3.789 -3.19,2.52 -5.22,6.25 -6.1,11.2"
         inkscape:connector-curvature="0" /><path
         id="path88"
         style="fill:#231f20;fill-opacity:1;fill-rule:nonzero;stroke:none"
         d="m 1193.02,161.016 7.78,-1.004 c -0.86,-5.371 -3.03,-9.563 -6.53,-12.598 -3.5,-3.027 -7.81,-4.551 -12.9,-4.551 -6.39,0 -11.52,2.09 -15.4,6.27 -3.88,4.168 -5.82,10.156 -5.82,17.945 0,5.043 0.83,9.457 2.51,13.227 1.66,3.789 4.21,6.621 7.61,8.504 3.42,1.894 7.13,2.843 11.15,2.843 5.06,0 9.21,-1.289 12.43,-3.847 3.22,-2.571 5.29,-6.211 6.2,-10.918 l -7.69,-1.192 c -0.74,3.133 -2.03,5.489 -3.89,7.071 -1.86,1.582 -4.11,2.382 -6.75,2.382 -3.99,0 -7.22,-1.437 -9.71,-4.289 -2.49,-2.863 -3.73,-7.371 -3.73,-13.562 0,-6.27 1.19,-10.82 3.6,-13.664 2.4,-2.84 5.54,-4.266 9.41,-4.266 3.09,0 5.69,0.957 7.77,2.86 2.08,1.906 3.4,4.836 3.96,8.789"
         inkscape:connector-curvature="0" /><path
         id="path90"
         style="fill:#231f20;fill-opacity:1;fill-rule:nonzero;stroke:none"
         d="m 1207.11,143.918 v 64.434 h 7.91 v -23.125 c 3.69,4.277 8.36,6.425 13.98,6.425 3.45,0 6.46,-0.683 9.01,-2.05 2.55,-1.36 4.37,-3.243 5.47,-5.649 1.1,-2.398 1.65,-5.887 1.65,-10.457 v -29.578 h -7.91 v 29.578 c 0,3.957 -0.86,6.836 -2.57,8.633 -1.72,1.809 -4.14,2.707 -7.28,2.707 -2.34,0 -4.55,-0.606 -6.61,-1.828 -2.07,-1.219 -3.53,-2.86 -4.41,-4.942 -0.88,-2.078 -1.33,-4.949 -1.33,-8.613 v -25.535 h -7.91"
         inkscape:connector-curvature="0" /><path
         id="path92"
         style="fill:#231f20;fill-opacity:1;fill-rule:nonzero;stroke:none"
         d="m 1262.7,171.738 h 26.06 c -0.35,3.926 -1.35,6.867 -2.99,8.84 -2.52,3.043 -5.79,4.57 -9.79,4.57 -3.65,0 -6.69,-1.222 -9.17,-3.652 -2.47,-2.433 -3.84,-5.683 -4.11,-9.758 z m 25.97,-12.785 8.18,-1.012 c -1.29,-4.777 -3.69,-8.476 -7.16,-11.113 -3.5,-2.637 -7.95,-3.965 -13.36,-3.965 -6.84,0 -12.25,2.11 -16.24,6.309 -4.01,4.199 -6.01,10.098 -6.01,17.695 0,7.852 2.03,13.946 6.08,18.281 4.04,4.336 9.27,6.504 15.72,6.504 6.25,0 11.35,-2.129 15.29,-6.379 3.97,-4.246 5.94,-10.222 5.94,-17.929 0,-0.469 -0.02,-1.172 -0.04,-2.11 h -34.8 c 0.28,-5.125 1.73,-9.05 4.34,-11.777 2.61,-2.723 5.86,-4.09 9.76,-4.09 2.9,0 5.37,0.762 7.42,2.285 2.05,1.524 3.68,3.965 4.88,7.301"
         inkscape:connector-curvature="0" /><path
         id="path94"
         style="fill:#231f20;fill-opacity:1;fill-rule:nonzero;stroke:none"
         d="m 1306.25,143.918 v 46.68 h 7.11 v -7.082 c 1.82,3.312 3.5,5.5 5.04,6.554 1.53,1.051 3.22,1.582 5.08,1.582 2.65,0 5.37,-0.859 8.12,-2.558 l -2.72,-7.336 c -1.94,1.144 -3.87,1.711 -5.8,1.711 -1.73,0 -3.29,-0.52 -4.66,-1.555 -1.38,-1.043 -2.37,-2.488 -2.95,-4.324 -0.88,-2.813 -1.31,-5.899 -1.31,-9.238 v -24.434 h -7.91"
         inkscape:connector-curvature="0" /><path
         id="path96"
         style="fill:#231f20;fill-opacity:1;fill-rule:nonzero;stroke:none"
         d="m 1361.87,143.918 v 64.434 h 43.46 v -7.61 h -34.94 v -19.949 h 30.24 v -7.598 h -30.24 v -29.277 h -8.52"
         inkscape:connector-curvature="0" /><path
         id="path98"
         style="fill:#231f20;fill-opacity:1;fill-rule:nonzero;stroke:none"
         d="m 1420.14,167.258 c 0,-5.977 1.3,-10.449 3.9,-13.43 2.61,-2.976 5.89,-4.461 9.85,-4.461 3.92,0 7.18,1.504 9.8,4.492 2.6,2.989 3.91,7.539 3.91,13.661 0,5.773 -1.31,10.148 -3.94,13.117 -2.62,2.968 -5.88,4.461 -9.77,4.461 -3.96,0 -7.24,-1.477 -9.85,-4.442 -2.6,-2.953 -3.9,-7.422 -3.9,-13.398 z m -8.14,0 c 0,8.64 2.4,15.039 7.21,19.195 4.01,3.461 8.91,5.199 14.68,5.199 6.41,0 11.66,-2.109 15.73,-6.308 4.07,-4.211 6.1,-10.02 6.1,-17.422 0,-6.016 -0.9,-10.742 -2.69,-14.18 -1.81,-3.437 -4.43,-6.113 -7.87,-8.019 -3.44,-1.903 -7.2,-2.86 -11.27,-2.86 -6.54,0 -11.82,2.098 -15.84,6.289 -4.04,4.188 -6.05,10.223 -6.05,18.106"
         inkscape:connector-curvature="0" /><path
         id="path100"
         style="fill:#231f20;fill-opacity:1;fill-rule:nonzero;stroke:none"
         d="m 1464.55,143.918 v 46.68 h 7.13 v -6.645 c 3.42,5.129 8.37,7.699 14.84,7.699 2.82,0 5.4,-0.507 7.77,-1.523 2.35,-1.008 4.12,-2.336 5.29,-3.977 1.17,-1.64 1.99,-3.582 2.46,-5.847 0.29,-1.465 0.44,-4.024 0.44,-7.688 v -28.699 h -7.91 v 28.398 c 0,3.223 -0.31,5.625 -0.92,7.227 -0.62,1.59 -1.71,2.871 -3.28,3.816 -1.56,0.95 -3.4,1.438 -5.51,1.438 -3.38,0 -6.28,-1.074 -8.73,-3.215 -2.44,-2.137 -3.67,-6.199 -3.67,-12.176 v -25.488 h -7.91"
         inkscape:connector-curvature="0" /><path
         id="path102"
         style="fill:#231f20;fill-opacity:1;fill-rule:nonzero;stroke:none"
         d="m 1519.43,167.219 c 0,-5.977 1.26,-10.449 3.79,-13.41 2.51,-2.957 5.49,-4.442 8.92,-4.442 3.46,0 6.4,1.414 8.81,4.246 2.42,2.825 3.62,7.141 3.62,12.942 0,6.386 -1.23,11.074 -3.69,14.062 -2.46,2.988 -5.49,4.481 -9.09,4.481 -3.52,0 -6.46,-1.434 -8.81,-4.305 -2.36,-2.871 -3.55,-7.402 -3.55,-13.574 z m 25.01,-23.301 v 5.898 c -2.96,-4.628 -7.31,-6.953 -13.05,-6.953 -3.72,0 -7.14,1.035 -10.26,3.086 -3.12,2.047 -5.53,4.903 -7.25,8.582 -1.71,3.684 -2.57,7.903 -2.57,12.688 0,4.648 0.77,8.875 2.32,12.676 1.56,3.789 3.89,6.699 7,8.718 3.1,2.024 6.57,3.039 10.41,3.039 2.81,0 5.32,-0.597 7.51,-1.789 2.2,-1.179 3.99,-2.722 5.37,-4.636 v 23.125 h 7.86 v -64.434 h -7.34"
         inkscape:connector-curvature="0" /><path
         id="path104"
         style="fill:#231f20;fill-opacity:1;fill-rule:nonzero;stroke:none"
         d="m 1560.61,157.852 7.83,1.23 c 0.43,-3.133 1.66,-5.535 3.66,-7.207 2.01,-1.672 4.81,-2.508 8.42,-2.508 3.63,0 6.33,0.742 8.08,2.227 1.76,1.472 2.64,3.211 2.64,5.203 0,1.789 -0.78,3.195 -2.33,4.219 -1.09,0.703 -3.77,1.593 -8.09,2.687 -5.8,1.465 -9.81,2.723 -12.06,3.797 -2.24,1.066 -3.94,2.551 -5.1,4.434 -1.15,1.894 -1.73,3.976 -1.73,6.261 0,2.09 0.47,4.004 1.43,5.782 0.95,1.777 2.25,3.242 3.89,4.414 1.23,0.918 2.91,1.679 5.03,2.312 2.12,0.625 4.4,0.949 6.83,0.949 3.66,0 6.88,-0.531 9.65,-1.582 2.76,-1.054 4.81,-2.492 6.12,-4.289 1.33,-1.804 2.23,-4.207 2.74,-7.234 l -7.74,-1.055 c -0.35,2.403 -1.37,4.278 -3.05,5.625 -1.69,1.348 -4.08,2.031 -7.14,2.031 -3.65,0 -6.23,-0.605 -7.79,-1.808 -1.55,-1.199 -2.33,-2.606 -2.33,-4.219 0,-1.023 0.32,-1.941 0.98,-2.762 0.63,-0.863 1.65,-1.562 3.02,-2.113 0.8,-0.293 3.13,-0.973 7,-2.027 5.58,-1.485 9.49,-2.715 11.71,-3.664 2.2,-0.957 3.94,-2.332 5.2,-4.149 1.26,-1.816 1.9,-4.082 1.9,-6.777 0,-2.637 -0.78,-5.117 -2.32,-7.441 -1.53,-2.336 -3.76,-4.133 -6.65,-5.411 -2.91,-1.269 -6.19,-1.914 -9.84,-1.914 -6.08,0 -10.7,1.27 -13.87,3.789 -3.18,2.52 -5.22,6.25 -6.09,11.2"
         inkscape:connector-curvature="0" /><path
         id="path106"
         style="fill:#231f20;fill-opacity:1;fill-rule:nonzero;stroke:none"
         d="m 1634.76,143.918 v 40.527 h -6.99 v 6.153 h 6.99 v 4.961 c 0,3.132 0.27,5.468 0.83,6.992 0.76,2.051 2.11,3.711 4.02,4.98 1.92,1.278 4.61,1.914 8.07,1.914 2.22,0 4.68,-0.265 7.38,-0.793 l -1.19,-6.906 c -1.64,0.297 -3.2,0.453 -4.65,0.453 -2.41,0 -4.11,-0.519 -5.1,-1.543 -1,-1.027 -1.5,-2.953 -1.5,-5.761 v -4.297 h 9.1 v -6.153 h -9.1 v -40.527 h -7.86"
         inkscape:connector-curvature="0" /><path
         id="path108"
         style="fill:#231f20;fill-opacity:1;fill-rule:nonzero;stroke:none"
         d="m 1680.22,199.738 v 9.004 h 8.27 v -9.004 z m -16.39,0 v 9.004 h 8.26 v -9.004 z m 24.18,-55.82 v 6.855 c -3.64,-5.277 -8.58,-7.91 -14.82,-7.91 -2.75,0 -5.32,0.528 -7.71,1.582 -2.38,1.051 -4.16,2.383 -5.31,3.985 -1.17,1.59 -1.98,3.554 -2.45,5.859 -0.32,1.563 -0.47,4.024 -0.47,7.383 v 28.926 h 7.91 v -25.891 c 0,-4.129 0.15,-6.914 0.47,-8.348 0.5,-2.082 1.56,-3.711 3.17,-4.906 1.61,-1.18 3.6,-1.773 5.98,-1.773 2.37,0 4.6,0.605 6.68,1.824 2.08,1.211 3.55,2.863 4.41,4.961 0.87,2.101 1.3,5.137 1.3,9.121 v 25.012 h 7.91 v -46.68 h -7.07"
         inkscape:connector-curvature="0" /><path
         id="path110"
         style="fill:#231f20;fill-opacity:1;fill-rule:nonzero;stroke:none"
         d="m 1706.93,143.918 v 46.68 h 7.13 v -7.082 c 1.81,3.312 3.49,5.5 5.03,6.554 1.54,1.051 3.23,1.582 5.07,1.582 2.67,0 5.38,-0.859 8.13,-2.558 l -2.72,-7.336 c -1.93,1.144 -3.87,1.711 -5.8,1.711 -1.73,0 -3.28,-0.52 -4.66,-1.555 -1.38,-1.043 -2.36,-2.488 -2.94,-4.324 -0.88,-2.813 -1.33,-5.899 -1.33,-9.238 v -24.434 h -7.91"
         inkscape:connector-curvature="0" /><path
         id="path112"
         style="fill:#231f20;fill-opacity:1;fill-rule:nonzero;stroke:none"
         d="m 820.602,69.9141 h 18.324 c 3.894,0 6.941,0.3984 9.14,1.207 2.2,0.8047 3.868,2.0937 5.008,3.8711 1.145,1.7656 1.715,3.6914 1.715,5.7812 0,3.0469 -1.105,5.5469 -3.312,7.5079 -2.219,1.9648 -5.711,2.9414 -10.485,2.9414 h -20.39 z M 812.074,33.918 v 64.4336 h 28.567 c 5.742,0 10.105,-0.586 13.093,-1.7383 2.989,-1.1641 5.375,-3.2031 7.164,-6.1328 1.79,-2.9297 2.68,-6.1719 2.68,-9.7071 0,-4.5703 -1.476,-8.4296 -4.437,-11.5625 -2.957,-3.1367 -7.532,-5.1289 -13.711,-5.9765 2.258,-1.086 3.968,-2.1485 5.14,-3.2031 2.493,-2.2852 4.852,-5.1485 7.075,-8.5782 L 868.852,33.918 h -10.723 l -8.524,13.4062 c -2.492,3.8672 -4.542,6.8281 -6.152,8.8789 -1.613,2.0508 -3.055,3.4844 -4.332,4.3047 -1.269,0.8203 -2.566,1.3985 -3.887,1.711 -0.964,0.2148 -2.546,0.3125 -4.746,0.3125 h -9.886 V 33.918 h -8.528"
         inkscape:connector-curvature="0" /><path
         id="path114"
         style="fill:#231f20;fill-opacity:1;fill-rule:nonzero;stroke:none"
         d="m 881.453,61.7383 h 26.063 c -0.352,3.9258 -1.348,6.8672 -2.989,8.8398 -2.519,3.043 -5.789,4.5703 -9.8,4.5703 -3.633,0 -6.692,-1.2226 -9.161,-3.6523 -2.48,-2.4336 -3.847,-5.6836 -4.113,-9.7578 z m 25.973,-12.7852 8.176,-1.0117 c -1.289,-4.7773 -3.676,-8.4766 -7.164,-11.1133 -3.489,-2.6367 -7.942,-3.9648 -13.36,-3.9648 -6.824,0 -12.234,2.1094 -16.238,6.3086 -3.996,4.1992 -5.996,10.0976 -5.996,17.6953 0,7.8516 2.019,13.9453 6.062,18.2812 4.043,4.336 9.285,6.5039 15.735,6.5039 6.238,0 11.336,-2.1289 15.293,-6.3789 3.953,-4.2461 5.929,-10.2226 5.929,-17.9296 0,-0.4688 -0.011,-1.1719 -0.043,-2.1094 h -34.804 c 0.293,-5.125 1.742,-9.0508 4.351,-11.7774 2.606,-2.7226 5.86,-4.0898 9.754,-4.0898 2.902,0 5.375,0.7617 7.43,2.2851 2.051,1.5235 3.676,3.9649 4.875,7.3008"
         inkscape:connector-curvature="0" /><path
         id="path116"
         style="fill:#231f20;fill-opacity:1;fill-rule:nonzero;stroke:none"
         d="m 930.18,58.0977 c 0,-6.1329 1.215,-10.5977 3.648,-13.4102 2.434,-2.8125 5.481,-4.2187 9.141,-4.2187 3.633,0 6.679,1.3984 9.14,4.1992 2.461,2.7929 3.692,7.1797 3.692,13.1562 0,5.7227 -1.27,10.0196 -3.797,12.9297 -2.539,2.8906 -5.598,4.3438 -9.168,4.3438 -3.516,0 -6.504,-1.4258 -8.965,-4.2852 -2.461,-2.8516 -3.691,-7.0898 -3.691,-12.7148 z m -6.547,-28.0469 7.691,-1.1328 c 0.321,-2.3828 1.215,-4.1016 2.68,-5.1953 1.965,-1.4649 4.644,-2.1875 8.043,-2.1875 3.656,0 6.488,0.7226 8.48,2.1875 1.993,1.4648 3.34,3.5156 4.043,6.1484 0.41,1.625 0.598,5 0.567,10.1602 -3.457,-4.0743 -7.766,-6.1133 -12.914,-6.1133 -6.418,0 -11.383,2.3242 -14.899,6.9531 -3.515,4.625 -5.273,10.1758 -5.273,16.6484 0,4.4532 0.804,8.5664 2.418,12.3243 1.609,3.7617 3.945,6.6718 7.008,8.7226 3.058,2.0508 6.66,3.0859 10.789,3.0859 5.507,0 10.047,-2.2265 13.625,-6.6796 v 5.625 h 7.293 V 40.2461 c 0,-7.2656 -0.743,-12.4141 -2.215,-15.4414 -1.489,-3.0352 -3.828,-5.4297 -7.031,-7.1875 -3.215,-1.7578 -7.161,-2.6367 -11.848,-2.6367 -5.567,0 -10.063,1.25 -13.492,3.7617 -3.426,2.5 -5.082,6.2695 -4.965,11.3086"
         inkscape:connector-curvature="0" /><path
         id="path118"
         style="fill:#231f20;fill-opacity:1;fill-rule:nonzero;stroke:none"
         d="m 974.727,33.918 v 46.6797 h 7.91 V 33.918 Z m 0,55.3281 v 9.1055 h 7.91 v -9.1055 h -7.91"
         inkscape:connector-curvature="0" /><path
         id="path120"
         style="fill:#231f20;fill-opacity:1;fill-rule:nonzero;stroke:none"
         d="m 999.414,57.2578 c 0,-5.9765 1.306,-10.4492 3.916,-13.4297 2.61,-2.9765 5.89,-4.4609 9.84,-4.4609 3.93,0 7.19,1.5039 9.8,4.4922 2.61,2.9883 3.91,7.539 3.91,13.6601 0,5.7735 -1.3,10.1485 -3.93,13.1172 -2.62,2.9688 -5.88,4.461 -9.78,4.461 -3.95,0 -7.23,-1.4766 -9.84,-4.4414 -2.61,-2.9532 -3.916,-7.4219 -3.916,-13.3985 z m -8.125,0 c 0,8.6406 2.402,15.0391 7.207,19.1953 4.014,3.461 8.904,5.1992 14.674,5.1992 6.42,0 11.66,-2.1093 15.74,-6.3085 4.07,-4.211 6.11,-10.0196 6.11,-17.4219 0,-6.0156 -0.91,-10.7422 -2.71,-14.1797 -1.8,-3.4375 -4.42,-6.1133 -7.87,-8.0195 -3.43,-1.9024 -7.19,-2.8594 -11.27,-2.8594 -6.53,0 -11.81,2.0976 -15.834,6.289 -4.035,4.1875 -6.047,10.2227 -6.047,18.1055"
         inkscape:connector-curvature="0" /><path
         id="path122"
         style="fill:#231f20;fill-opacity:1;fill-rule:nonzero;stroke:none"
         d="m 1043.85,33.918 v 46.6797 h 7.11 v -6.6446 c 3.43,5.1289 8.38,7.6992 14.86,7.6992 2.81,0 5.39,-0.5078 7.75,-1.5234 2.36,-1.0078 4.13,-2.3359 5.3,-3.9766 1.17,-1.6406 1.99,-3.582 2.46,-5.8476 0.29,-1.4649 0.44,-4.0234 0.44,-7.6875 V 33.918 h -7.91 v 28.3984 c 0,3.2227 -0.31,5.625 -0.93,7.2266 -0.61,1.5898 -1.7,2.8711 -3.27,3.8164 -1.56,0.9492 -3.41,1.4375 -5.52,1.4375 -3.37,0 -6.27,-1.0742 -8.72,-3.2149 -2.44,-2.1367 -3.66,-6.1992 -3.66,-12.1757 V 33.918 h -7.91"
         inkscape:connector-curvature="0" /><path
         id="path124"
         style="fill:#231f20;fill-opacity:1;fill-rule:nonzero;stroke:none"
         d="m 1123.24,57.3438 c -2.87,-1.1719 -7.18,-2.168 -12.91,-2.9883 -3.26,-0.4688 -5.55,-0.9961 -6.9,-1.5821 -1.35,-0.5859 -2.39,-1.4453 -3.12,-2.5703 -0.74,-1.1289 -1.1,-2.3789 -1.1,-3.7578 0,-2.1094 0.8,-3.8672 2.39,-5.2734 1.6,-1.4063 3.94,-2.1094 7.01,-2.1094 3.05,0 5.77,0.6641 8.13,2.0039 2.38,1.3281 4.12,3.1524 5.23,5.4688 0.85,1.7851 1.27,4.4218 1.27,7.9101 z m 0.67,-17.6641 c -2.93,-2.4922 -5.76,-4.25 -8.46,-5.2734 -2.72,-1.0274 -5.63,-1.543 -8.73,-1.543 -5.13,0 -9.06,1.2578 -11.82,3.7578 -2.75,2.5117 -4.13,5.7148 -4.13,9.6016 0,2.2851 0.52,4.375 1.56,6.2695 1.04,1.8828 2.41,3.3984 4.09,4.5508 1.69,1.1328 3.58,2 5.69,2.5859 1.55,0.4102 3.9,0.8125 7.03,1.1836 6.39,0.7617 11.08,1.6797 14.1,2.7344 0.03,1.0742 0.05,1.7656 0.05,2.0586 0,3.2226 -0.75,5.5 -2.24,6.8086 -2.03,1.7968 -5.02,2.6836 -9.01,2.6836 -3.72,0 -6.46,-0.6524 -8.24,-1.9532 -1.77,-1.3086 -3.09,-3.6132 -3.94,-6.9218 l -7.73,1.0546 c 0.7,3.3086 1.86,5.9766 3.48,8.0157 1.61,2.0429 3.93,3.6054 6.99,4.707 3.03,1.0938 6.57,1.6523 10.58,1.6523 3.99,0 7.22,-0.4687 9.71,-1.4062 2.49,-0.9375 4.33,-2.1289 5.5,-3.5469 1.17,-1.414 1.99,-3.2109 2.46,-5.3789 0.26,-1.3476 0.4,-3.7812 0.4,-7.2969 V 53.4766 c 0,-7.3555 0.17,-12 0.5,-13.9532 0.34,-1.9531 1,-3.8086 2,-5.6054 h -8.26 c -0.82,1.6406 -1.35,3.5625 -1.58,5.7617"
         inkscape:connector-curvature="0" /><path
         id="path126"
         style="fill:#231f20;fill-opacity:1;fill-rule:nonzero;stroke:none"
         d="m 1142.87,33.918 v 64.4336 h 7.91 V 33.918 h -7.91"
         inkscape:connector-curvature="0" /><path
         id="path128"
         style="fill:#231f20;fill-opacity:1;fill-rule:nonzero;stroke:none"
         d="m 1168.57,61.7383 h 26.07 c -0.35,3.9258 -1.35,6.8672 -2.99,8.8398 -2.52,3.043 -5.79,4.5703 -9.79,4.5703 -3.65,0 -6.69,-1.2226 -9.17,-3.6523 -2.48,-2.4336 -3.84,-5.6836 -4.12,-9.7578 z m 25.98,-12.7852 8.17,-1.0117 c -1.28,-4.7773 -3.68,-8.4766 -7.15,-11.1133 -3.5,-2.6367 -7.95,-3.9648 -13.36,-3.9648 -6.84,0 -12.25,2.1094 -16.24,6.3086 -4.01,4.1992 -6.01,10.0976 -6.01,17.6953 0,7.8516 2.03,13.9453 6.08,18.2812 4.04,4.336 9.27,6.5039 15.72,6.5039 6.25,0 11.35,-2.1289 15.29,-6.3789 3.97,-4.2461 5.94,-10.2226 5.94,-17.9296 0,-0.4688 -0.02,-1.1719 -0.04,-2.1094 h -34.81 c 0.29,-5.125 1.74,-9.0508 4.35,-11.7774 2.61,-2.7226 5.86,-4.0898 9.76,-4.0898 2.9,0 5.37,0.7617 7.42,2.2851 2.05,1.5235 3.68,3.9649 4.88,7.3008"
         inkscape:connector-curvature="0" /><path
         id="path130"
         style="fill:#231f20;fill-opacity:1;fill-rule:nonzero;stroke:none"
         d="m 1237.95,33.918 v 64.4336 h 46.58 v -7.6094 h -38.06 V 71.0078 h 35.64 v -7.5586 h -35.64 V 41.5234 h 39.56 V 33.918 h -48.08"
         inkscape:connector-curvature="0" /><path
         id="path132"
         style="fill:#231f20;fill-opacity:1;fill-rule:nonzero;stroke:none"
         d="m 1296.35,33.918 v 46.6797 h 7.11 v -6.6446 c 3.43,5.1289 8.38,7.6992 14.86,7.6992 2.81,0 5.39,-0.5078 7.75,-1.5234 2.36,-1.0078 4.13,-2.3359 5.3,-3.9766 1.17,-1.6406 1.99,-3.582 2.46,-5.8476 0.29,-1.4649 0.44,-4.0234 0.44,-7.6875 V 33.918 h -7.91 v 28.3984 c 0,3.2227 -0.31,5.625 -0.93,7.2266 -0.61,1.5898 -1.7,2.8711 -3.27,3.8164 -1.56,0.9492 -3.41,1.4375 -5.52,1.4375 -3.37,0 -6.27,-1.0742 -8.72,-3.2149 -2.44,-2.1367 -3.66,-6.1992 -3.66,-12.1757 V 33.918 h -7.91"
         inkscape:connector-curvature="0" /><path
         id="path134"
         style="fill:#231f20;fill-opacity:1;fill-rule:nonzero;stroke:none"
         d="m 1363.21,40.9961 1.15,-6.9805 c -2.23,-0.4687 -4.22,-0.7031 -5.98,-0.7031 -2.87,0 -5.1,0.4492 -6.68,1.3555 -1.58,0.9101 -2.7,2.1015 -3.34,3.5859 -0.65,1.4727 -0.97,4.5899 -0.97,9.3359 v 26.8555 h -5.8 v 6.1524 h 5.8 v 11.5507 l 7.86,4.7461 V 80.5977 h 7.96 v -6.1524 h -7.96 V 47.1484 c 0,-2.2539 0.15,-3.6992 0.42,-4.3437 0.29,-0.6445 0.74,-1.1641 1.37,-1.543 0.63,-0.3828 1.52,-0.5664 2.71,-0.5664 0.88,0 2.03,0.0977 3.46,0.3008"
         inkscape:connector-curvature="0" /><path
         id="path136"
         style="fill:#231f20;fill-opacity:1;fill-rule:nonzero;stroke:none"
         d="m 1379.1,33.918 -14.28,46.6797 h 8.18 l 7.43,-26.9454 2.76,-10.0195 c 0.12,0.5 0.93,3.7031 2.42,9.6211 l 7.43,27.3438 h 8.13 l 6.98,-27.0704 2.34,-8.9257 2.67,9.0039 8,26.9922 h 7.69 L 1414.26,33.918 h -8.22 l -7.43,27.9492 -1.79,7.957 -9.46,-35.9062 h -8.26"
         inkscape:connector-curvature="0" /><path
         id="path138"
         style="fill:#231f20;fill-opacity:1;fill-rule:nonzero;stroke:none"
         d="M 1435.09,33.918 V 80.5977 H 1443 V 33.918 Z m 0,55.3281 v 9.1055 h 7.91 v -9.1055 h -7.91"
         inkscape:connector-curvature="0" /><path
         id="path140"
         style="fill:#231f20;fill-opacity:1;fill-rule:nonzero;stroke:none"
         d="m 1485.05,51.0156 7.78,-1.0039 c -0.86,-5.3711 -3.03,-9.5625 -6.53,-12.5976 -3.5,-3.0274 -7.8,-4.5508 -12.9,-4.5508 -6.39,0 -11.52,2.0898 -15.4,6.2695 -3.88,4.168 -5.82,10.1563 -5.82,17.9453 0,5.043 0.83,9.4571 2.51,13.2266 1.66,3.7891 4.21,6.6211 7.61,8.5039 3.42,1.8945 7.13,2.8437 11.15,2.8437 5.07,0 9.21,-1.289 12.43,-3.8476 3.22,-2.5703 5.29,-6.2109 6.2,-10.918 l -7.69,-1.1914 c -0.74,3.1328 -2.03,5.4883 -3.89,7.0703 -1.86,1.5821 -4.11,2.3828 -6.75,2.3828 -3.98,0 -7.22,-1.4375 -9.71,-4.289 -2.49,-2.8633 -3.73,-7.3711 -3.73,-13.5625 0,-6.2696 1.19,-10.8203 3.6,-13.6641 2.4,-2.8398 5.54,-4.2656 9.41,-4.2656 3.1,0 5.69,0.957 7.77,2.8594 2.08,1.9062 3.4,4.8359 3.96,8.789"
         inkscape:connector-curvature="0" /><path
         id="path142"
         style="fill:#231f20;fill-opacity:1;fill-rule:nonzero;stroke:none"
         d="m 1499.19,33.918 v 64.4336 h 7.91 V 61.6133 l 18.72,18.9844 h 10.23 l -17.83,-17.3243 19.64,-29.3554 h -9.75 l -15.43,23.8672 -5.58,-5.3633 V 33.918 h -7.91"
         inkscape:connector-curvature="0" /><path
         id="path144"
         style="fill:#231f20;fill-opacity:1;fill-rule:nonzero;stroke:none"
         d="m 1543.52,33.918 v 64.4336 h 7.91 V 33.918 h -7.91"
         inkscape:connector-curvature="0" /><path
         id="path146"
         style="fill:#231f20;fill-opacity:1;fill-rule:nonzero;stroke:none"
         d="m 1593.83,33.918 v 6.8554 c -3.63,-5.2773 -8.57,-7.9101 -14.81,-7.9101 -2.75,0 -5.32,0.5273 -7.71,1.582 -2.38,1.0508 -4.16,2.3828 -5.31,3.9844 -1.17,1.5898 -1.98,3.5547 -2.45,5.8594 -0.32,1.5625 -0.48,4.0234 -0.48,7.3828 v 28.9258 h 7.91 V 54.707 c 0,-4.1289 0.16,-6.914 0.48,-8.3476 0.5,-2.0821 1.56,-3.711 3.17,-4.9063 1.61,-1.1797 3.6,-1.7734 5.98,-1.7734 2.37,0 4.6,0.6055 6.68,1.8242 2.08,1.2109 3.55,2.8633 4.41,4.9609 0.87,2.1016 1.3,5.1368 1.3,9.1211 v 25.0118 h 7.91 V 33.918 h -7.08"
         inkscape:connector-curvature="0" /><path
         id="path148"
         style="fill:#231f20;fill-opacity:1;fill-rule:nonzero;stroke:none"
         d="m 1612.85,33.918 v 46.6797 h 7.11 v -6.6446 c 3.44,5.1289 8.38,7.6992 14.86,7.6992 2.82,0 5.39,-0.5078 7.76,-1.5234 2.35,-1.0078 4.12,-2.3359 5.29,-3.9766 1.17,-1.6406 1.99,-3.582 2.46,-5.8476 0.3,-1.4649 0.44,-4.0234 0.44,-7.6875 V 33.918 h -7.91 v 28.3984 c 0,3.2227 -0.3,5.625 -0.93,7.2266 -0.6,1.5898 -1.7,2.8711 -3.27,3.8164 -1.56,0.9492 -3.41,1.4375 -5.52,1.4375 -3.36,0 -6.26,-1.0742 -8.72,-3.2149 -2.44,-2.1367 -3.66,-6.1992 -3.66,-12.1757 V 33.918 h -7.91"
         inkscape:connector-curvature="0" /><path
         id="path150"
         style="fill:#231f20;fill-opacity:1;fill-rule:nonzero;stroke:none"
         d="m 1667.56,58.0977 c 0,-6.1329 1.21,-10.5977 3.64,-13.4102 2.43,-2.8125 5.48,-4.2187 9.14,-4.2187 3.63,0 6.68,1.3984 9.14,4.1992 2.46,2.7929 3.69,7.1797 3.69,13.1562 0,5.7227 -1.27,10.0196 -3.79,12.9297 -2.54,2.8906 -5.6,4.3438 -9.17,4.3438 -3.51,0 -6.5,-1.4258 -8.96,-4.2852 -2.46,-2.8516 -3.69,-7.0898 -3.69,-12.7148 z m -6.55,-28.0469 7.68,-1.1328 c 0.32,-2.3828 1.22,-4.1016 2.69,-5.1953 1.96,-1.4649 4.64,-2.1875 8.03,-2.1875 3.67,0 6.5,0.7226 8.49,2.1875 1.99,1.4648 3.34,3.5156 4.04,6.1484 0.41,1.625 0.6,5 0.58,10.1602 -3.47,-4.0743 -7.77,-6.1133 -12.93,-6.1133 -6.41,0 -11.38,2.3242 -14.89,6.9531 -3.52,4.625 -5.28,10.1758 -5.28,16.6484 0,4.4532 0.8,8.5664 2.42,12.3243 1.61,3.7617 3.95,6.6718 7.01,8.7226 3.06,2.0508 6.66,3.0859 10.79,3.0859 5.51,0 10.05,-2.2265 13.62,-6.6796 v 5.625 h 7.3 V 40.2461 c 0,-7.2656 -0.75,-12.4141 -2.22,-15.4414 -1.48,-3.0352 -3.83,-5.4297 -7.03,-7.1875 -3.21,-1.7578 -7.16,-2.6367 -11.85,-2.6367 -5.56,0 -10.07,1.25 -13.48,3.7617 -3.44,2.5 -5.09,6.2695 -4.97,11.3086"
         inkscape:connector-curvature="0" /></g></g></svg>