<?xml version="1.0" encoding="UTF-8" standalone="no"?>
<!-- Created with Inkscape (http://www.inkscape.org/) -->

<svg
   xmlns:dc="http://purl.org/dc/elements/1.1/"
   xmlns:cc="http://creativecommons.org/ns#"
   xmlns:rdf="http://www.w3.org/1999/02/22-rdf-syntax-ns#"
   xmlns:svg="http://www.w3.org/2000/svg"
   xmlns="http://www.w3.org/2000/svg"
   xmlns:sodipodi="http://sodipodi.sourceforge.net/DTD/sodipodi-0.dtd"
   xmlns:inkscape="http://www.inkscape.org/namespaces/inkscape"
   width="460"
   height="120"
   viewBox="0 0 121.70833 31.75"
   version="1.1"
   id="svg2883"
   inkscape:version="0.92.4 (5da689c313, 2019-01-14)"
   sodipodi:docname="interreg.svg">
  <defs
     id="defs2877" />
  <sodipodi:namedview
     id="base"
     pagecolor="#ffffff"
     bordercolor="#666666"
     borderopacity="1.0"
     inkscape:pageopacity="0.0"
     inkscape:pageshadow="2"
     inkscape:zoom="1.979899"
     inkscape:cx="173.46819"
     inkscape:cy="-0.61874328"
     inkscape:document-units="mm"
     inkscape:current-layer="layer1"
     showgrid="false"
     fit-margin-top="0"
     fit-margin-left="0"
     fit-margin-right="0"
     fit-margin-bottom="0"
     inkscape:window-width="1874"
     inkscape:window-height="1043"
     inkscape:window-x="1246"
     inkscape:window-y="1200"
     inkscape:window-maximized="1"
     units="px" />
  <metadata
     id="metadata2880">
    <rdf:RDF>
      <cc:Work
         rdf:about="">
        <dc:format>image/svg+xml</dc:format>
        <dc:type
           rdf:resource="http://purl.org/dc/dcmitype/StillImage" />
        <dc:title></dc:title>
      </cc:Work>
    </rdf:RDF>
  </metadata>
  <g
     inkscape:label="Layer 1"
     inkscape:groupmode="layer"
     id="layer1"
     transform="translate(-115.96691,-56.410703)">
    <g
       id="g2786"
       transform="matrix(0.6310258,0,0,-0.6310258,-710.39135,427.12574)">
      <g
         transform="translate(1383.2184,541.5)"
         id="g626">
        <path
           inkscape:connector-curvature="0"
           id="path628"
           style="fill:#000000;fill-opacity:1;fill-rule:nonzero;stroke:none"
           d="m 0,0 -0.74,-1.843 h 1.48 z m -0.261,0.5 h 0.56 l 1.57,-3.717 H 1.289 L 0.911,-2.279 H -0.91 l -0.379,-0.938 h -0.559 z" />
      </g>
      <path
         inkscape:connector-curvature="0"
         id="path630"
         style="fill:#000000;fill-opacity:1;fill-rule:nonzero;stroke:none"
         d="m 1385.662,538.283 h 0.5 v 3.994 h -0.5 z" />
      <g
         transform="translate(1388.4045,540.6581)"
         id="g640">
        <path
           inkscape:connector-curvature="0"
           id="path642"
           style="fill:#000000;fill-opacity:1;fill-rule:nonzero;stroke:none"
           d="m 0,0 c -0.543,0 -0.804,-0.517 -0.804,-1.023 0,-0.452 0.235,-1.011 0.799,-1.011 0.537,0 0.761,0.602 0.751,1.028 C 0.756,-0.517 0.543,0 0,0 m -1.304,0.341 h 0.479 v -0.383 h 0.01 c 0.134,0.202 0.442,0.447 0.921,0.447 0.789,0 1.172,-0.645 1.172,-1.374 0,-0.746 -0.346,-1.47 -1.166,-1.47 -0.479,0 -0.751,0.187 -0.905,0.437 h -0.011 v -1.491 h -0.5 z" />
      </g>
      <g
         transform="translate(1392.132,539.9018)"
         id="g644">
        <path
           inkscape:connector-curvature="0"
           id="path646"
           style="fill:#000000;fill-opacity:1;fill-rule:nonzero;stroke:none"
           d="m 0,0 c 0,0.415 -0.245,0.756 -0.676,0.756 -0.49,0 -0.692,-0.404 -0.73,-0.756 z m 0.325,-1.507 c -0.192,-0.069 -0.41,-0.175 -0.857,-0.175 -0.964,0 -1.406,0.585 -1.406,1.469 0,0.804 0.505,1.374 1.273,1.374 0.905,0 1.197,-0.66 1.197,-1.534 h -1.938 c 0,-0.537 0.421,-0.905 0.895,-0.905 0.33,0 0.713,0.171 0.836,0.272 z" />
      </g>
      <g
         transform="translate(1393.3568,540.9991)"
         id="g648">
        <path
           inkscape:connector-curvature="0"
           id="path650"
           style="fill:#000000;fill-opacity:1;fill-rule:nonzero;stroke:none"
           d="m 0,0 h 0.484 v -0.432 h 0.011 c 0.149,0.309 0.511,0.496 0.889,0.496 0.703,0 1.017,-0.437 1.017,-1.167 v -1.613 h -0.5 v 1.406 c 0,0.633 -0.139,0.943 -0.575,0.969 -0.57,0 -0.826,-0.457 -0.826,-1.118 V -2.716 H 0 Z" />
      </g>
      <g
         transform="translate(1396.6315,540.9991)"
         id="g652">
        <path
           inkscape:connector-curvature="0"
           id="path654"
           style="fill:#000000;fill-opacity:1;fill-rule:nonzero;stroke:none"
           d="m 0,0 h 0.469 v -0.421 h 0.01 c 0.133,0.282 0.421,0.485 0.708,0.485 0.15,0 0.224,-0.016 0.33,-0.038 V -0.421 C 1.427,-0.383 1.326,-0.373 1.241,-0.373 0.793,-0.373 0.5,-0.798 0.5,-1.481 V -2.716 H 0 Z" />
      </g>
      <g
         transform="translate(1398.724,542.2768)"
         id="g656">
        <path
           inkscape:connector-curvature="0"
           id="path658"
           style="fill:#000000;fill-opacity:1;fill-rule:nonzero;stroke:none"
           d="m 0,0 h 0.5 v -1.667 h 0.011 c 0.181,0.288 0.495,0.453 0.873,0.453 0.703,0 1.017,-0.437 1.017,-1.166 v -1.614 h -0.5 v 1.406 c 0,0.634 -0.139,0.943 -0.575,0.969 -0.57,0 -0.826,-0.457 -0.826,-1.118 V -3.994 H 0 Z" />
      </g>
      <g
         transform="translate(1403.7556,539.9018)"
         id="g660">
        <path
           inkscape:connector-curvature="0"
           id="path662"
           style="fill:#000000;fill-opacity:1;fill-rule:nonzero;stroke:none"
           d="m 0,0 c 0,0.415 -0.245,0.756 -0.676,0.756 -0.49,0 -0.692,-0.404 -0.73,-0.756 z m 0.325,-1.507 c -0.192,-0.069 -0.41,-0.175 -0.857,-0.175 -0.964,0 -1.406,0.585 -1.406,1.469 0,0.804 0.506,1.374 1.273,1.374 0.904,0 1.197,-0.66 1.197,-1.534 h -1.938 c 0,-0.537 0.421,-0.905 0.895,-0.905 0.33,0 0.713,0.171 0.836,0.272 z" />
      </g>
      <path
         inkscape:connector-curvature="0"
         id="path664"
         style="fill:#000000;fill-opacity:1;fill-rule:nonzero;stroke:none"
         d="m 1405.044,540.999 h 0.501 v -2.716 h -0.501 z m 0.533,0.607 h -0.564 v 0.565 h 0.564 z" />
      <g
         transform="translate(1406.4821,540.9991)"
         id="g666">
        <path
           inkscape:connector-curvature="0"
           id="path668"
           style="fill:#000000;fill-opacity:1;fill-rule:nonzero;stroke:none"
           d="m 0,0 h 0.484 v -0.432 h 0.011 c 0.149,0.309 0.511,0.496 0.889,0.496 0.703,0 1.017,-0.437 1.017,-1.167 v -1.613 h -0.5 v 1.406 c 0,0.633 -0.139,0.943 -0.575,0.969 -0.57,0 -0.826,-0.457 -0.826,-1.118 V -2.716 H 0 Z" />
      </g>
      <path
         inkscape:connector-curvature="0"
         id="path670"
         style="fill:#000000;fill-opacity:1;fill-rule:nonzero;stroke:none"
         d="m 1411.061,542.277 h 0.469 v -4.057 h -0.469 z" />
      <g
         transform="translate(1414.3625,538.7197)"
         id="g672">
        <path
           inkscape:connector-curvature="0"
           id="path674"
           style="fill:#000000;fill-opacity:1;fill-rule:nonzero;stroke:none"
           d="M 0,0 H 0.399 C 0.879,0 1.31,0.102 1.31,0.602 1.31,1.177 0.804,1.256 0.346,1.256 H 0 Z m 0,1.693 h 0.293 c 0.516,0 0.953,0.048 0.953,0.597 0,0.442 -0.378,0.554 -0.687,0.554 L 0,2.844 Z M -0.532,3.28 H 0.474 C 1.246,3.28 1.779,3.03 1.779,2.343 1.779,1.832 1.48,1.577 1.011,1.459 V 1.449 C 1.518,1.406 1.875,1.076 1.875,0.554 c 0,-0.799 -0.661,-0.991 -1.417,-0.991 h -0.99 z" />
      </g>
      <g
         transform="translate(1418.2922,538.6241)"
         id="g676">
        <path
           inkscape:connector-curvature="0"
           id="path678"
           style="fill:#000000;fill-opacity:1;fill-rule:nonzero;stroke:none"
           d="M 0,0 C 0.586,0 0.846,0.533 0.846,1.017 0.846,1.533 0.532,2.034 0,2.034 -0.538,2.034 -0.852,1.533 -0.852,1.017 -0.852,0.533 -0.591,0 0,0 m 0,2.439 c 0.825,0 1.379,-0.596 1.379,-1.422 0,-0.777 -0.564,-1.422 -1.379,-1.422 -0.82,0 -1.385,0.645 -1.385,1.422 0,0.826 0.554,1.422 1.385,1.422" />
      </g>
      <g
         transform="translate(1421.4652,538.6241)"
         id="g680">
        <path
           inkscape:connector-curvature="0"
           id="path682"
           style="fill:#000000;fill-opacity:1;fill-rule:nonzero;stroke:none"
           d="m 0,0 c 0.565,0 0.799,0.559 0.799,1.011 0,0.506 -0.261,1.023 -0.804,1.023 -0.543,0 -0.756,-0.511 -0.745,-1.006 C -0.761,0.602 -0.537,0 0,0 M 0.821,0.043 H 0.81 C 0.676,-0.16 0.368,-0.405 -0.117,-0.405 c -0.82,0 -1.166,0.73 -1.166,1.47 0,0.729 0.384,1.374 1.172,1.374 0.474,0 0.744,-0.187 0.9,-0.437 h 0.01 V 3.653 H 1.3 V -0.341 H 0.821 Z" />
      </g>
      <g
         transform="translate(1425.3953,539.9018)"
         id="g684">
        <path
           inkscape:connector-curvature="0"
           id="path686"
           style="fill:#000000;fill-opacity:1;fill-rule:nonzero;stroke:none"
           d="M 0,0 C 0,0.415 -0.245,0.756 -0.676,0.756 -1.166,0.756 -1.369,0.352 -1.405,0 Z m 0.325,-1.507 c -0.192,-0.069 -0.41,-0.175 -0.857,-0.175 -0.965,0 -1.406,0.585 -1.406,1.469 0,0.804 0.506,1.374 1.273,1.374 0.905,0 1.197,-0.66 1.197,-1.534 h -1.937 c 0,-0.537 0.42,-0.905 0.894,-0.905 0.33,0 0.714,0.171 0.836,0.272 z" />
      </g>
      <g
         transform="translate(1426.6198,540.9991)"
         id="g688">
        <path
           inkscape:connector-curvature="0"
           id="path690"
           style="fill:#000000;fill-opacity:1;fill-rule:nonzero;stroke:none"
           d="m 0,0 h 0.485 v -0.432 h 0.01 c 0.15,0.309 0.512,0.496 0.89,0.496 0.703,0 1.017,-0.437 1.017,-1.167 V -2.716 H 1.901 v 1.406 c 0,0.633 -0.138,0.943 -0.575,0.969 C 0.757,-0.341 0.5,-0.798 0.5,-1.459 V -2.716 H 0 Z" />
      </g>
      <g
         transform="translate(1429.6921,538.8156)"
         id="g692">
        <path
           inkscape:connector-curvature="0"
           id="path694"
           style="fill:#000000;fill-opacity:1;fill-rule:nonzero;stroke:none"
           d="m 0,0 c 0.197,-0.128 0.479,-0.191 0.623,-0.191 0.229,0 0.511,0.095 0.511,0.388 0,0.496 -1.177,0.453 -1.177,1.214 0,0.565 0.421,0.836 0.958,0.836 0.235,0 0.427,-0.048 0.624,-0.106 L 1.496,1.704 C 1.384,1.774 1.087,1.843 0.969,1.843 0.714,1.843 0.49,1.736 0.49,1.513 0.49,0.958 1.667,1.118 1.667,0.25 c 0,-0.58 -0.463,-0.846 -0.948,-0.846 -0.255,0 -0.516,0.027 -0.746,0.149 z" />
      </g>
      <g
         transform="translate(1433.7443,539.9018)"
         id="g696">
        <path
           inkscape:connector-curvature="0"
           id="path698"
           style="fill:#000000;fill-opacity:1;fill-rule:nonzero;stroke:none"
           d="m 0,0 c 0,0.415 -0.245,0.756 -0.676,0.756 -0.49,0 -0.693,-0.404 -0.73,-0.756 z m 0.325,-1.507 c -0.192,-0.069 -0.41,-0.175 -0.857,-0.175 -0.964,0 -1.406,0.585 -1.406,1.469 0,0.804 0.506,1.374 1.273,1.374 0.905,0 1.198,-0.66 1.198,-1.534 h -1.939 c 0,-0.537 0.421,-0.905 0.895,-0.905 0.33,0 0.713,0.171 0.836,0.272 z" />
      </g>
      <g
         transform="translate(1436.7262,539.9018)"
         id="g700">
        <path
           inkscape:connector-curvature="0"
           id="path702"
           style="fill:#000000;fill-opacity:1;fill-rule:nonzero;stroke:none"
           d="m 0,0 c 0,0.415 -0.245,0.756 -0.676,0.756 -0.49,0 -0.692,-0.404 -0.73,-0.756 z m 0.325,-1.507 c -0.192,-0.069 -0.41,-0.175 -0.857,-0.175 -0.964,0 -1.406,0.585 -1.406,1.469 0,0.804 0.506,1.374 1.273,1.374 0.905,0 1.197,-0.66 1.197,-1.534 h -1.938 c 0,-0.537 0.421,-0.905 0.895,-0.905 0.33,0 0.714,0.171 0.836,0.272 z" />
      </g>
      <path
         inkscape:connector-curvature="0"
         id="path704"
         style="fill:#000000;fill-opacity:1;fill-rule:nonzero;stroke:none"
         d="m 1439.256,542.277 h 0.469 v -4.057 h -0.469 z" />
      <g
         transform="translate(1442.083,542.0001)"
         id="g706">
        <path
           inkscape:connector-curvature="0"
           id="path708"
           style="fill:#000000;fill-opacity:1;fill-rule:nonzero;stroke:none"
           d="M 0,0 H 0.532 V -1.555 H 2.311 V 0 H 2.843 V -3.717 H 2.311 v 1.693 H 0.532 V -3.717 H 0 Z" />
      </g>
      <g
         transform="translate(1447.0776,538.6241)"
         id="g710">
        <path
           inkscape:connector-curvature="0"
           id="path712"
           style="fill:#000000;fill-opacity:1;fill-rule:nonzero;stroke:none"
           d="M 0,0 C 0.585,0 0.846,0.533 0.846,1.017 0.846,1.533 0.532,2.034 0,2.034 -0.538,2.034 -0.852,1.533 -0.852,1.017 -0.852,0.533 -0.592,0 0,0 m 0,2.439 c 0.825,0 1.379,-0.596 1.379,-1.422 0,-0.777 -0.565,-1.422 -1.379,-1.422 -0.821,0 -1.385,0.645 -1.385,1.422 0,0.826 0.554,1.422 1.385,1.422" />
      </g>
      <g
         transform="translate(1450.8735,540.541)"
         id="g714">
        <path
           inkscape:connector-curvature="0"
           id="path716"
           style="fill:#000000;fill-opacity:1;fill-rule:nonzero;stroke:none"
           d="m 0,0 c -0.191,0.08 -0.383,0.117 -0.543,0.117 -0.559,0 -0.873,-0.501 -0.873,-1.017 0,-0.484 0.261,-1.017 0.906,-1.017 0.169,0 0.383,0.053 0.537,0.155 L 0.064,-2.21 c -0.208,-0.095 -0.447,-0.111 -0.628,-0.111 -0.82,0 -1.385,0.644 -1.385,1.421 0,0.826 0.555,1.422 1.385,1.422 0.202,0 0.463,-0.048 0.607,-0.107 z" />
      </g>
      <g
         transform="translate(1451.5341,542.2768)"
         id="g718">
        <path
           inkscape:connector-curvature="0"
           id="path720"
           style="fill:#000000;fill-opacity:1;fill-rule:nonzero;stroke:none"
           d="m 0,0 h 0.5 v -1.667 h 0.011 c 0.181,0.288 0.495,0.453 0.874,0.453 0.703,0 1.016,-0.437 1.016,-1.166 v -1.614 h -0.5 v 1.406 c 0,0.634 -0.138,0.943 -0.575,0.969 -0.57,0 -0.826,-0.457 -0.826,-1.118 V -3.994 H 0 Z" />
      </g>
      <g
         transform="translate(1454.8087,540.9991)"
         id="g722">
        <path
           inkscape:connector-curvature="0"
           id="path724"
           style="fill:#000000;fill-opacity:1;fill-rule:nonzero;stroke:none"
           d="m 0,0 h 0.469 v -0.421 h 0.01 c 0.134,0.282 0.421,0.485 0.708,0.485 0.15,0 0.224,-0.016 0.331,-0.038 V -0.421 C 1.427,-0.383 1.326,-0.373 1.241,-0.373 0.793,-0.373 0.5,-0.798 0.5,-1.481 V -2.716 H 0 Z" />
      </g>
      <g
         transform="translate(1456.9012,542.2768)"
         id="g726">
        <path
           inkscape:connector-curvature="0"
           id="path728"
           style="fill:#000000;fill-opacity:1;fill-rule:nonzero;stroke:none"
           d="m 0,0 h 0.5 v -1.667 h 0.011 c 0.181,0.288 0.495,0.453 0.873,0.453 0.704,0 1.018,-0.437 1.018,-1.166 V -3.994 H 1.901 v 1.406 c 0,0.634 -0.138,0.943 -0.575,0.969 -0.57,0 -0.826,-0.457 -0.826,-1.118 V -3.994 H 0 Z" />
      </g>
      <g
         transform="translate(1461.9329,539.9018)"
         id="g730">
        <path
           inkscape:connector-curvature="0"
           id="path732"
           style="fill:#000000;fill-opacity:1;fill-rule:nonzero;stroke:none"
           d="m 0,0 c 0,0.415 -0.245,0.756 -0.676,0.756 -0.49,0 -0.693,-0.404 -0.73,-0.756 z m 0.325,-1.507 c -0.192,-0.069 -0.41,-0.175 -0.857,-0.175 -0.964,0 -1.406,0.585 -1.406,1.469 0,0.804 0.505,1.374 1.272,1.374 0.906,0 1.198,-0.66 1.198,-1.534 h -1.938 c 0,-0.537 0.421,-0.905 0.895,-0.905 0.33,0 0.713,0.171 0.836,0.272 z" />
      </g>
      <path
         inkscape:connector-curvature="0"
         id="path734"
         style="fill:#000000;fill-opacity:1;fill-rule:nonzero;stroke:none"
         d="m 1463.222,540.999 h 0.5 v -2.716 h -0.5 z m 0.532,0.607 h -0.564 v 0.565 h 0.564 z" />
      <g
         transform="translate(1464.6597,540.9991)"
         id="g736">
        <path
           inkscape:connector-curvature="0"
           id="path738"
           style="fill:#000000;fill-opacity:1;fill-rule:nonzero;stroke:none"
           d="m 0,0 h 0.484 v -0.432 h 0.011 c 0.149,0.309 0.511,0.496 0.889,0.496 0.703,0 1.017,-0.437 1.017,-1.167 v -1.613 h -0.5 v 1.406 c 0,0.633 -0.139,0.943 -0.576,0.969 C 0.756,-0.341 0.5,-0.798 0.5,-1.459 V -2.716 H 0 Z" />
      </g>
      <g
         transform="translate(1378.1864,577.9995)"
         id="g740">
        <path
           inkscape:connector-curvature="0"
           id="path742"
           style="fill:#00bbee;fill-opacity:1;fill-rule:nonzero;stroke:none"
           d="m 0,0 c -5.423,0 -10.358,-2.219 -13.912,-5.791 -3.562,-3.568 -5.771,-8.513 -5.771,-13.951 0,-5.44 2.209,-10.385 5.771,-13.957 3.554,-3.572 8.489,-5.795 13.912,-5.795 v 3.853 c -4.362,0.003 -8.309,1.779 -11.183,4.661 -2.872,2.888 -4.647,6.852 -4.647,11.238 0.003,4.387 1.775,8.351 4.647,11.232 2.874,2.882 6.817,4.657 11.183,4.657 L 0,0" />
      </g>
      <path
         inkscape:connector-curvature="0"
         id="path744"
         style="fill:#000000;fill-opacity:1;fill-rule:nonzero;stroke:none"
         d="m 1382.229,562.561 h 2.216 v -12.023 h -2.216 z m 2.358,2.687 h -2.499 v 2.499 h 2.499 z" />
      <g
         transform="translate(1388.5001,562.5608)"
         id="g746">
        <path
           inkscape:connector-curvature="0"
           id="path748"
           style="fill:#000000;fill-opacity:1;fill-rule:nonzero;stroke:none"
           d="m 0,0 h 2.145 v -1.91 h 0.047 c 0.66,1.368 2.264,2.193 3.937,2.193 3.112,0 4.503,-1.934 4.503,-5.163 v -7.143 H 8.416 v 6.224 c 0,2.805 -0.613,4.172 -2.546,4.29 -2.523,0 -3.654,-2.027 -3.654,-4.95 v -5.564 H 0 Z" />
      </g>
      <g
         transform="translate(1409.292,560.769)"
         id="g750">
        <path
           inkscape:connector-curvature="0"
           id="path752"
           style="fill:#000000;fill-opacity:1;fill-rule:nonzero;stroke:none"
           d="m 0,0 h -3.182 v -6.577 c 0,-1.39 0.848,-2.145 1.862,-2.145 0.684,0 1.179,0.212 1.508,0.424 v -1.886 c -0.494,-0.141 -1.178,-0.33 -1.885,-0.33 -2.287,0 -3.701,1.085 -3.701,3.489 V 0 h -2.711 v 1.792 h 2.711 v 2.781 l 2.216,0.708 V 1.792 H 0 Z" />
      </g>
      <g
         transform="translate(1419.8527,557.7045)"
         id="g754">
        <path
           inkscape:connector-curvature="0"
           id="path756"
           style="fill:#000000;fill-opacity:1;fill-rule:nonzero;stroke:none"
           d="M 0,0 C 0,1.839 -1.084,3.347 -2.994,3.347 -5.162,3.347 -6.058,1.556 -6.223,0 Z m 1.438,-6.671 c -0.848,-0.307 -1.815,-0.778 -3.795,-0.778 -4.267,0 -6.224,2.592 -6.224,6.506 0,3.56 2.24,6.082 5.634,6.082 4.008,0 5.305,-2.923 5.305,-6.789 h -8.581 c 0,-2.381 1.862,-4.008 3.96,-4.008 1.462,0 3.159,0.755 3.701,1.203 z" />
      </g>
      <g
         transform="translate(1425.1807,562.5608)"
         id="g758">
        <path
           inkscape:connector-curvature="0"
           id="path760"
           style="fill:#000000;fill-opacity:1;fill-rule:nonzero;stroke:none"
           d="m 0,0 h 2.074 v -1.862 h 0.047 c 0.59,1.249 1.863,2.145 3.135,2.145 0.661,0 0.991,-0.071 1.463,-0.165 v -1.98 c -0.402,0.165 -0.849,0.211 -1.227,0.211 -1.979,0 -3.276,-1.885 -3.276,-4.903 v -5.469 H 0 Z" />
      </g>
      <g
         transform="translate(1434.3503,562.5608)"
         id="g762">
        <path
           inkscape:connector-curvature="0"
           id="path764"
           style="fill:#000000;fill-opacity:1;fill-rule:nonzero;stroke:none"
           d="m 0,0 h 2.074 v -1.862 h 0.048 c 0.589,1.249 1.862,2.145 3.135,2.145 0.66,0 0.99,-0.071 1.462,-0.165 v -1.98 c -0.401,0.165 -0.849,0.211 -1.226,0.211 -1.98,0 -3.277,-1.885 -3.277,-4.903 v -5.469 H 0 Z" />
      </g>
      <g
         transform="translate(1451.3005,557.7045)"
         id="g766">
        <path
           inkscape:connector-curvature="0"
           id="path768"
           style="fill:#000000;fill-opacity:1;fill-rule:nonzero;stroke:none"
           d="M 0,0 C 0,1.839 -1.085,3.347 -2.994,3.347 -5.163,3.347 -6.059,1.556 -6.225,0 Z m 1.437,-6.671 c -0.848,-0.307 -1.815,-0.778 -3.795,-0.778 -4.267,0 -6.223,2.592 -6.223,6.506 0,3.56 2.239,6.082 5.634,6.082 4.007,0 5.304,-2.923 5.304,-6.789 h -8.582 c 0,-2.381 1.863,-4.008 3.962,-4.008 1.461,0 3.158,0.755 3.7,1.203 z" />
      </g>
      <g
         transform="translate(1465.0433,556.4081)"
         id="g770">
        <path
           inkscape:connector-curvature="0"
           id="path772"
           style="fill:#000000;fill-opacity:1;fill-rule:nonzero;stroke:none"
           d="m 0,0 c 0,2.499 -1.155,4.644 -3.512,4.644 -2.24,0 -3.348,-2.428 -3.348,-4.479 0,-2.263 1.273,-4.243 3.348,-4.243 C -1.438,-4.078 0,-2.24 0,0 m 2.216,-5.351 c 0,-3.654 -1.885,-5.752 -6.2,-5.752 -1.273,0 -2.381,0.165 -4.314,0.825 l 0.236,2.051 c 1.697,-0.778 2.711,-1.085 4.337,-1.085 2.334,0 3.725,1.58 3.725,4.125 v 1.18 h -0.047 c -0.943,-1.25 -2.499,-1.863 -4.031,-1.863 -3.442,0 -5.139,2.805 -5.139,5.917 0,3.088 1.745,6.388 5.374,6.388 2.122,0 3.301,-0.778 3.961,-2.074 h 0.047 v 1.792 h 2.051 z" />
      </g>
      <g
         transform="translate(1355.9746,559.335)"
         id="g774">
        <path
           inkscape:connector-curvature="0"
           id="path776"
           style="fill:#82c17a;fill-opacity:1;fill-rule:nonzero;stroke:none"
           d="m 0,0 c -1.88,1.091 -3.903,1.886 -6.001,2.366 6.01,0.656 11.171,4.713 13.229,10.452 0.631,1.758 0.94,3.582 0.94,5.396 0,2.777 -0.729,5.531 -2.164,7.989 l 3.329,1.942 c 1.779,-3.051 2.687,-6.481 2.687,-9.931 0,-0.836 -0.053,-1.673 -0.159,-2.506 C 10.565,14.901 9.37,13.949 8.299,12.873 5.287,9.855 3.242,5.851 2.683,1.398 1.828,0.866 0.932,0.398 0,0 m 7.228,12.818 0.007,0.024 -0.007,-0.024" />
      </g>
      <g
         transform="translate(1358.6581,560.733)"
         id="g778">
        <path
           inkscape:connector-curvature="0"
           id="path780"
           style="fill:#19ac7b;fill-opacity:1;fill-rule:nonzero;stroke:none"
           d="m 0,0 c 0.559,4.453 2.603,8.457 5.616,11.475 1.07,1.076 2.265,2.028 3.561,2.835 C 8.997,12.895 8.663,11.49 8.172,10.12 6.635,5.838 3.711,2.311 0,0" />
      </g>
      <g
         transform="translate(1366.6875,538.8769)"
         id="g782">
        <path
           inkscape:connector-curvature="0"
           id="path784"
           style="fill:#f3ea66;fill-opacity:1;fill-rule:nonzero;stroke:none"
           d="m 0,0 -3.839,0.316 c 0.038,0.482 0.059,0.964 0.059,1.442 0,2.808 -0.67,5.575 -1.942,8.066 0.897,-1.62 2.013,-3.101 3.308,-4.4 C -1.663,4.669 -0.851,3.976 0.014,3.35 0.053,2.822 0.073,2.291 0.073,1.758 0.073,1.176 0.049,0.586 0,0 m -6.022,10.389 c -0.998,1.793 -2.315,3.428 -3.923,4.813 l -0.011,0.007 0.011,-0.007 c -3.26,2.809 -7.352,4.307 -11.558,4.311 -0.132,0 -0.26,-0.004 -0.392,-0.007 l -0.083,3.852 c 0.159,0.004 0.315,0.007 0.475,0.007 1.619,0 3.225,-0.183 4.789,-0.541 -0.189,-0.02 -0.379,-0.038 -0.569,-0.052 l 0.277,-3.842 c 2.206,0.161 4.327,0.688 6.293,1.528 0.881,-0.511 1.73,-1.086 2.54,-1.725 0.097,-2.994 0.862,-5.826 2.151,-8.344 m 3.692,1.265 c -0.095,0.171 -0.188,0.344 -0.277,0.519 0.095,-0.172 0.187,-0.345 0.277,-0.519" />
      </g>
      <g
         transform="translate(1366.7013,542.2271)"
         id="g786">
        <path
           inkscape:connector-curvature="0"
           id="path788"
           style="fill:#c5d76a;fill-opacity:1;fill-rule:nonzero;stroke:none"
           d="m 0,0 c -0.865,0.626 -1.677,1.319 -2.427,2.073 -1.296,1.299 -2.412,2.781 -3.308,4.401 -0.097,0.19 -0.197,0.378 -0.301,0.565 -1.288,2.518 -2.054,5.35 -2.151,8.344 0.252,-0.199 0.501,-0.404 0.745,-0.614 C -5.458,13.058 -3.84,11.038 -2.62,8.823 -2.531,8.648 -2.439,8.475 -2.344,8.304 -1.014,5.723 -0.215,2.897 0,0" />
      </g>
      <g
         transform="translate(1349.6819,557.8071)"
         id="g790">
        <path
           inkscape:connector-curvature="0"
           id="path792"
           style="fill:#d2d92c;fill-opacity:1;fill-rule:nonzero;stroke:none"
           d="m 0,0 -0.277,3.842 c 0.19,0.014 0.38,0.031 0.568,0.052 C 2.39,3.414 4.413,2.619 6.293,1.528 4.326,0.688 2.206,0.161 0,0" />
      </g>
    </g>
  </g>
</svg>
