<?xml version="1.0" encoding="UTF-8" standalone="no"?>
<!-- Created with Inkscape (http://www.inkscape.org/) -->

<svg
   xmlns:dc="http://purl.org/dc/elements/1.1/"
   xmlns:cc="http://creativecommons.org/ns#"
   xmlns:rdf="http://www.w3.org/1999/02/22-rdf-syntax-ns#"
   xmlns:svg="http://www.w3.org/2000/svg"
   xmlns="http://www.w3.org/2000/svg"
   xmlns:sodipodi="http://sodipodi.sourceforge.net/DTD/sodipodi-0.dtd"
   xmlns:inkscape="http://www.inkscape.org/namespaces/inkscape"
   version="1.1"
   id="svg2"
   xml:space="preserve"
   width="460"
   height="120"
   viewBox="0 0 459.99999 120"
   sodipodi:docname="messmer-stiftung.svg"
   inkscape:version="0.92.4 (5da689c313, 2019-01-14)"><metadata
     id="metadata8"><rdf:RDF><cc:Work
         rdf:about=""><dc:format>image/svg+xml</dc:format><dc:type
           rdf:resource="http://purl.org/dc/dcmitype/StillImage" /><dc:title></dc:title></cc:Work></rdf:RDF></metadata><defs
     id="defs6" /><sodipodi:namedview
     pagecolor="#ffffff"
     bordercolor="#666666"
     borderopacity="1"
     objecttolerance="10"
     gridtolerance="10"
     guidetolerance="10"
     inkscape:pageopacity="0"
     inkscape:pageshadow="2"
     inkscape:window-width="1874"
     inkscape:window-height="1043"
     id="namedview4"
     showgrid="false"
     inkscape:zoom="1.189304"
     inkscape:cx="-38.310049"
     inkscape:cy="-140.56756"
     inkscape:window-x="1246"
     inkscape:window-y="1200"
     inkscape:window-maximized="1"
     inkscape:current-layer="g10" /><g
     id="g10"
     inkscape:groupmode="layer"
     inkscape:label="2018_Messmer-Stiftung_Boschuere2"
     transform="matrix(1.3333333,0,0,1.3333333,-282.25802,-19.859995)"><g
       id="g892"
       transform="matrix(2.3134591,0,0,2.3134591,-276.85256,-147.65699)"><g
         id="g12"><path
           inkscape:connector-curvature="0"
           id="path14"
           style="fill:#575754;fill-opacity:1;fill-rule:nonzero;stroke:none"
           d="m 296.844,86.379 -1.782,-11.672 h -2.265 L 290.5,81.52 c -0.281,0.875 -0.469,1.453 -0.641,2.312 h -0.031 c -0.14,-0.75 -0.375,-1.531 -0.64,-2.375 l -2.25,-6.75 h -2.25 l -1.75,11.672 h 1.921 l 0.75,-6.031 c 0.11,-1.11 0.235,-2.016 0.313,-3.032 h 0.031 c 0.141,0.86 0.422,1.86 0.735,2.766 l 2.093,6.297 h 1.953 l 2.204,-6.781 c 0.281,-0.86 0.453,-1.625 0.593,-2.282 h 0.047 c 0.078,0.766 0.172,1.61 0.36,2.86 l 0.906,6.203 z" /><path
           inkscape:connector-curvature="0"
           id="path16"
           style="fill:#575754;fill-opacity:1;fill-rule:nonzero;stroke:none"
           d="M 305.574,86.379 V 84.77 h -4.265 v -3.625 h 4.062 v -1.547 h -4.062 v -3.313 h 4.265 v -1.578 h -6.156 v 11.672 z" /><path
           inkscape:connector-curvature="0"
           id="path18"
           style="fill:#575754;fill-opacity:1;fill-rule:nonzero;stroke:none"
           d="m 315.074,82.848 c 0,-3.641 -5.094,-2.782 -5.094,-5.11 0,-0.968 0.75,-1.64 2.204,-1.64 0.687,0 1.421,0.125 2.093,0.328 l 0.11,-1.672 c -0.703,-0.125 -1.422,-0.219 -2.11,-0.219 -2.703,0 -4.281,1.406 -4.281,3.406 0,3.766 5.094,2.735 5.094,5.188 0,1.266 -1.031,1.797 -2.313,1.797 -0.843,0 -1.765,-0.188 -2.422,-0.438 l -0.109,1.782 c 0.688,0.171 1.516,0.281 2.359,0.281 2.782,0 4.469,-1.547 4.469,-3.703 z" /><path
           inkscape:connector-curvature="0"
           id="path20"
           style="fill:#575754;fill-opacity:1;fill-rule:nonzero;stroke:none"
           d="m 324.289,82.848 c 0,-3.641 -5.094,-2.782 -5.094,-5.11 0,-0.968 0.75,-1.64 2.203,-1.64 0.688,0 1.422,0.125 2.094,0.328 l 0.11,-1.672 c -0.704,-0.125 -1.422,-0.219 -2.11,-0.219 -2.703,0 -4.281,1.406 -4.281,3.406 0,3.766 5.094,2.735 5.094,5.188 0,1.266 -1.032,1.797 -2.313,1.797 -0.844,0 -1.765,-0.188 -2.422,-0.438 l -0.109,1.782 c 0.687,0.171 1.516,0.281 2.359,0.281 2.782,0 4.469,-1.547 4.469,-3.703 z" /><path
           inkscape:connector-curvature="0"
           id="path22"
           style="fill:#575754;fill-opacity:1;fill-rule:nonzero;stroke:none"
           d="m 340.117,86.379 -1.781,-11.672 h -2.266 l -2.297,6.813 c -0.281,0.875 -0.468,1.453 -0.64,2.312 h -0.031 c -0.141,-0.75 -0.375,-1.531 -0.641,-2.375 l -2.25,-6.75 h -2.25 l -1.75,11.672 h 1.922 l 0.75,-6.031 c 0.109,-1.11 0.234,-2.016 0.312,-3.032 h 0.032 c 0.14,0.86 0.421,1.86 0.734,2.766 l 2.094,6.297 h 1.953 l 2.203,-6.781 c 0.281,-0.86 0.453,-1.625 0.594,-2.282 h 0.047 c 0.078,0.766 0.171,1.61 0.359,2.86 l 0.906,6.203 z" /><path
           inkscape:connector-curvature="0"
           id="path24"
           style="fill:#575754;fill-opacity:1;fill-rule:nonzero;stroke:none"
           d="M 348.844,86.379 V 84.77 h -4.266 v -3.625 h 4.063 v -1.547 h -4.063 v -3.313 h 4.266 v -1.578 h -6.156 v 11.672 z" /><path
           inkscape:connector-curvature="0"
           id="path26"
           style="fill:#575754;fill-opacity:1;fill-rule:nonzero;stroke:none"
           d="m 359.785,86.379 -3.078,-4.063 c -0.297,-0.375 -0.656,-0.828 -0.984,-1.25 1.906,-0.203 3.297,-1.39 3.297,-3.265 0,-2.313 -1.657,-3.156 -4.079,-3.156 -1.312,0 -2.281,0.015 -3.125,0.062 v 11.672 h 1.891 v -5.047 h 0.078 l 3.641,5.047 z m -2.734,-8.359 c 0,1.156 -0.906,1.937 -2.438,1.937 -0.406,0 -0.734,-0.031 -0.906,-0.047 v -3.687 c 0.281,-0.016 0.625,-0.047 0.984,-0.047 1.579,0 2.36,0.562 2.36,1.844 z" /><path
           inkscape:connector-curvature="0"
           id="path28"
           style="fill:#575754;fill-opacity:1;fill-rule:nonzero;stroke:none"
           d="m 289.477,101.441 c 0,-3.656 -5.547,-2.625 -5.547,-5.453 0,-1.281 0.968,-2.125 2.75,-2.125 0.687,0 1.453,0.125 2.109,0.328 l 0.063,-1.031 c -0.672,-0.125 -1.344,-0.203 -2.094,-0.203 -2.485,0 -3.953,1.344 -3.953,3.156 0,3.625 5.531,2.594 5.531,5.485 0,1.687 -1.344,2.328 -2.922,2.328 -0.812,0 -1.687,-0.188 -2.375,-0.438 l -0.078,1.11 c 0.641,0.187 1.469,0.297 2.359,0.297 2.563,0 4.157,-1.422 4.157,-3.454 z" /><path
           inkscape:connector-curvature="0"
           id="path30"
           style="fill:#575754;fill-opacity:1;fill-rule:nonzero;stroke:none"
           d="m 299.152,94.004 v -0.922 h -8.328 v 0.922 h 3.61 v 10.75 h 1.109 v -10.75 z" /><path
           inkscape:connector-curvature="0"
           id="path32"
           style="fill:#575754;fill-opacity:1;fill-rule:nonzero;stroke:none"
           d="m 301.559,93.082 h 1.109 v 11.672 h -1.109 z" /><path
           inkscape:connector-curvature="0"
           id="path34"
           style="fill:#575754;fill-opacity:1;fill-rule:nonzero;stroke:none"
           d="m 312.648,93.988 v -0.906 h -5.734 v 11.672 h 1.109 v -5.547 h 4.391 v -0.906 h -4.391 v -4.313 z" /><path
           inkscape:connector-curvature="0"
           id="path36"
           style="fill:#575754;fill-opacity:1;fill-rule:nonzero;stroke:none"
           d="m 322.645,94.004 v -0.922 h -8.329 v 0.922 h 3.61 v 10.75 h 1.109 v -10.75 z" /><path
           inkscape:connector-curvature="0"
           id="path38"
           style="fill:#575754;fill-opacity:1;fill-rule:nonzero;stroke:none"
           d="m 333.691,100.348 v -7.266 h -1.093 v 7.375 c 0,2.609 -1.11,3.531 -3.344,3.531 -2.656,0 -3.25,-1.468 -3.25,-3.187 v -7.719 h -1.109 v 7.828 c 0,1.953 0.656,3.985 4.25,3.985 3.031,0 4.546,-1.594 4.546,-4.547 z" /><path
           inkscape:connector-curvature="0"
           id="path40"
           style="fill:#575754;fill-opacity:1;fill-rule:nonzero;stroke:none"
           d="M 346.922,104.754 V 93.082 h -1.11 v 3.125 c 0,2.25 0.063,5.703 0.11,7.344 -0.438,-0.813 -0.922,-1.641 -1.422,-2.438 l -5.109,-8.031 h -1.5 v 11.672 H 339 v -3.438 c 0,-2.171 -0.062,-5.687 -0.125,-7.062 0.391,0.75 0.828,1.516 1.375,2.344 l 5.156,8.156 z" /><path
           inkscape:connector-curvature="0"
           id="path42"
           style="fill:#575754;fill-opacity:1;fill-rule:nonzero;stroke:none"
           d="m 359.277,93.441 c -1.047,-0.328 -2.078,-0.484 -3.14,-0.484 -3.828,0 -6.141,2.656 -6.141,6.188 0,3.64 2.313,5.75 5.734,5.75 1.172,0 2.579,-0.204 3.75,-0.641 v -5.328 h -1.109 v 4.656 c -0.75,0.234 -1.531,0.375 -2.469,0.375 -2.797,0 -4.734,-1.781 -4.734,-5.016 0,-3.453 2.328,-5.078 4.828,-5.078 1.016,0 2.109,0.235 3.109,0.625 z" /><g
           id="g44"><path
             inkscape:connector-curvature="0"
             id="path46"
             style="fill:#d4c7ab;fill-opacity:1;fill-rule:nonzero;stroke:#d4c7ab;stroke-width:0.63700002;stroke-linecap:butt;stroke-linejoin:round;stroke-miterlimit:10;stroke-dasharray:none;stroke-opacity:1"
             d="m 243.301,87.531 1.082,-2.676 2.984,-7.375 7.492,18.481 -3.394,8.484 h -14.996 z" /></g><g
           id="g48"><path
             inkscape:connector-curvature="0"
             id="path50"
             style="fill:#00356e;fill-opacity:1;fill-rule:nonzero;stroke:#00356e;stroke-width:0.63700002;stroke-linecap:butt;stroke-linejoin:round;stroke-miterlimit:10;stroke-dasharray:none;stroke-opacity:1"
             d="m 269.094,87.535 -1.082,-2.676 -3.946,-9.773 h -15 l 6.832,16.914 1.082,2.672 3.95,9.777 h 14.996 z" /></g><g
           id="g52"><path
             inkscape:connector-curvature="0"
             id="path54"
             style="fill:#00356e;fill-opacity:1;fill-rule:nonzero;stroke:#00356e;stroke-width:0.63700002;stroke-linecap:butt;stroke-linejoin:round;stroke-miterlimit:10;stroke-dasharray:none;stroke-opacity:1"
             d="m 244.633,87.52 -1.082,-2.676 -3.949,-9.774 h -14.997 l 6.833,16.914 1.078,2.676 3.949,9.774 h 15 z" /></g><g
           id="g56"><path
             inkscape:connector-curvature="0"
             id="path58"
             style="fill:#d4c7ab;fill-opacity:1;fill-rule:nonzero;stroke:#d4c7ab;stroke-width:0.63700002;stroke-linecap:butt;stroke-linejoin:round;stroke-miterlimit:10;stroke-dasharray:none;stroke-opacity:1"
             d="m 218.844,87.516 1.082,-2.672 2.984,-7.379 7.492,18.48 -3.39,8.485 h -15 z" /></g></g></g></g></svg>