<?xml version="1.0" encoding="UTF-8" standalone="no"?>
<!-- Created with Inkscape (http://www.inkscape.org/) -->

<svg
   xmlns:dc="http://purl.org/dc/elements/1.1/"
   xmlns:cc="http://creativecommons.org/ns#"
   xmlns:rdf="http://www.w3.org/1999/02/22-rdf-syntax-ns#"
   xmlns:svg="http://www.w3.org/2000/svg"
   xmlns="http://www.w3.org/2000/svg"
   xmlns:sodipodi="http://sodipodi.sourceforge.net/DTD/sodipodi-0.dtd"
   xmlns:inkscape="http://www.inkscape.org/namespaces/inkscape"
   version="1.0"
   width="460"
   height="120"
   id="svg2"
   sodipodi:version="0.32"
   inkscape:version="0.92.4 (5da689c313, 2019-01-14)"
   sodipodi:docname="schweizerische-eidgenossenschaft.svg"
   inkscape:output_extension="org.inkscape.output.svg.inkscape">
  <metadata
     id="metadata231">
    <rdf:RDF>
      <cc:Work
         rdf:about="">
        <dc:format>image/svg+xml</dc:format>
        <dc:type
           rdf:resource="http://purl.org/dc/dcmitype/StillImage" />
        <dc:title></dc:title>
      </cc:Work>
    </rdf:RDF>
  </metadata>
  <sodipodi:namedview
     inkscape:window-height="1043"
     inkscape:window-width="1874"
     inkscape:pageshadow="2"
     inkscape:pageopacity="0.0"
     guidetolerance="10.0"
     gridtolerance="10.0"
     objecttolerance="10.0"
     borderopacity="1.0"
     bordercolor="#666666"
     pagecolor="#ffffff"
     id="base"
     showgrid="false"
     inkscape:zoom="0.68823868"
     inkscape:cx="-204.26727"
     inkscape:cy="43.742908"
     inkscape:window-x="1246"
     inkscape:window-y="1200"
     inkscape:current-layer="svg2"
     inkscape:window-maximized="1" />
  <defs
     id="defs4">
    <inkscape:perspective
       sodipodi:type="inkscape:persp3d"
       inkscape:vp_x="0 : 127.50266 : 1"
       inkscape:vp_y="0 : 1000 : 0"
       inkscape:vp_z="790.42346 : 127.50266 : 1"
       inkscape:persp3d-origin="395.21173 : 85.00177 : 1"
       id="perspective233" />
    <clipPath
       id="clipPath2670">
      <path
         d="M 0,56.69293 V 0 h 171.16299 v 56.69293"
         id="path2672"
         inkscape:connector-curvature="0" />
    </clipPath>
    <clipPath
       id="clipPath2662">
      <path
         d="m -85.5459,-28.34645 v 56.6929 H 85.5459 v -56.6929 z"
         id="path2664"
         inkscape:connector-curvature="0" />
    </clipPath>
    <clipPath
       id="clipPath2650">
      <path
         d="M 0,56.69293 V 0 h 171.149 v 56.69293"
         id="path2652"
         inkscape:connector-curvature="0" />
    </clipPath>
    <clipPath
       id="clipPath2642">
      <path
         d="m -85.5806,-28.34645 v 56.6929 H 85.5806 v -56.6929 z"
         id="path2644"
         inkscape:connector-curvature="0" />
    </clipPath>
    <clipPath
       id="clipPath2606">
      <path
         d="M 0,56.69382 V 0 h 459.21298 v 56.69382"
         id="path2608"
         inkscape:connector-curvature="0" />
    </clipPath>
    <clipPath
       id="clipPath2594">
      <path
         d="m -229.60645,-28.34695 v 56.6939 h 420.56693 v -56.6939 z"
         id="path2596"
         inkscape:connector-curvature="0" />
    </clipPath>
    <clipPath
       id="clipPath2582">
      <path
         d="M 0,56.69382 V 0 h 459.21298 v 56.69382"
         id="path2584"
         inkscape:connector-curvature="0" />
    </clipPath>
    <clipPath
       id="clipPath2570">
      <path
         d="m -229.60645,-28.34695 v 56.6939 h 420.56693 v -56.6939 z"
         id="path2572"
         inkscape:connector-curvature="0" />
    </clipPath>
    <clipPath
       id="clipPath2560">
      <path
         d="M 0,56.69293 V 0 h 459.21298 v 56.69293"
         id="path2562"
         inkscape:connector-curvature="0" />
    </clipPath>
    <clipPath
       id="clipPath2548">
      <path
         d="m -229.60645,-28.34695 v 56.6939 h 420.56693 v -56.6939 z"
         id="path2550"
         inkscape:connector-curvature="0" />
    </clipPath>
    <clipPath
       id="clipPath2538">
      <path
         d="M 0,56.69382 V 0 h 459.21298 v 56.69382"
         id="path2540"
         inkscape:connector-curvature="0" />
    </clipPath>
    <clipPath
       id="clipPath2526">
      <path
         d="m -229.60645,-28.34695 v 56.6939 h 420.56693 v -56.6939 z"
         id="path2528"
         inkscape:connector-curvature="0" />
    </clipPath>
    <clipPath
       id="clipPath2398">
      <path
         d="M 0,0 H 841.88971 V 595.27557 H 0 Z"
         id="path2400"
         inkscape:connector-curvature="0" />
    </clipPath>
    <clipPath
       id="clipPath7455">
      <path
         d="m 277.94922,494.22852 h 155.9902 v 38.34521 h -155.9902 z"
         id="path7457"
         inkscape:connector-curvature="0" />
    </clipPath>
    <clipPath
       id="clipPath7447">
      <path
         d="m 277.94922,494.22852 h 155.9902 v 38.34521 h -155.9902 z"
         id="path7449"
         inkscape:connector-curvature="0" />
    </clipPath>
    <clipPath
       id="clipPath7439">
      <path
         d="m 285.21716,414.85422 v 31.23169 l 113.70758,-0.22544 v -31.23172 z"
         id="path7441"
         inkscape:connector-curvature="0" />
    </clipPath>
    <clipPath
       id="clipPath7239">
      <path
         d="m 277.94922,494.22852 h 155.9902 v 38.34521 h -155.9902 z"
         id="path7241"
         inkscape:connector-curvature="0" />
    </clipPath>
    <clipPath
       id="clipPath7231">
      <path
         d="m 277.94922,494.22852 h 155.9902 v 38.34521 h -155.9902 z"
         id="path7233"
         inkscape:connector-curvature="0" />
    </clipPath>
    <clipPath
       id="clipPath7223">
      <path
         d="m 285.21716,414.85422 v 31.23169 l 113.70758,-0.22544 v -31.23172 z"
         id="path7225"
         inkscape:connector-curvature="0" />
    </clipPath>
    <clipPath
       id="clipPath7023">
      <path
         d="m 277.94922,494.22852 h 155.9902 v 38.34521 h -155.9902 z"
         id="path7025"
         inkscape:connector-curvature="0" />
    </clipPath>
    <clipPath
       id="clipPath7015">
      <path
         d="m 277.94922,494.22852 h 155.9902 v 38.34521 h -155.9902 z"
         id="path7017"
         inkscape:connector-curvature="0" />
    </clipPath>
    <clipPath
       id="clipPath7007">
      <path
         d="m 285.21716,425.37146 v 31.23172 l 113.70758,-0.22549 v -31.23166 z"
         id="path7009"
         inkscape:connector-curvature="0" />
    </clipPath>
    <clipPath
       id="clipPath6807">
      <path
         d="m 277.94922,494.22852 h 155.9902 v 38.34521 h -155.9902 z"
         id="path6809"
         inkscape:connector-curvature="0" />
    </clipPath>
    <clipPath
       id="clipPath6799">
      <path
         d="m 277.94922,494.22852 h 155.9902 v 38.34521 h -155.9902 z"
         id="path6801"
         inkscape:connector-curvature="0" />
    </clipPath>
    <clipPath
       id="clipPath6791">
      <path
         d="m 285.21716,414.85422 v 31.23169 l 113.70758,-0.22544 v -31.23172 z"
         id="path6793"
         inkscape:connector-curvature="0" />
    </clipPath>
    <clipPath
       id="clipPath6591">
      <path
         d="m 277.94922,494.22852 h 155.9902 v 38.34521 h -155.9902 z"
         id="path6593"
         inkscape:connector-curvature="0" />
    </clipPath>
    <clipPath
       id="clipPath6583">
      <path
         d="m 277.94922,494.22852 h 155.9902 v 38.34521 h -155.9902 z"
         id="path6585"
         inkscape:connector-curvature="0" />
    </clipPath>
    <clipPath
       id="clipPath6575">
      <path
         d="m 285.21716,425.37146 v 31.23172 l 113.70758,-0.22549 v -31.23166 z"
         id="path6577"
         inkscape:connector-curvature="0" />
    </clipPath>
    <clipPath
       id="clipPath6375">
      <path
         d="m -140.48418,-86.21886 v 27.58939 h 112.23481 v -27.58939 z"
         id="path6377"
         inkscape:connector-curvature="0" />
    </clipPath>
    <clipPath
       id="clipPath6175">
      <path
         d="m -140.48418,-74.93864 v 27.58938 h 112.23481 v -27.58938 z"
         id="path6177"
         inkscape:connector-curvature="0" />
    </clipPath>
    <clipPath
       id="clipPath5975">
      <path
         d="m -140.48418,-63.34387 v 27.5894 h 112.23481 v -27.5894 z"
         id="path5977"
         inkscape:connector-curvature="0" />
    </clipPath>
    <clipPath
       id="clipPath5775">
      <path
         d="m -140.48418,-52.06366 v 27.58939 h 112.23481 v -27.58939 z"
         id="path5777"
         inkscape:connector-curvature="0" />
    </clipPath>
    <clipPath
       id="clipPath5575">
      <path
         d="m -140.48418,-40.73978 v 27.58939 h 112.23481 v -27.58939 z"
         id="path5577"
         inkscape:connector-curvature="0" />
    </clipPath>
    <clipPath
       id="clipPath5289">
      <path
         d="M 277.36963,494.22943 H 433.94919 V 533.1806 H 277.36963 Z"
         id="path5291"
         inkscape:connector-curvature="0" />
    </clipPath>
    <clipPath
       id="clipPath5281">
      <path
         d="M 277.36963,494.22943 H 433.94919 V 533.1806 H 277.36963 Z"
         id="path5283"
         inkscape:connector-curvature="0" />
    </clipPath>
    <clipPath
       id="clipPath5273">
      <path
         d="m 299.3381,498.9791 v 29.69131 l 112.81894,0.11646 v -29.69129 z"
         id="path5275"
         inkscape:connector-curvature="0" />
    </clipPath>
    <clipPath
       id="clipPath5073">
      <path
         d="M 277.36963,494.22943 H 433.94919 V 533.1806 H 277.36963 Z"
         id="path5075"
         inkscape:connector-curvature="0" />
    </clipPath>
    <clipPath
       id="clipPath5065">
      <path
         d="M 277.36963,494.22943 H 433.94919 V 533.1806 H 277.36963 Z"
         id="path5067"
         inkscape:connector-curvature="0" />
    </clipPath>
    <clipPath
       id="clipPath5057">
      <path
         d="m 299.04822,494.22943 v 38.95117 h 113.3858 v -38.95117 z"
         id="path5059"
         inkscape:connector-curvature="0" />
    </clipPath>
    <clipPath
       id="clipPath4857">
      <path
         d="m 277.94922,494.22852 h 155.9902 v 38.34521 h -155.9902 z"
         id="path4859"
         inkscape:connector-curvature="0" />
    </clipPath>
    <clipPath
       id="clipPath4849">
      <path
         d="m 277.94922,494.22852 h 155.9902 v 38.34521 h -155.9902 z"
         id="path4851"
         inkscape:connector-curvature="0" />
    </clipPath>
    <clipPath
       id="clipPath4841">
      <path
         d="m 254.58467,393.72018 v 31.23172 l 112.2646,0.15549 v -31.30536 z"
         id="path4843"
         inkscape:connector-curvature="0" />
    </clipPath>
    <clipPath
       id="clipPath4641">
      <path
         d="m 277.94922,494.22852 h 155.9902 v 38.34521 h -155.9902 z"
         id="path4643"
         inkscape:connector-curvature="0" />
    </clipPath>
    <clipPath
       id="clipPath4633">
      <path
         d="m 277.94922,494.22852 h 155.9902 v 38.34521 h -155.9902 z"
         id="path4635"
         inkscape:connector-curvature="0" />
    </clipPath>
    <clipPath
       id="clipPath4625">
      <path
         d="m 254.58467,393.72018 v 31.23172 l 112.2646,0.15549 v -31.30536 z"
         id="path4627"
         inkscape:connector-curvature="0" />
    </clipPath>
    <clipPath
       id="clipPath4425">
      <path
         d="m 277.94922,494.22852 h 155.9902 v 38.34521 h -155.9902 z"
         id="path4427"
         inkscape:connector-curvature="0" />
    </clipPath>
    <clipPath
       id="clipPath4417">
      <path
         d="m 277.94922,494.22852 h 155.9902 v 38.34521 h -155.9902 z"
         id="path4419"
         inkscape:connector-curvature="0" />
    </clipPath>
    <clipPath
       id="clipPath4409">
      <path
         d="m 254.58467,404.23743 v 31.23172 l 112.2646,0.15548 v -31.30539 z"
         id="path4411"
         inkscape:connector-curvature="0" />
    </clipPath>
    <clipPath
       id="clipPath4209">
      <path
         d="m 277.94922,494.22852 h 155.9902 v 38.34521 h -155.9902 z"
         id="path4211"
         inkscape:connector-curvature="0" />
    </clipPath>
    <clipPath
       id="clipPath4201">
      <path
         d="m 277.94922,494.22852 h 155.9902 v 38.34521 h -155.9902 z"
         id="path4203"
         inkscape:connector-curvature="0" />
    </clipPath>
    <clipPath
       id="clipPath4193">
      <path
         d="m 254.58467,414.75467 v 31.23169 l 112.2646,0.15552 v -31.30542 z"
         id="path4195"
         inkscape:connector-curvature="0" />
    </clipPath>
    <clipPath
       id="clipPath3993">
      <path
         d="m 277.94922,494.22852 h 155.9902 v 38.34521 h -155.9902 z"
         id="path3995"
         inkscape:connector-curvature="0" />
    </clipPath>
    <clipPath
       id="clipPath3985">
      <path
         d="m 277.94922,494.22852 h 155.9902 v 38.34521 h -155.9902 z"
         id="path3987"
         inkscape:connector-curvature="0" />
    </clipPath>
    <clipPath
       id="clipPath3977">
      <path
         d="m 254.58467,425.27191 v 31.23169 l 112.2646,0.15549 V 425.3537 Z"
         id="path3979"
         inkscape:connector-curvature="0" />
    </clipPath>
    <clipPath
       id="clipPath3959">
      <path
         d="M 0,38.34531 V 0 h 155.99098 v 38.34531"
         id="path3961"
         inkscape:connector-curvature="0" />
    </clipPath>
    <clipPath
       id="clipPath3769">
      <path
         d="m 16.89909,-92.63908 v 28.50956 h 112.05326 v -28.50956 z"
         id="path3771"
         inkscape:connector-curvature="0" />
    </clipPath>
    <clipPath
       id="clipPath3751">
      <path
         d="M 0,38.34531 V 0 h 155.99098 v 38.34531"
         id="path3753"
         inkscape:connector-curvature="0" />
    </clipPath>
    <clipPath
       id="clipPath3561">
      <path
         d="M 16.89909,-81.35887 V -52.8493 H 128.95235 V -81.35887 Z"
         id="path3563"
         inkscape:connector-curvature="0" />
    </clipPath>
    <clipPath
       id="clipPath3543">
      <path
         d="M 0,38.34531 V 0 h 155.99098 v 38.34531"
         id="path3545"
         inkscape:connector-curvature="0" />
    </clipPath>
    <clipPath
       id="clipPath3353">
      <path
         d="m 16.89909,-69.76408 v 28.50956 h 112.05326 v -28.50956 z"
         id="path3355"
         inkscape:connector-curvature="0" />
    </clipPath>
    <clipPath
       id="clipPath3335">
      <path
         d="M 0,38.34531 V 0 h 155.99098 v 38.34531"
         id="path3337"
         inkscape:connector-curvature="0" />
    </clipPath>
    <clipPath
       id="clipPath3145">
      <path
         d="m 16.89909,-58.48389 v 28.50957 h 112.05326 v -28.50957 z"
         id="path3147"
         inkscape:connector-curvature="0" />
    </clipPath>
    <clipPath
       id="clipPath3127">
      <path
         d="M 0,38.34531 V 0 h 155.99098 v 38.34531"
         id="path3129"
         inkscape:connector-curvature="0" />
    </clipPath>
    <clipPath
       id="clipPath2937">
      <path
         d="m 16.89909,-47.16 v 28.50956 H 128.95235 V -47.16 Z"
         id="path2939"
         inkscape:connector-curvature="0" />
    </clipPath>
    <clipPath
       id="clipPath2915">
      <path
         d="M 0,0 H 841.88971 V 595.27557 H 0 Z"
         id="path2917"
         inkscape:connector-curvature="0" />
    </clipPath>
    <inkscape:perspective
       id="perspective2708"
       inkscape:persp3d-origin="372.04724 : 350.78739 : 1"
       inkscape:vp_z="744.09448 : 526.18109 : 1"
       inkscape:vp_y="0 : 1000 : 0"
       inkscape:vp_x="0 : 526.18109 : 1"
       sodipodi:type="inkscape:persp3d" />
  </defs>
  <g
     id="g1129"
     transform="matrix(0.64724735,0,0,0.64724735,-25.001251,-22.037876)">
    <path
       d="m 174.91859,69.18314 c 1.40139,0.88983 3.0412,1.40155 5.26363,1.40155 2.94078,0 5.36787,-1.50402 5.36787,-4.88753 0,-4.6851 -10.94085,-5.26585 -10.94085,-11.5213 0,-3.82865 3.35055,-6.22231 7.55704,-6.22231 1.16143,0 3.0412,0.17114 4.68328,0.78533 l -0.37655,2.15548 c -1.05864,-0.58273 -2.73585,-0.88968 -4.34218,-0.88968 -2.4603,0 -5.16112,1.02554 -5.16112,4.10221 0,4.78736 10.93863,4.8207 10.93863,11.79495 0,4.8206 -4.13547,6.73393 -7.82872,6.73393 -2.32449,0 -4.13547,-0.47833 -5.40113,-1.02554 l 0.2401,-2.42709"
       id="path2943"
       style="fill:#000000;fill-opacity:1;fill-rule:nonzero;stroke:none"
       inkscape:connector-curvature="0" />
    <path
       d="m 206.43723,57.11458 c -1.16125,-0.51167 -2.56278,-0.88779 -3.72639,-0.88779 -4.20439,0 -6.56474,3.04328 -6.56474,7.28134 0,3.96651 2.3937,7.28344 6.32465,7.28344 1.36813,0 2.63379,-0.30924 3.93326,-0.78752 l 0.20452,2.01774 c -1.47059,0.51162 -2.83891,0.61398 -4.47817,0.61398 -5.60843,0 -8.34264,-4.27349 -8.34264,-9.12764 0,-5.36806 3.45279,-9.12764 8.616,-9.12764 2.08448,0 3.58847,0.47829 4.20481,0.68296 l -0.1713,2.05113"
       id="path2945"
       style="fill:#000000;fill-opacity:1;fill-rule:nonzero;stroke:none"
       inkscape:connector-curvature="0" />
    <path
       d="m 212.93326,46.58539 h 2.15318 v 11.14537 h 0.0693 c 0.92291,-1.91313 2.87157,-3.35027 5.43434,-3.35027 4.68492,0 5.94891,3.11225 5.94891,7.41914 v 10.42683 h -2.15373 V 61.83287 c 0,-3.00759 -0.58035,-5.60608 -4.13556,-5.60608 -3.8283,0 -5.16322,3.62392 -5.16322,6.6672 v 9.33247 H 212.9333 V 46.58539"
       id="path2947"
       style="fill:#000000;fill-opacity:1;fill-rule:nonzero;stroke:none"
       inkscape:connector-curvature="0" />
    <path
       d="m 252.52246,72.22646 h -2.59826 l -4.75208,-15.07629 h -0.0688 l -4.75194,15.07629 h -2.59821 L 232.14696,54.7898 h 2.35812 l 4.58077,15.07839 h 0.0687 l 4.85441,-15.07839 h 2.59839 l 4.61608,15.07839 h 0.0666 l 4.82074,-15.07839 h 2.15359 l -5.74187,17.43666"
       id="path2949"
       style="fill:#000000;fill-opacity:1;fill-rule:nonzero;stroke:none"
       inkscape:connector-curvature="0" />
    <path
       d="m 274.5039,62.27791 c 0,-3.04327 -1.23008,-6.05112 -4.44249,-6.05112 -3.18112,0 -5.12973,3.17914 -5.12973,6.05112 z m 1.06115,9.40125 c -1.50363,0.61628 -3.45261,0.95661 -5.06089,0.95661 -5.77741,0 -7.93073,-3.89752 -7.93073,-9.12764 0,-5.33242 2.94097,-9.12764 7.34984,-9.12764 4.92329,0 6.94107,3.96651 6.94107,8.64936 v 1.09451 h -11.93266 c 0,3.6929 1.98415,6.66721 5.74383,6.66721 1.57275,0 3.86393,-0.64973 4.88954,-1.2992 v 2.18679"
       id="path2951"
       style="fill:#000000;fill-opacity:1;fill-rule:nonzero;stroke:none"
       inkscape:connector-curvature="0" />
    <path
       d="m 283.63155,54.7898 h 2.1535 v 17.43666 h -2.1535 z m 2.1535,-4.64946 h -2.1535 v -2.8699 h 2.1535 v 2.8699"
       id="path2953"
       style="fill:#000000;fill-opacity:1;fill-rule:nonzero;stroke:none"
       inkscape:connector-curvature="0" />
    <path
       d="M 292.28337,70.41545 302.7791,56.6363 h -10.0866 v -1.8465 h 12.58012 v 1.8465 l -10.4935,13.74372 h 10.4935 v 1.84644 h -12.98925 v -1.81101"
       id="path2955"
       style="fill:#000000;fill-opacity:1;fill-rule:nonzero;stroke:none"
       inkscape:connector-curvature="0" />
    <path
       d="m 322.36458,62.27791 c 0,-3.04327 -1.23018,-6.05112 -4.44259,-6.05112 -3.18103,0 -5.13005,3.17914 -5.13005,6.05112 z m 1.06114,9.40125 c -1.50408,0.61628 -3.45265,0.95661 -5.06089,0.95661 -5.7775,0 -7.93114,-3.89752 -7.93114,-9.12764 0,-5.33242 2.94138,-9.12764 7.3502,-9.12764 4.92335,0 6.94112,3.96651 6.94112,8.64936 v 1.09451 h -11.93307 c 0,3.6929 1.98456,6.66721 5.74416,6.66721 1.57283,0 3.86397,-0.64973 4.88962,-1.2992 v 2.18679"
       id="path2957"
       style="fill:#000000;fill-opacity:1;fill-rule:nonzero;stroke:none"
       inkscape:connector-curvature="0" />
    <path
       d="m 331.49441,58.68738 c 0,-1.91318 0,-2.63178 -0.13577,-3.89758 h 2.15364 v 3.35027 h 0.0666 c 0.78769,-1.94647 2.25792,-3.75958 4.48036,-3.75958 0.51169,0 1.12803,0.10232 1.50395,0.20453 v 2.25815 c -0.44467,-0.13795 -1.02557,-0.20687 -1.57275,-0.20687 -3.4193,0 -4.34235,3.8308 -4.34235,6.9742 v 8.61596 h -2.15364 V 58.68738"
       id="path2959"
       style="fill:#000000;fill-opacity:1;fill-rule:nonzero;stroke:none"
       inkscape:connector-curvature="0" />
    <path
       d="m 345.54522,54.7898 h 2.15318 v 17.43666 h -2.15318 z m 2.15318,-4.64946 h -2.15318 v -2.8699 h 2.15318 v 2.8699"
       id="path2961"
       style="fill:#000000;fill-opacity:1;fill-rule:nonzero;stroke:none"
       inkscape:connector-curvature="0" />
    <path
       d="m 354.46821,69.697 c 1.29888,0.64962 2.87212,1.09457 4.54683,1.09457 2.05117,0 3.86224,-1.13025 3.86224,-3.11241 0,-4.13544 -8.37586,-3.48582 -8.37586,-8.54684 0,-3.45269 2.80292,-4.75183 5.67504,-4.75183 0.92355,0 2.76957,0.20453 4.30677,0.78752 l -0.20452,1.87984 c -1.12757,-0.51391 -2.66527,-0.82106 -3.86173,-0.82106 -2.22239,0 -3.76192,0.68306 -3.76192,2.90553 0,3.24796 8.58037,2.8386 8.58037,8.54684 0,3.693 -3.45251,4.95661 -6.08462,4.95661 -1.67521,0 -3.35001,-0.20483 -4.88721,-0.81866 l 0.20461,-2.12011"
       id="path2963"
       style="fill:#000000;fill-opacity:1;fill-rule:nonzero;stroke:none"
       inkscape:connector-curvature="0" />
    <path
       d="m 383.11472,57.11458 c -1.16133,-0.51167 -2.56277,-0.88779 -3.72642,-0.88779 -4.20426,0 -6.56479,3.04328 -6.56479,7.28134 0,3.96651 2.39378,7.28344 6.32478,7.28344 1.36817,0 2.63379,-0.30924 3.93317,-0.78752 l 0.20452,2.01774 c -1.47069,0.51162 -2.83882,0.61398 -4.47803,0.61398 -5.60852,0 -8.3426,-4.27349 -8.3426,-9.12764 0,-5.36806 3.45256,-9.12764 8.61596,-9.12764 2.08475,0 3.58824,0.47829 4.20467,0.68296 l -0.17126,2.05113"
       id="path2965"
       style="fill:#000000;fill-opacity:1;fill-rule:nonzero;stroke:none"
       inkscape:connector-curvature="0" />
    <path
       d="m 389.61067,46.58539 h 2.15323 v 11.14537 h 0.0692 c 0.9231,-1.91313 2.87172,-3.35027 5.43449,-3.35027 4.68533,0 5.94877,3.11225 5.94877,7.41914 v 10.42683 h -2.15364 V 61.83287 c 0,-3.00759 -0.58049,-5.60608 -4.13551,-5.60608 -3.82844,0 -5.16335,3.62392 -5.16335,6.6672 v 9.33247 h -2.15323 V 46.58539"
       id="path2967"
       style="fill:#000000;fill-opacity:1;fill-rule:nonzero;stroke:none"
       inkscape:connector-curvature="0" />
    <path
       d="m 421.91663,62.27791 c 0,-3.04327 -1.23008,-6.05112 -4.44258,-6.05112 -3.18107,0 -5.13014,3.17914 -5.13014,6.05112 z m 1.06106,9.40125 c -1.5039,0.61628 -3.45257,0.95661 -5.0608,0.95661 -5.7775,0 -7.93114,-3.89752 -7.93114,-9.12764 0,-5.33242 2.94138,-9.12764 7.35025,-9.12764 4.92329,0 6.94107,3.96651 6.94107,8.64936 v 1.09451 h -11.93316 c 0,3.6929 1.98465,6.66721 5.74433,6.66721 1.5727,0 3.86388,-0.64973 4.88945,-1.2992 v 2.18679"
       id="path2969"
       style="fill:#000000;fill-opacity:1;fill-rule:nonzero;stroke:none"
       inkscape:connector-curvature="0" />
    <path
       d="m 442.42976,48.36291 h 11.69028 v 2.05093 h -9.33217 v 8.51375 h 8.85429 v 2.05103 h -8.85429 v 9.19672 h 9.74399 v 2.05112 h -12.1021 V 48.36291"
       id="path2971"
       style="fill:#000000;fill-opacity:1;fill-rule:nonzero;stroke:none"
       inkscape:connector-curvature="0" />
    <path
       d="m 461.951,54.7898 h 2.15363 V 72.22646 H 461.951 Z m 2.15363,-4.64946 H 461.951 v -2.8699 h 2.15363 v 2.8699"
       id="path2973"
       style="fill:#000000;fill-opacity:1;fill-rule:nonzero;stroke:none"
       inkscape:connector-curvature="0" />
    <path
       d="m 478.70253,70.79157 c 3.82848,0 5.16107,-4.10445 5.16107,-7.28344 0,-3.17898 -1.33259,-7.28134 -5.16107,-7.28134 -4.10221,0 -5.16335,3.89753 -5.16335,7.28134 0,3.38591 1.06114,7.28344 5.16335,7.28344 z m 7.31653,1.43489 h -2.15546 v -2.76967 h -0.0669 c -1.16315,2.22237 -2.94082,3.17898 -5.43671,3.17898 -4.78525,0 -7.17894,-3.96426 -7.17894,-9.12764 0,-5.29919 2.05113,-9.12764 7.17894,-9.12764 3.41885,0 5.12736,2.49602 5.43671,3.35027 h 0.0669 V 46.58539 h 2.15546 v 25.64107"
       id="path2975"
       style="fill:#000000;fill-opacity:1;fill-rule:nonzero;stroke:none"
       inkscape:connector-curvature="0" />
    <path
       d="m 500.24163,70.38002 c 3.89541,0 5.29867,-3.6929 5.29867,-6.87189 0,-4.20457 -1.23008,-7.28134 -5.16199,-7.28134 -4.10039,0 -5.16194,3.89753 -5.16194,7.28134 0,3.41925 1.36681,6.87189 5.02526,6.87189 z m 7.45372,0.41155 c 0,4.85414 -2.18695,8.8184 -8.16897,8.8184 -2.29173,0 -4.37835,-0.64957 -5.26682,-0.92323 l 0.16857,-2.15344 c 1.33492,0.68521 3.24845,1.23246 5.13014,1.23246 5.54009,0 6.01843,-4.03547 6.01843,-8.95869 h -0.0683 c -1.16174,2.52951 -3.07988,3.41939 -5.29866,3.41939 -5.57645,0 -7.35435,-4.85429 -7.35435,-8.71833 0,-5.29919 2.05117,-9.12764 7.18126,-9.12764 2.32354,0 3.82703,0.307 5.4353,2.39371 h 0.0684 v -1.9844 h 2.15505 v 16.00177"
       id="path2977"
       style="fill:#000000;fill-opacity:1;fill-rule:nonzero;stroke:none"
       inkscape:connector-curvature="0" />
    <path
       d="m 526.18827,62.27791 c 0,-3.04327 -1.23012,-6.05112 -4.44214,-6.05112 -3.1801,0 -5.13014,3.17914 -5.13014,6.05112 z m 1.06158,9.40125 c -1.50352,0.61628 -3.4535,0.95661 -5.06178,0.95661 -5.77706,0 -7.9274,-3.89752 -7.9274,-9.12764 0,-5.33242 2.93857,-9.12764 7.34879,-9.12764 4.92042,0 6.93882,3.96651 6.93882,8.64936 v 1.09451 h -11.93229 c 0,3.6929 1.98644,6.66721 5.74531,6.66721 1.57172,0 3.86342,-0.64973 4.88855,-1.2992 v 2.18679"
       id="path2979"
       style="fill:#000000;fill-opacity:1;fill-rule:nonzero;stroke:none"
       inkscape:connector-curvature="0" />
    <path
       d="m 535.31856,58.89425 c 0,-1.33477 0,-2.70065 -0.13667,-4.10445 h 2.08676 v 3.1123 h 0.0682 c 0.71528,-1.57284 2.01376,-3.52161 5.64039,-3.52161 4.31005,0 5.94575,2.87199 5.94575,6.7006 V 72.22646 H 546.7725 V 61.62834 c 0,-3.28134 -1.16185,-5.40155 -4.13692,-5.40155 -3.93184,0 -5.16206,3.45274 -5.16206,6.35812 v 9.64155 h -2.15497 V 58.89425"
       id="path2981"
       style="fill:#000000;fill-opacity:1;fill-rule:nonzero;stroke:none"
       inkscape:connector-curvature="0" />
    <path
       d="m 563.79829,70.79157 c 3.75876,0 5.77711,-3.24796 5.77711,-7.28344 0,-4.03323 -2.01835,-7.28134 -5.77711,-7.28134 -3.76325,0 -5.7815,3.24811 -5.7815,7.28134 0,4.03548 2.01825,7.28344 5.7815,7.28344 z m 0,-16.41108 c 5.64044,0 8.13707,4.37586 8.13707,9.12764 0,4.75178 -2.49663,9.12764 -8.13707,9.12764 -5.64034,0 -8.13702,-4.37586 -8.13702,-9.12764 0,-4.75178 2.49668,-9.12764 8.13702,-9.12764"
       id="path2983"
       style="fill:#000000;fill-opacity:1;fill-rule:nonzero;stroke:none"
       inkscape:connector-curvature="0" />
    <path
       d="m 577.33431,69.697 c 1.29843,0.64962 2.87485,1.09457 4.5469,1.09457 2.05026,0 3.86347,-1.13025 3.86347,-3.11241 0,-4.13544 -8.37392,-3.48582 -8.37392,-8.54684 0,-3.45269 2.8019,-4.75183 5.6722,-4.75183 0.92491,0 2.77009,0.20453 4.30551,0.78752 l -0.2005,1.87984 c -1.12979,-0.51391 -2.66527,-0.82106 -3.86357,-0.82106 -2.22329,0 -3.7632,0.68306 -3.7632,2.90553 0,3.24796 8.58349,2.8386 8.58349,8.54684 0,3.693 -3.45345,4.95661 -6.08686,4.95661 -1.67659,0 -3.34869,-0.20483 -4.8886,-0.81866 l 0.20508,-2.12011"
       id="path2985"
       style="fill:#000000;fill-opacity:1;fill-rule:nonzero;stroke:none"
       inkscape:connector-curvature="0" />
    <path
       d="m 593.29866,69.697 c 1.29843,0.64962 2.87479,1.09457 4.54684,1.09457 2.05027,0 3.86353,-1.13025 3.86353,-3.11241 0,-4.13544 -8.37851,-3.48582 -8.37851,-8.54684 0,-3.45269 2.80643,-4.75183 5.67684,-4.75183 0.92481,0 2.77003,0.20453 4.30546,0.78752 l -0.20504,1.87984 c -1.12535,-0.51391 -2.66073,-0.82106 -3.85893,-0.82106 -2.22339,0 -3.76335,0.68306 -3.76335,2.90553 0,3.24796 8.58359,2.8386 8.58359,8.54684 0,3.693 -3.45345,4.95661 -6.08686,4.95661 -1.67664,0 -3.34864,-0.20483 -4.88871,-0.81866 l 0.20514,-2.12011"
       id="path2987"
       style="fill:#000000;fill-opacity:1;fill-rule:nonzero;stroke:none"
       inkscape:connector-curvature="0" />
    <path
       d="m 621.23185,62.27791 c 0,-3.04327 -1.23486,-6.05112 -4.44673,-6.05112 -3.18025,0 -5.13024,3.17914 -5.13024,6.05112 z m 1.05678,9.40125 c -1.50341,0.61628 -3.44886,0.95661 -5.05714,0.95661 -5.77706,0 -7.93208,-3.89752 -7.93208,-9.12764 0,-5.33242 2.93867,-9.12764 7.34894,-9.12764 4.925,0 6.94335,3.96651 6.94335,8.64936 v 1.09451 h -11.93682 c 0,3.6929 1.98644,6.66721 5.74515,6.66721 1.57183,0 3.86358,-0.64973 4.8886,-1.2992 v 2.18679"
       id="path2989"
       style="fill:#000000;fill-opacity:1;fill-rule:nonzero;stroke:none"
       inkscape:connector-curvature="0" />
    <path
       d="m 630.35745,58.89425 c 0,-1.33477 0,-2.70065 -0.13673,-4.10445 h 2.08661 v 3.1123 h 0.0684 c 0.71544,-1.57284 2.01382,-3.52161 5.64044,-3.52161 4.30541,0 5.94555,2.87199 5.94555,6.7006 v 11.14537 h -2.15043 V 61.62834 c 0,-3.28134 -1.16181,-5.40155 -4.13683,-5.40155 -3.93188,0 -5.16205,3.45274 -5.16205,6.35812 v 9.64155 h -2.15492 V 58.89425"
       id="path2991"
       style="fill:#000000;fill-opacity:1;fill-rule:nonzero;stroke:none"
       inkscape:connector-curvature="0" />
    <path
       d="m 650.70015,69.697 c 1.29843,0.64962 2.87026,1.09457 4.5469,1.09457 2.05026,0 3.85899,-1.13025 3.85899,-3.11241 0,-4.13544 -8.37403,-3.48582 -8.37403,-8.54684 0,-3.45269 2.8019,-4.75183 5.67674,-4.75183 0.92037,0 2.77008,0.20453 4.30556,0.78752 l -0.20508,1.87984 c -1.12536,-0.51391 -2.66532,-0.82106 -3.86353,-0.82106 -2.2188,0 -3.75871,0.68306 -3.75871,2.90553 0,3.24796 8.58359,2.8386 8.58359,8.54684 0,3.693 -3.45809,4.95661 -6.08686,4.95661 -1.67664,0 -3.35328,-0.20483 -4.89324,-0.81866 l 0.20967,-2.12011"
       id="path2993"
       style="fill:#000000;fill-opacity:1;fill-rule:nonzero;stroke:none"
       inkscape:connector-curvature="0" />
    <path
       d="m 679.34842,57.11458 c -1.16176,-0.51167 -2.565,-0.88779 -3.7268,-0.88779 -4.20534,0 -6.5653,3.04328 -6.5653,7.28134 0,3.96651 2.39197,7.28344 6.32376,7.28344 1.37148,0 2.63341,-0.30924 3.93642,-0.78752 l 0.20045,2.01774 c -1.46701,0.51162 -2.83839,0.61398 -4.47389,0.61398 -5.60853,0 -8.3467,-4.27349 -8.3467,-9.12764 0,-5.36806 3.45335,-9.12764 8.62,-9.12764 2.08212,0 3.58559,0.47829 4.20059,0.68296 l -0.16853,2.05113"
       id="path2995"
       style="fill:#000000;fill-opacity:1;fill-rule:nonzero;stroke:none"
       inkscape:connector-curvature="0" />
    <path
       d="m 685.84535,46.58539 h 2.15044 v 11.14537 h 0.0684 c 0.9248,-1.91313 2.87484,-3.35027 5.43525,-3.35027 4.68372,0 5.95029,3.11225 5.95029,7.41914 v 10.42683 h -2.15054 V 61.83287 c 0,-3.00759 -0.58315,-5.60608 -4.13687,-5.60608 -3.83156,0 -5.16649,3.62392 -5.16649,6.6672 v 9.33247 h -2.15044 V 46.58539"
       id="path2997"
       style="fill:#000000;fill-opacity:1;fill-rule:nonzero;stroke:none"
       inkscape:connector-curvature="0" />
    <path
       d="M 717.32747,63.43916 H 716.717 c -3.73129,0 -8.16898,0.37821 -8.16898,4.20666 0,2.2891 1.63565,3.14575 3.61745,3.14575 5.06183,0 5.162,-4.41145 5.162,-6.29124 z m 0.20509,5.98429 h -0.0638 c -0.95682,2.08447 -3.38972,3.21232 -5.54016,3.21232 -4.95702,0 -5.74505,-3.35032 -5.74505,-4.92306 0,-5.84416 6.22343,-6.11776 10.73388,-6.11776 h 0.41002 v -0.88998 c 0,-2.97421 -1.05694,-4.47818 -3.96375,-4.47818 -1.80872,0 -3.51723,0.40951 -5.13009,1.4349 v -2.08437 c 1.33508,-0.64957 3.59023,-1.19683 5.13009,-1.19683 4.30561,0 6.11883,1.94877 6.11883,6.49592 v 7.69279 c 0,1.40146 0,2.46039 0.17307,3.65726 h -2.12306 v -2.80301"
       id="path2999"
       style="fill:#000000;fill-opacity:1;fill-rule:nonzero;stroke:none"
       inkscape:connector-curvature="0" />
    <path
       d="m 728.74497,56.6363 h -3.51727 v -1.8465 h 3.51727 v -1.26356 c 0,-3.65731 0.13668,-7.35016 4.6197,-7.35016 0.67898,0 1.60384,0.10236 2.01386,0.34257 l -0.13667,1.87969 c -0.44653,-0.24011 -1.0935,-0.37581 -1.7085,-0.37581 -2.94321,0 -2.63346,3.17898 -2.63346,5.26345 v 1.50382 h 3.93193 v 1.8465 h -3.93193 v 15.59016 h -2.15493 V 56.6363"
       id="path3001"
       style="fill:#000000;fill-opacity:1;fill-rule:nonzero;stroke:none"
       inkscape:connector-curvature="0" />
    <path
       d="m 748.84614,56.6363 h -3.9638 v 11.28328 c 0,1.57279 0.58325,2.87199 2.3282,2.87199 0.82005,0 1.36684,-0.17129 1.97736,-0.41155 l 0.14116,1.77742 c -0.51478,0.20473 -1.57182,0.47833 -2.63335,0.47833 -3.82708,0 -3.96829,-2.63172 -3.96829,-5.81086 V 56.6363 h -3.417 v -1.8465 h 3.417 v -4.20452 l 2.15492,-0.75204 v 4.95656 h 3.9638 v 1.8465"
       id="path3003"
       style="fill:#000000;fill-opacity:1;fill-rule:nonzero;stroke:none"
       inkscape:connector-curvature="0" />
    <path
       d="m 191.67017,98.18586 c -1.50386,-0.78543 -3.65978,-1.02554 -5.33466,-1.02554 -6.18655,0 -9.67515,4.3756 -9.67515,10.29112 0,6.01539 3.386,10.28889 9.67515,10.28889 1.57283,0 3.96652,-0.20494 5.33466,-1.02554 l 0.13572,2.05123 c -1.2992,0.78727 -3.96457,1.02539 -5.47038,1.02539 -7.52147,0 -12.03285,-4.95646 -12.03285,-12.33997 0,-7.2481 4.64934,-12.34225 12.03285,-12.34225 1.40152,0 4.23989,0.24016 5.47038,0.88988 l -0.13572,2.18679"
       id="path3005"
       style="fill:#000000;fill-opacity:1;fill-rule:nonzero;stroke:none"
       inkscape:connector-curvature="0" />
    <path
       d="m 206.47281,117.94725 c 3.76187,0 5.7775,-3.24796 5.7775,-7.28374 0,-4.03298 -2.01563,-7.28093 -5.7775,-7.28093 -3.75959,0 -5.7776,3.24795 -5.7776,7.28093 0,4.03578 2.01801,7.28374 5.7776,7.28374 z m 0,-16.41133 c 5.64169,0 8.13744,4.37612 8.13744,9.12759 0,4.75193 -2.49575,9.1279 -8.13744,9.1279 -5.63955,0 -8.13571,-4.37597 -8.13571,-9.1279 0,-4.75147 2.49616,-9.12759 8.13571,-9.12759"
       id="path3007"
       style="fill:#000000;fill-opacity:1;fill-rule:nonzero;stroke:none"
       inkscape:connector-curvature="0" />
    <path
       d="m 221.34443,106.04963 c 0,-1.33447 0,-2.70039 -0.13568,-4.10414 h 2.08434 v 3.11225 h 0.069 c 0.71657,-1.5727 2.01549,-3.52182 5.63941,-3.52182 4.30896,0 5.94877,2.87225 5.94877,6.70055 V 119.382 h -2.15368 v -10.59828 c 0,-3.28119 -1.16129,-5.40114 -4.13547,-5.40114 -3.93327,0 -5.16335,3.45248 -5.16335,6.35801 v 9.64141 h -2.15332 v -13.33237"
       id="path3009"
       style="fill:#000000;fill-opacity:1;fill-rule:nonzero;stroke:none"
       inkscape:connector-curvature="0" />
    <path
       d="m 244.48917,103.79163 h -3.52131 v -1.84614 h 3.52131 v -1.26387 c 0,-3.65716 0.13586,-7.35016 4.61403,-7.35016 0.68505,0 1.60869,0.10251 2.01773,0.34038 l -0.13572,1.88203 c -0.44463,-0.24016 -1.09436,-0.37581 -1.71084,-0.37581 -2.9386,0 -2.63148,3.17908 -2.63148,5.26345 v 1.50398 h 3.93091 v 1.84614 h -3.93091 V 119.382 h -2.15372 v -15.59037"
       id="path3011"
       style="fill:#000000;fill-opacity:1;fill-rule:nonzero;stroke:none"
       inkscape:connector-curvature="0" />
    <path
       d="m 264.11301,95.21125 h 2.70035 l -4.30681,4.92327 h -1.57279 z m 3.58819,14.2222 c 0,-3.04313 -1.23049,-6.05087 -4.44245,-6.05087 -3.18148,0 -5.13009,3.17913 -5.13009,6.05087 z m 1.06115,9.40124 c -1.50386,0.61608 -3.45248,0.95672 -5.0613,0.95672 -5.7771,0 -7.93064,-3.89753 -7.93064,-9.1279 0,-5.33242 2.94078,-9.12759 7.35029,-9.12759 4.92316,0 6.94071,3.96661 6.94071,8.64956 v 1.09442 h -11.93275 c 0,3.69269 1.98406,6.66735 5.74383,6.66735 1.57266,0 3.86438,-0.64962 4.88986,-1.29934 v 2.18678"
       id="path3013"
       style="fill:#000000;fill-opacity:1;fill-rule:nonzero;stroke:none"
       inkscape:connector-curvature="0" />
    <path
       d="m 283.32475,117.94725 c 3.82857,0 5.16121,-4.1046 5.16121,-7.28374 0,-3.17873 -1.33264,-7.28093 -5.16121,-7.28093 -4.10216,0 -5.16331,3.89773 -5.16331,7.28093 0,3.38606 1.06115,7.28374 5.16331,7.28374 z m 7.31658,1.43475 h -2.15537 v -2.76968 h -0.067 c -1.16361,2.22237 -2.94092,3.17909 -5.43667,3.17909 -4.78529,0 -7.17898,-3.96457 -7.17898,-9.1279 0,-5.29863 2.05103,-9.12759 7.17898,-9.12759 3.41926,0 5.12777,2.49628 5.43667,3.35053 h 0.067 V 93.74107 h 2.15537 V 119.382"
       id="path3015"
       style="fill:#000000;fill-opacity:1;fill-rule:nonzero;stroke:none"
       inkscape:connector-curvature="0" />
    <path
       d="m 305.54639,95.21125 h 2.70077 l -4.30905,4.92327 h -1.57092 z m 3.58838,14.2222 c 0,-3.04313 -1.23013,-6.05087 -4.44264,-6.05087 -3.18106,0 -5.13004,3.17913 -5.13004,6.05087 z m 1.06101,9.40124 c -1.50386,0.61608 -3.45247,0.95672 -5.0608,0.95672 -5.77741,0 -7.9311,-3.89753 -7.9311,-9.1279 0,-5.33242 2.94133,-9.12759 7.35025,-9.12759 4.92316,0 6.94103,3.96661 6.94103,8.64956 v 1.09442 h -11.93307 c 0,3.69269 1.98465,6.66735 5.74433,6.66735 1.57261,0 3.86388,-0.64962 4.88936,-1.29934 v 2.18678"
       id="path3017"
       style="fill:#000000;fill-opacity:1;fill-rule:nonzero;stroke:none"
       inkscape:connector-curvature="0" />
    <path
       d="m 318.26456,105.84291 c 0,-1.91318 0,-2.63178 -0.13577,-3.89742 h 2.15368 v 3.35236 h 0.0665 c 0.78774,-1.94861 2.25797,-3.76193 4.4804,-3.76193 0.5116,0 1.12807,0.10257 1.5039,0.20463 v 2.25785 c -0.44508,-0.13749 -1.02556,-0.20677 -1.57265,-0.20677 -3.41935,0 -4.3424,3.82891 -4.3424,6.97435 v 8.61602 h -2.15368 v -13.53909"
       id="path3019"
       style="fill:#000000;fill-opacity:1;fill-rule:nonzero;stroke:none"
       inkscape:connector-curvature="0" />
    <path
       d="m 342.12819,110.59709 h -0.61643 c -3.72597,0 -8.17083,0.37581 -8.17083,4.20426 0,2.28941 1.64158,3.1459 3.62391,3.1459 5.05852,0 5.16335,-4.4116 5.16335,-6.29139 z m 0.20452,5.98194 h -0.0688 c -0.95673,2.08452 -3.38373,3.21238 -5.53918,3.21238 -4.95656,0 -5.74193,-3.35038 -5.74193,-4.92307 0,-5.8441 6.22213,-6.11801 10.73397,-6.11801 h 0.41141 v -0.88968 c 0,-2.9742 -1.06115,-4.47807 -3.96643,-4.47807 -1.81335,0 -3.52186,0.40905 -5.12791,1.43464 v -2.08437 c 1.33268,-0.64972 3.58842,-1.19693 5.12791,-1.19693 4.30681,0 6.11962,1.94912 6.11962,6.49617 v 7.69269 c 0,1.40141 0,2.46034 0.17125,3.65722 h -2.11992 v -2.80297"
       id="path3021"
       style="fill:#000000;fill-opacity:1;fill-rule:nonzero;stroke:none"
       inkscape:connector-curvature="0" />
    <path
       d="m 359.59598,103.79163 h -3.96639 v 11.28348 c 0,1.5728 0.58266,2.87214 2.32444,2.87214 0.821,0 1.36818,-0.17134 1.98461,-0.41186 l 0.13577,1.77773 c -0.51169,0.20468 -1.57325,0.47829 -2.63211,0.47829 -3.82835,0 -3.96644,-2.63198 -3.96644,-5.81071 v -10.18907 h -3.41917 v -1.84614 h 3.41917 v -4.20468 l 2.15373,-0.75178 v 4.95646 h 3.96639 v 1.84614"
       id="path3023"
       style="fill:#000000;fill-opacity:1;fill-rule:nonzero;stroke:none"
       inkscape:connector-curvature="0" />
    <path
       d="m 366.12532,101.94549 h 2.15309 V 119.382 h -2.15309 z m 2.15309,-4.64937 h -2.15309 v -2.86984 h 2.15309 v 2.86984"
       id="path3025"
       style="fill:#000000;fill-opacity:1;fill-rule:nonzero;stroke:none"
       inkscape:connector-curvature="0" />
    <path
       d="m 383.18347,117.94725 c 3.76192,0 5.77755,-3.24796 5.77755,-7.28374 0,-4.03298 -2.01563,-7.28093 -5.77755,-7.28093 -3.75963,0 -5.777,3.24795 -5.777,7.28093 0,4.03578 2.01737,7.28374 5.777,7.28374 z m 0,-16.41133 c 5.64183,0 8.13803,4.37612 8.13803,9.12759 0,4.75193 -2.4962,9.1279 -8.13803,9.1279 -5.63945,0 -8.13521,-4.37597 -8.13521,-9.1279 0,-4.75147 2.49576,-9.12759 8.13521,-9.12759"
       id="path3027"
       style="fill:#000000;fill-opacity:1;fill-rule:nonzero;stroke:none"
       inkscape:connector-curvature="0" />
    <path
       d="m 398.05527,106.04963 c 0,-1.33447 0,-2.70039 -0.13576,-4.10414 h 2.08442 v 3.11225 h 0.0692 c 0.7163,-1.5727 2.01514,-3.52182 5.63905,-3.52182 4.3091,0 5.94886,2.87225 5.94886,6.70055 V 119.382 h -2.15327 v -10.59828 c 0,-3.28119 -1.16125,-5.40114 -4.13597,-5.40114 -3.93272,0 -5.16331,3.45248 -5.16331,6.35801 v 9.64141 h -2.15323 v -13.33237"
       id="path3029"
       style="fill:#000000;fill-opacity:1;fill-rule:nonzero;stroke:none"
       inkscape:connector-curvature="0" />
    <path
       d="m 430.22775,116.85243 c 1.29938,0.64973 2.87212,1.09482 4.54733,1.09482 2.05112,0 3.86174,-1.1304 3.86174,-3.1123 0,-4.1354 -8.37586,-3.48613 -8.37586,-8.54715 0,-3.45248 2.80342,-4.75188 5.67504,-4.75188 0.92351,0 2.77007,0.20463 4.30723,0.78553 l -0.20502,1.88204 c -1.12762,-0.51392 -2.66473,-0.82091 -3.8616,-0.82091 -2.22248,0 -3.76197,0.68286 -3.76197,2.90522 0,3.24811 8.58261,2.8385 8.58261,8.54715 0,3.69275 -3.45479,4.95646 -6.08686,4.95646 -1.67475,0 -3.35,-0.20494 -4.88944,-0.81867 l 0.2068,-2.12031"
       id="path3031"
       style="fill:#000000;fill-opacity:1;fill-rule:nonzero;stroke:none"
       inkscape:connector-curvature="0" />
    <path
       d="m 461.12995,115.27979 c 0,1.33253 0,2.70065 0.13801,4.10221 h -2.08662 v -3.11006 h -0.067 c -0.71849,1.5706 -2.01746,3.51947 -5.64124,3.51947 -4.30736,0 -5.94886,-2.87209 -5.94886,-6.70055 v -11.14537 h 2.15364 v 10.59781 c 0,3.28354 1.16315,5.40395 4.13774,5.40395 3.93099,0 5.16117,-3.45488 5.16117,-6.36026 v -9.6415 h 2.15313 v 13.3343"
       id="path3033"
       style="fill:#000000;fill-opacity:1;fill-rule:nonzero;stroke:none"
       inkscape:connector-curvature="0" />
    <path
       d="m 469.19869,101.94549 h 2.15364 V 119.382 h -2.15364 z m 2.15364,-4.64937 h -2.15364 v -2.86984 h 2.15364 v 2.86984"
       id="path3035"
       style="fill:#000000;fill-opacity:1;fill-rule:nonzero;stroke:none"
       inkscape:connector-curvature="0" />
    <path
       d="m 478.12163,116.85243 c 1.29939,0.64973 2.87213,1.09482 4.54742,1.09482 2.05118,0 3.8617,-1.1304 3.8617,-3.1123 0,-4.1354 -8.37581,-3.48613 -8.37581,-8.54715 0,-3.45248 2.80337,-4.75188 5.67495,-4.75188 0.92355,0 2.77006,0.20463 4.30736,0.78553 l -0.20502,1.88204 c -1.12766,-0.51392 -2.66487,-0.82091 -3.86179,-0.82091 -2.22243,0 -3.76191,0.68286 -3.76191,2.90522 0,3.24811 8.58042,2.8385 8.58042,8.54715 0,3.69275 -3.45261,4.95646 -6.08412,4.95646 -1.6753,0 -3.35056,-0.20494 -4.88772,-0.81867 l 0.20452,-2.12031"
       id="path3037"
       style="fill:#000000;fill-opacity:1;fill-rule:nonzero;stroke:none"
       inkscape:connector-curvature="0" />
    <path
       d="m 494.0878,116.85243 c 1.30166,0.64973 2.87348,1.09482 4.55011,1.09482 2.05021,0 3.85896,-1.1304 3.85896,-3.1123 0,-4.1354 -8.37577,-3.48613 -8.37577,-8.54715 0,-3.45248 2.80379,-4.75188 5.67859,-4.75188 0.92032,0 2.77012,0.20463 4.30546,0.78553 l -0.20502,1.88204 c -1.12534,-0.51392 -2.66524,-0.82091 -3.86348,-0.82091 -2.21879,0 -3.75873,0.68286 -3.75873,2.90522 0,3.24811 8.58353,2.8385 8.58353,8.54715 0,3.69275 -3.45799,4.95646 -6.08686,4.95646 -1.67662,0 -3.3532,-0.20494 -4.89364,-0.81867 l 0.20685,-2.12031"
       id="path3039"
       style="fill:#000000;fill-opacity:1;fill-rule:nonzero;stroke:none"
       inkscape:connector-curvature="0" />
    <path
       d="m 522.01948,109.43345 c 0,-3.04313 -1.23011,-6.05087 -4.44208,-6.05087 -3.18469,0 -5.13011,3.17913 -5.13011,6.05087 z m 1.06158,9.40124 c -1.5081,0.61608 -3.45355,0.95672 -5.06178,0.95672 -5.77701,0 -7.93206,-3.89753 -7.93206,-9.1279 0,-5.33242 2.94318,-9.12759 7.34892,-9.12759 4.92516,0 6.9433,3.96661 6.9433,8.64956 v 1.09442 h -11.93215 c 0,3.69269 1.98182,6.66735 5.74053,6.66735 1.57636,0 3.86358,-0.64962 4.89324,-1.29934 v 2.18678"
       id="path3041"
       style="fill:#000000;fill-opacity:1;fill-rule:nonzero;stroke:none"
       inkscape:connector-curvature="0" />
    <path
       d="m 191.67017,145.34123 c -1.50386,-0.78537 -3.65978,-1.02553 -5.33466,-1.02553 -6.18655,0 -9.67515,4.3757 -9.67515,10.29112 0,6.01554 3.386,10.28904 9.67515,10.28904 1.57283,0 3.96652,-0.20509 5.33466,-1.02569 l 0.13572,2.05123 c -1.2992,0.78721 -3.96457,1.02554 -5.47038,1.02554 -7.52147,0 -12.03285,-4.95646 -12.03285,-12.34012 0,-7.2481 4.64934,-12.3422 12.03285,-12.3422 1.40152,0 4.23989,0.23791 5.47038,0.88743 l -0.13572,2.18918"
       id="path3043"
       style="fill:#000000;fill-opacity:1;fill-rule:nonzero;stroke:none"
       inkscape:connector-curvature="0" />
    <path
       d="m 206.47281,165.10258 c 3.76187,0 5.7775,-3.24796 5.7775,-7.28369 0,-4.03293 -2.01563,-7.28088 -5.7775,-7.28088 -3.75959,0 -5.7776,3.24795 -5.7776,7.28088 0,4.03573 2.01801,7.28369 5.7776,7.28369 z m 0,-16.41118 c 5.64169,0 8.13744,4.37597 8.13744,9.12749 0,4.75193 -2.49575,9.12805 -8.13744,9.12805 -5.63955,0 -8.13571,-4.37612 -8.13571,-9.12805 0,-4.75152 2.49616,-9.12749 8.13571,-9.12749"
       id="path3045"
       style="fill:#000000;fill-opacity:1;fill-rule:nonzero;stroke:none"
       inkscape:connector-curvature="0" />
    <path
       d="m 221.34443,153.20506 c 0,-1.33452 0,-2.70044 -0.13568,-4.1042 h 2.08434 v 3.11226 h 0.069 c 0.71657,-1.57265 2.01549,-3.52172 5.63941,-3.52172 4.30896,0 5.94877,2.87199 5.94877,6.7006 v 11.14538 h -2.15368 V 155.9391 c 0,-3.2813 -1.16129,-5.40109 -4.13547,-5.40109 -3.93327,0 -5.16335,3.45248 -5.16335,6.35781 v 9.64156 h -2.15332 v -13.33232"
       id="path3047"
       style="fill:#000000;fill-opacity:1;fill-rule:nonzero;stroke:none"
       inkscape:connector-curvature="0" />
    <path
       d="m 244.48917,150.94706 h -3.52131 v -1.8462 h 3.52131 v -1.26371 c 0,-3.65716 0.13586,-7.35031 4.61403,-7.35031 0.68505,0 1.60869,0.10246 2.01773,0.34262 l -0.13572,1.87995 c -0.44463,-0.24016 -1.09436,-0.37597 -1.71084,-0.37597 -2.9386,0 -2.63148,3.17913 -2.63148,5.2636 v 1.50382 h 3.93091 v 1.8462 h -3.93091 v 15.59032 h -2.15372 v -15.59032"
       id="path3049"
       style="fill:#000000;fill-opacity:1;fill-rule:nonzero;stroke:none"
       inkscape:connector-curvature="0" />
    <path
       d="m 267.7012,156.58867 c 0,-3.04343 -1.23049,-6.05066 -4.44245,-6.05066 -3.18148,0 -5.13009,3.17867 -5.13009,6.05066 z m 1.06115,9.40155 c -1.50386,0.61633 -3.45248,0.95672 -5.0613,0.95672 -5.7771,0 -7.93064,-3.89778 -7.93064,-9.12805 0,-5.33227 2.94078,-9.12749 7.35029,-9.12749 4.92316,0 6.94071,3.9664 6.94071,8.64962 v 1.09441 h -11.93275 c 0,3.69259 1.98406,6.66715 5.74383,6.66715 1.57266,0 3.86438,-0.64957 4.88986,-1.2993 v 2.18694"
       id="path3051"
       style="fill:#000000;fill-opacity:1;fill-rule:nonzero;stroke:none"
       inkscape:connector-curvature="0" />
    <path
       d="m 283.32475,165.10258 c 3.82857,0 5.16121,-4.1044 5.16121,-7.28369 0,-3.17868 -1.33264,-7.28088 -5.16121,-7.28088 -4.10216,0 -5.16331,3.89752 -5.16331,7.28088 0,3.38606 1.06115,7.28369 5.16331,7.28369 z m 7.31658,1.4348 h -2.15537 v -2.76968 h -0.067 c -1.16361,2.22252 -2.94092,3.17924 -5.43667,3.17924 -4.78529,0 -7.17898,-3.96467 -7.17898,-9.12805 0,-5.29873 2.05103,-9.12749 7.17898,-9.12749 3.41926,0 5.12777,2.49618 5.43667,3.35043 h 0.067 v -11.14538 h 2.15537 v 25.64093"
       id="path3053"
       style="fill:#000000;fill-opacity:1;fill-rule:nonzero;stroke:none"
       inkscape:connector-curvature="0" />
    <path
       d="m 309.13477,156.58867 c 0,-3.04343 -1.23013,-6.05066 -4.44264,-6.05066 -3.18106,0 -5.13004,3.17867 -5.13004,6.05066 z m 1.06101,9.40155 c -1.50386,0.61633 -3.45247,0.95672 -5.0608,0.95672 -5.77741,0 -7.9311,-3.89778 -7.9311,-9.12805 0,-5.33227 2.94133,-9.12749 7.35025,-9.12749 4.92316,0 6.94103,3.9664 6.94103,8.64962 v 1.09441 h -11.93307 c 0,3.69259 1.98465,6.66715 5.74433,6.66715 1.57261,0 3.86388,-0.64957 4.88936,-1.2993 v 2.18694"
       id="path3055"
       style="fill:#000000;fill-opacity:1;fill-rule:nonzero;stroke:none"
       inkscape:connector-curvature="0" />
    <path
       d="m 318.26456,152.99819 c 0,-1.91308 0,-2.63152 -0.13577,-3.89733 h 2.15368 v 3.35017 h 0.0665 c 0.78774,-1.94641 2.25797,-3.75963 4.4804,-3.75963 0.5116,0 1.12807,0.10252 1.5039,0.20458 v 2.25795 c -0.44508,-0.13764 -1.02556,-0.20687 -1.57265,-0.20687 -3.41935,0 -4.3424,3.8312 -4.3424,6.9743 v 8.61602 h -2.15368 v -13.53919"
       id="path3057"
       style="fill:#000000;fill-opacity:1;fill-rule:nonzero;stroke:none"
       inkscape:connector-curvature="0" />
    <path
       d="m 342.12819,157.75007 h -0.61643 c -3.72597,0 -8.17083,0.37821 -8.17083,4.20661 0,2.28946 1.64158,3.1459 3.62391,3.1459 5.05852,0 5.16335,-4.41155 5.16335,-6.29134 z m 0.20452,5.98439 h -0.0688 c -0.95673,2.08432 -3.38373,3.21248 -5.53918,3.21248 -4.95656,0 -5.74193,-3.35053 -5.74193,-4.92322 0,-5.8441 6.22213,-6.11786 10.73397,-6.11786 h 0.41141 v -0.88968 c 0,-2.97435 -1.06115,-4.47817 -3.96643,-4.47817 -1.81335,0 -3.52186,0.40905 -5.12791,1.43474 v -2.08447 c 1.33268,-0.64977 3.58842,-1.19688 5.12791,-1.19688 4.30681,0 6.11962,1.94907 6.11962,6.49587 v 7.69294 c 0,1.40151 0,2.46029 0.17125,3.65717 h -2.11992 v -2.80292"
       id="path3059"
       style="fill:#000000;fill-opacity:1;fill-rule:nonzero;stroke:none"
       inkscape:connector-curvature="0" />
    <path
       d="m 350.46847,164.72682 10.49569,-13.77976 h -10.08652 v -1.8462 h 12.58012 v 1.8462 l -10.4935,13.74371 h 10.4935 v 1.84661 h -12.98929 v -1.81056"
       id="path3061"
       style="fill:#000000;fill-opacity:1;fill-rule:nonzero;stroke:none"
       inkscape:connector-curvature="0" />
    <path
       d="m 369.92045,149.10086 h 2.15359 v 17.43652 h -2.15359 z m 2.15359,-4.64946 h -2.15359 v -2.86975 h 2.15359 v 2.86975"
       id="path3063"
       style="fill:#000000;fill-opacity:1;fill-rule:nonzero;stroke:none"
       inkscape:connector-curvature="0" />
    <path
       d="m 386.97865,165.10258 c 3.76191,0 5.77759,-3.24796 5.77759,-7.28369 0,-4.03293 -2.01568,-7.28088 -5.77759,-7.28088 -3.7596,0 -5.77701,3.24795 -5.77701,7.28088 0,4.03573 2.01741,7.28369 5.77701,7.28369 z m 0,-16.41118 c 5.64183,0 8.13803,4.37597 8.13803,9.12749 0,4.75193 -2.4962,9.12805 -8.13803,9.12805 -5.63946,0 -8.13521,-4.37612 -8.13521,-9.12805 0,-4.75152 2.49575,-9.12749 8.13521,-9.12749"
       id="path3065"
       style="fill:#000000;fill-opacity:1;fill-rule:nonzero;stroke:none"
       inkscape:connector-curvature="0" />
    <path
       d="m 401.8505,153.20506 c 0,-1.33452 0,-2.70044 -0.13587,-4.1042 h 2.08444 v 3.11226 h 0.0693 c 0.71621,-1.57265 2.01509,-3.52172 5.63942,-3.52172 4.30918,0 5.9484,2.87199 5.9484,6.7006 v 11.14538 H 413.303 V 155.9391 c 0,-3.2813 -1.16133,-5.40109 -4.13556,-5.40109 -3.93322,0 -5.16376,3.45248 -5.16376,6.35781 v 9.64156 h -2.15318 v -13.33232"
       id="path3067"
       style="fill:#000000;fill-opacity:1;fill-rule:nonzero;stroke:none"
       inkscape:connector-curvature="0" />
    <path
       d="m 434.15637,156.58867 c 0,-3.04343 -1.23008,-6.05066 -4.44259,-6.05066 -3.18093,0 -5.13005,3.17867 -5.13005,6.05066 z m 1.06114,9.40155 c -1.50399,0.61633 -3.45256,0.95672 -5.06088,0.95672 -5.7775,0 -7.93064,-3.89778 -7.93064,-9.12805 0,-5.33227 2.94087,-9.12749 7.34979,-9.12749 4.92325,0 6.94112,3.9664 6.94112,8.64962 v 1.09441 h -11.93317 c 0,3.69259 1.98456,6.66715 5.74425,6.66715 1.57274,0 3.86393,-0.64957 4.88953,-1.2993 v 2.18694"
       id="path3069"
       style="fill:#000000;fill-opacity:1;fill-rule:nonzero;stroke:none"
       inkscape:connector-curvature="0" />
    <path
       d="m 454.70554,163.49395 c 1.40134,0.89024 3.0411,1.40191 5.26308,1.40191 2.94087,0 5.36837,-1.50397 5.36837,-4.88779 0,-4.68489 -10.94085,-5.2658 -10.94085,-11.52135 0,-3.8284 3.3505,-6.2221 7.55704,-6.2221 1.16134,0 3.04125,0.17129 4.68274,0.78497 l -0.37592,2.15599 c -1.05877,-0.58274 -2.73626,-0.88988 -4.34226,-0.88988 -2.46076,0 -5.16112,1.02553 -5.16112,4.10236 0,4.787 10.93812,4.8206 10.93812,11.79454 0,4.8209 -4.13551,6.73434 -7.82817,6.73434 -2.32495,0 -4.13551,-0.47828 -5.40168,-1.02554 l 0.24065,-2.42745"
       id="path3071"
       style="fill:#000000;fill-opacity:1;fill-rule:nonzero;stroke:none"
       inkscape:connector-curvature="0" />
    <path
       d="m 480.92501,166.53738 h -2.52947 l -5.91559,-17.43652 h 2.36043 l 4.82078,15.07839 h 0.067 l 5.0608,-15.07839 h 2.25569 l -6.11966,17.43652"
       id="path3073"
       style="fill:#000000;fill-opacity:1;fill-rule:nonzero;stroke:none"
       inkscape:connector-curvature="0" />
    <path
       d="m 492.71962,149.10086 h 2.15505 v 17.43652 h -2.15505 z m 2.15505,-4.64946 h -2.15505 v -2.86975 h 2.15505 v 2.86975"
       id="path3075"
       style="fill:#000000;fill-opacity:1;fill-rule:nonzero;stroke:none"
       inkscape:connector-curvature="0" />
    <path
       d="m 501.37157,164.72682 10.4971,-13.77976 h -10.0871 v -1.8462 h 12.57922 v 1.8462 l -10.4926,13.74371 h 10.4926 v 1.84661 h -12.98922 v -1.81056"
       id="path3077"
       style="fill:#000000;fill-opacity:1;fill-rule:nonzero;stroke:none"
       inkscape:connector-curvature="0" />
    <path
       d="m 519.21754,164.72682 10.49713,-13.77976 h -10.08716 v -1.8462 h 12.57931 v 1.8462 l -10.4926,13.74371 h 10.4926 v 1.84661 h -12.98928 v -1.81056"
       id="path3079"
       style="fill:#000000;fill-opacity:1;fill-rule:nonzero;stroke:none"
       inkscape:connector-curvature="0" />
    <path
       d="m 549.29642,156.58867 c 0,-3.04343 -1.23007,-6.05066 -4.44208,-6.05066 -3.18011,0 -5.1301,3.17867 -5.1301,6.05066 z m 1.06173,9.40155 c -1.50351,0.61633 -3.44891,0.95672 -5.05724,0.95672 -5.78165,0 -7.93209,-3.89778 -7.93209,-9.12805 0,-5.33227 2.93862,-9.12749 7.34884,-9.12749 4.92506,0 6.93887,3.9664 6.93887,8.64962 v 1.09441 h -11.93229 c 0,3.69259 1.98644,6.66715 5.7452,6.66715 1.57183,0 3.86348,-0.64957 4.88871,-1.2993 v 2.18694"
       id="path3081"
       style="fill:#000000;fill-opacity:1;fill-rule:nonzero;stroke:none"
       inkscape:connector-curvature="0" />
    <path
       d="m 558.42681,152.99819 c 0,-1.91308 0,-2.63152 -0.13214,-3.89733 h 2.15044 v 3.35017 h 0.0683 c 0.78824,-1.94641 2.2552,-3.75963 4.47859,-3.75963 0.51478,0 1.12989,0.10252 1.50351,0.20458 v 2.25795 c -0.44193,-0.13764 -1.02513,-0.20687 -1.57183,-0.20687 -3.41705,0 -4.34191,3.8312 -4.34191,6.9743 v 8.61602 h -2.15497 v -13.53919"
       id="path3083"
       style="fill:#000000;fill-opacity:1;fill-rule:nonzero;stroke:none"
       inkscape:connector-curvature="0" />
    <path
       d="m 582.29128,157.75007 h -0.61511 c -3.72685,0 -8.17347,0.37821 -8.17347,4.20661 0,2.28946 1.64468,3.1459 3.62653,3.1459 5.05719,0 5.16205,-4.41155 5.16205,-6.29134 z m 0.20504,5.98439 h -0.0684 c -0.95682,2.08432 -3.38515,3.21248 -5.54017,3.21248 -4.95692,0 -5.74056,-3.35053 -5.74056,-4.92322 0,-5.8441 6.22353,-6.11786 10.73398,-6.11786 h 0.41007 v -0.88968 c 0,-2.97435 -1.06158,-4.47817 -3.9638,-4.47817 -1.81331,0 -3.52181,0.40905 -5.13004,1.43474 v -2.08447 c 1.33488,-0.64977 3.59013,-1.19688 5.13004,-1.19688 4.30546,0 6.11877,1.94907 6.11877,6.49587 v 7.69294 c 0,1.40151 0,2.46029 0.16854,3.65717 h -2.11847 v -2.80292"
       id="path3085"
       style="fill:#000000;fill-opacity:1;fill-rule:nonzero;stroke:none"
       inkscape:connector-curvature="0" />
    <path
       d="m 191.67017,192.49442 c -1.50386,-0.78543 -3.65978,-1.02559 -5.33466,-1.02559 -6.18655,0 -9.67515,4.37561 -9.67515,10.29128 0,6.01529 3.386,10.28873 9.67515,10.28873 1.57283,0 3.96652,-0.20493 5.33466,-1.02538 l 0.13572,2.05097 c -1.2992,0.78737 -3.96457,1.0257 -5.47038,1.0257 -7.52147,0 -12.03285,-4.95662 -12.03285,-12.34002 0,-7.24785 4.64934,-12.34246 12.03285,-12.34246 1.40152,0 4.23989,0.23787 5.47038,0.88759 l -0.13572,2.18918"
       id="path3087"
       style="fill:#000000;fill-opacity:1;fill-rule:nonzero;stroke:none"
       inkscape:connector-curvature="0" />
    <path
       d="m 206.47281,212.25577 c 3.76187,0 5.7775,-3.24796 5.7775,-7.28369 0,-4.03298 -2.01563,-7.28104 -5.7775,-7.28104 -3.75959,0 -5.7776,3.24806 -5.7776,7.28104 0,4.03573 2.01801,7.28369 5.7776,7.28369 z m 0,-16.41133 c 5.64169,0 8.13744,4.37611 8.13744,9.12764 0,4.75193 -2.49575,9.12805 -8.13744,9.12805 -5.63955,0 -8.13571,-4.37612 -8.13571,-9.12805 0,-4.75153 2.49616,-9.12764 8.13571,-9.12764"
       id="path3089"
       style="fill:#000000;fill-opacity:1;fill-rule:nonzero;stroke:none"
       inkscape:connector-curvature="0" />
    <path
       d="m 221.34443,200.3586 c 0,-1.33487 0,-2.70085 -0.13568,-4.1044 h 2.08434 v 3.1121 h 0.069 c 0.71657,-1.57279 2.01549,-3.52186 5.63941,-3.52186 4.30896,0 5.94877,2.87224 5.94877,6.70059 v 11.14533 h -2.15368 v -10.59823 c 0,-3.28104 -1.16129,-5.40109 -4.13547,-5.40109 -3.93327,0 -5.16335,3.45259 -5.16335,6.35791 v 9.64141 h -2.15332 V 200.3586"
       id="path3091"
       style="fill:#000000;fill-opacity:1;fill-rule:nonzero;stroke:none"
       inkscape:connector-curvature="0" />
    <path
       d="m 244.48917,198.10004 h -3.52131 v -1.84584 h 3.52131 v -1.26401 c 0,-3.65717 0.13586,-7.35017 4.61403,-7.35017 0.68505,0 1.60869,0.10247 2.01773,0.34248 l -0.13572,1.87989 c -0.44463,-0.24011 -1.09436,-0.37577 -1.71084,-0.37577 -2.9386,0 -2.63148,3.17909 -2.63148,5.26346 v 1.50412 h 3.93091 v 1.84584 h -3.93091 v 15.59032 h -2.15372 v -15.59032"
       id="path3093"
       style="fill:#000000;fill-opacity:1;fill-rule:nonzero;stroke:none"
       inkscape:connector-curvature="0" />
    <path
       d="m 267.7012,203.74196 c 0,-3.04297 -1.23049,-6.05092 -4.44245,-6.05092 -3.18148,0 -5.13009,3.17924 -5.13009,6.05092 z m 1.06115,9.40129 c -1.50386,0.61649 -3.45248,0.95688 -5.0613,0.95688 -5.7771,0 -7.93064,-3.89769 -7.93064,-9.12805 0,-5.33243 2.94078,-9.12764 7.35029,-9.12764 4.92316,0 6.94071,3.96665 6.94071,8.64961 v 1.09436 h -11.93275 c 0,3.69275 1.98406,6.66736 5.74383,6.66736 1.57266,0 3.86438,-0.64973 4.88986,-1.2993 v 2.18678"
       id="path3095"
       style="fill:#000000;fill-opacity:1;fill-rule:nonzero;stroke:none"
       inkscape:connector-curvature="0" />
    <path
       d="m 283.32475,212.25577 c 3.82857,0 5.16121,-4.10461 5.16121,-7.28369 0,-3.17873 -1.33264,-7.28104 -5.16121,-7.28104 -4.10216,0 -5.16331,3.89768 -5.16331,7.28104 0,3.38606 1.06115,7.28369 5.16331,7.28369 z m 7.31658,1.43459 h -2.15537 v -2.76947 h -0.067 c -1.16361,2.22236 -2.94092,3.17924 -5.43667,3.17924 -4.78529,0 -7.17898,-3.96472 -7.17898,-9.12805 0,-5.29863 2.05103,-9.12764 7.17898,-9.12764 3.41926,0 5.12777,2.49632 5.43667,3.35057 h 0.067 v -11.14553 h 2.15537 v 25.64088"
       id="path3097"
       style="fill:#000000;fill-opacity:1;fill-rule:nonzero;stroke:none"
       inkscape:connector-curvature="0" />
    <path
       d="m 309.13477,203.74196 c 0,-3.04297 -1.23013,-6.05092 -4.44264,-6.05092 -3.18106,0 -5.13004,3.17924 -5.13004,6.05092 z m 1.06101,9.40129 c -1.50386,0.61649 -3.45247,0.95688 -5.0608,0.95688 -5.77741,0 -7.9311,-3.89769 -7.9311,-9.12805 0,-5.33243 2.94133,-9.12764 7.35025,-9.12764 4.92316,0 6.94103,3.96665 6.94103,8.64961 v 1.09436 h -11.93307 c 0,3.69275 1.98465,6.66736 5.74433,6.66736 1.57261,0 3.86388,-0.64973 4.88936,-1.2993 v 2.18678"
       id="path3099"
       style="fill:#000000;fill-opacity:1;fill-rule:nonzero;stroke:none"
       inkscape:connector-curvature="0" />
    <path
       d="m 318.26456,200.15132 c 0,-1.91307 0,-2.63162 -0.13577,-3.89712 h 2.15368 v 3.34997 h 0.0665 c 0.78774,-1.94642 2.25797,-3.75973 4.4804,-3.75973 0.5116,0 1.12807,0.10257 1.5039,0.20508 v 2.25801 c -0.44508,-0.13805 -1.02556,-0.20749 -1.57265,-0.20749 -3.41935,0 -4.3424,3.83126 -4.3424,6.9745 v 8.61582 h -2.15368 v -13.53904"
       id="path3101"
       style="fill:#000000;fill-opacity:1;fill-rule:nonzero;stroke:none"
       inkscape:connector-curvature="0" />
    <path
       d="m 342.12819,204.90321 h -0.61643 c -3.72597,0 -8.17083,0.37805 -8.17083,4.20666 0,2.28945 1.64158,3.1459 3.62391,3.1459 5.05852,0 5.16335,-4.4117 5.16335,-6.29139 z m 0.20452,5.98429 h -0.0688 c -0.95673,2.08447 -3.38373,3.21263 -5.53918,3.21263 -4.95656,0 -5.74193,-3.35058 -5.74193,-4.92328 0,-5.8442 6.22213,-6.11795 10.73397,-6.11795 h 0.41141 v -0.88968 c 0,-2.97421 -1.06115,-4.47818 -3.96643,-4.47818 -1.81335,0 -3.52186,0.409 -5.12791,1.43475 v -2.08437 c 1.33268,-0.64988 3.58842,-1.19698 5.12791,-1.19698 4.30681,0 6.11962,1.94907 6.11962,6.49601 v 7.6928 c 0,1.4015 0,2.46028 0.17125,3.65711 h -2.11992 v -2.80286"
       id="path3103"
       style="fill:#000000;fill-opacity:1;fill-rule:nonzero;stroke:none"
       inkscape:connector-curvature="0" />
    <path
       d="m 350.46847,211.87995 10.49569,-13.77991 h -10.08652 v -1.84584 h 12.58012 v 1.84584 l -10.4935,13.74387 h 10.4935 v 1.84645 h -12.98929 v -1.81041"
       id="path3105"
       style="fill:#000000;fill-opacity:1;fill-rule:nonzero;stroke:none"
       inkscape:connector-curvature="0" />
    <path
       d="m 369.92045,196.2542 h 2.15359 v 17.43616 h -2.15359 z m 2.15359,-4.64961 h -2.15359 v -2.86975 h 2.15359 v 2.86975"
       id="path3107"
       style="fill:#000000;fill-opacity:1;fill-rule:nonzero;stroke:none"
       inkscape:connector-curvature="0" />
    <path
       d="m 393.78176,209.5883 c 0,1.33259 0,2.7007 0.13801,4.10206 h -2.08663 v -3.10986 h -0.0669 c -0.71849,1.57056 -2.01796,3.51963 -5.64183,3.51963 -4.30677,0 -5.94827,-2.8699 -5.94827,-6.70055 V 196.2542 h 2.1531 v 10.59767 c 0,3.28354 1.16365,5.4039 4.13779,5.4039 3.93099,0 5.16111,-3.45483 5.16111,-6.36031 v -9.64126 h 2.15364 v 13.3341"
       id="path3109"
       style="fill:#000000;fill-opacity:1;fill-rule:nonzero;stroke:none"
       inkscape:connector-curvature="0" />
    <path
       d="m 401.8505,200.3586 c 0,-1.33487 0,-2.70085 -0.13587,-4.1044 h 2.08444 v 3.1121 h 0.0693 c 0.71621,-1.57279 2.01509,-3.52186 5.63942,-3.52186 4.30918,0 5.9484,2.87224 5.9484,6.70059 v 11.14533 H 413.303 v -10.59823 c 0,-3.28104 -1.16133,-5.40109 -4.13556,-5.40109 -3.93322,0 -5.16376,3.45259 -5.16376,6.35791 v 9.64141 H 401.8505 V 200.3586"
       id="path3111"
       style="fill:#000000;fill-opacity:1;fill-rule:nonzero;stroke:none"
       inkscape:connector-curvature="0" />
    <path
       d="m 434.02065,211.16084 c 1.29942,0.64988 2.87207,1.09493 4.54737,1.09493 2.05108,0 3.86174,-1.13036 3.86174,-3.11226 0,-4.13559 -8.37536,-3.48628 -8.37536,-8.54714 0,-3.45248 2.80278,-4.75193 5.67496,-4.75193 0.923,0 2.76965,0.20508 4.30677,0.78782 l -0.20452,1.87974 c -1.12808,-0.51386 -2.66523,-0.82096 -3.86215,-0.82096 -2.22248,0 -3.76192,0.68291 -3.76192,2.90533 0,3.24806 8.58033,2.8385 8.58033,8.54714 0,3.6926 -3.45251,4.95662 -6.08403,4.95662 -1.67525,0 -3.35055,-0.20509 -4.88776,-0.81882 l 0.20457,-2.12047"
       id="path3113"
       style="fill:#000000;fill-opacity:1;fill-rule:nonzero;stroke:none"
       inkscape:connector-curvature="0" />
    <path
       d="m 457.37027,213.69036 h -2.52896 l -5.91565,-17.43616 h 2.36053 l 4.82069,15.07809 h 0.0665 l 5.06134,-15.07809 h 2.25574 l -6.12021,17.43616"
       id="path3115"
       style="fill:#000000;fill-opacity:1;fill-rule:nonzero;stroke:none"
       inkscape:connector-curvature="0" />
    <path
       d="m 469.16543,196.2542 h 2.15364 v 17.43616 h -2.15364 z m 2.15364,-4.64961 h -2.15364 v -2.86975 h 2.15364 v 2.86975"
       id="path3117"
       style="fill:#000000;fill-opacity:1;fill-rule:nonzero;stroke:none"
       inkscape:connector-curvature="0" />
    <path
       d="m 477.81465,211.87995 10.49573,-13.77991 H 478.2241 v -1.84584 h 12.58012 v 1.84584 l -10.49341,13.74387 h 10.49341 v 1.84645 h -12.98957 v -1.81041"
       id="path3119"
       style="fill:#000000;fill-opacity:1;fill-rule:nonzero;stroke:none"
       inkscape:connector-curvature="0" />
    <path
       d="m 497.26659,200.15132 c 0,-1.91307 0,-2.63162 -0.13668,-3.89712 h 2.155 v 3.34997 h 0.0683 c 0.78364,-1.94642 2.25523,-3.75973 4.47853,-3.75973 0.51028,0 1.12539,0.10257 1.5035,0.20508 v 2.25801 c -0.44645,-0.13805 -1.02506,-0.20749 -1.57184,-0.20749 -3.42153,0 -4.34185,3.83126 -4.34185,6.9745 v 8.61582 h -2.155 v -13.53904"
       id="path3121"
       style="fill:#000000;fill-opacity:1;fill-rule:nonzero;stroke:none"
       inkscape:connector-curvature="0" />
    <path
       style="fill:#000000;fill-opacity:1;fill-rule:nonzero;stroke:none"
       id="path3131"
       d="m 521.13105,204.90323 h -0.61507 c -3.72688,0 -8.17352,0.37806 -8.17352,4.20663 0,2.28945 1.64017,3.1459 3.62674,3.1459 5.05706,0 5.16185,-4.4117 5.16185,-6.29138 z m 0.20497,5.98426 h -0.0683 c -0.95677,2.08448 -3.38509,3.21264 -5.54009,3.21264 -4.95697,0 -5.74065,-3.35055 -5.74065,-4.92325 0,-5.84421 6.21898,-6.11798 10.7295,-6.11798 h 0.41456 v -0.8897 c 0,-2.97418 -1.06161,-4.47817 -3.96836,-4.47817 -1.81325,0 -3.52176,0.40904 -5.12553,1.43474 v -2.08434 c 1.3304,-0.64987 3.58564,-1.19701 5.12553,-1.19701 4.31001,0 6.1188,1.94908 6.1188,6.49604 v 7.69277 c 0,1.40153 0,2.46031 0.17318,3.65713 h -2.11865 v -2.80287"
       inkscape:connector-curvature="0" />
    <path
       style="fill:#ff0000;fill-opacity:1;fill-rule:nonzero;stroke:none"
       id="path3133"
       d="m 135.51619,47.31729 c 0,0 -18.08189,-7.919662 -48.354496,-7.919662 h -0.0092 c -30.272835,0 -48.359056,7.919662 -48.359056,7.919662 0,0 -1.619397,35.064552 5.24568,54.89072 12.124333,34.86003 43.10923,44.65268 43.10923,44.65268 h 0.0087 0.009 c 0,0 30.980162,-9.79265 43.108822,-44.65268 6.86489,-19.826168 5.24121,-54.89072 5.24121,-54.89072"
       inkscape:connector-curvature="0" />
    <path
       d="m 119.29394,77.54553 v 19.3186 H 96.75442 v 22.5402 H 77.435244 V 96.86413 H 54.895457 V 77.54553 H 77.435244 V 55.01008 h 19.31462 l 0.0046,22.53545 h 22.539516"
       id="path3135"
       style="fill:#ffffff;fill-opacity:1;fill-rule:nonzero;stroke:none"
       inkscape:connector-curvature="0" />
  </g>
</svg>
