<svg height="686.37238" width="500" xmlns="http://www.w3.org/2000/svg" xmlns:xlink="http://www.w3.org/1999/xlink"><clipPath id="a"><path d="m284.562 589.103h221.024v-292.569h-221.024z"/></clipPath><clipPath id="b"><path d="m0 737.008h538.582v-737.008h-538.582z"/></clipPath><clipPath id="c"><path d="m.5 737h539v-737h-539z"/></clipPath><clipPath><path d="m55.407 586.307h214.335v-291.443h-214.335z"/></clipPath><g clip-path="url(#a)" transform="matrix(2.39516275 0 0 -2.39516275 -688.5888335 1395.97161)"><g clip-path="url(#b)"><g clip-path="url(#c)"><path d="m0 0c0-54.642 44.97-98.938 100.442-98.938 55.473 0 100.445 44.296 100.445 98.938l-.029 179.763h-200.86z" fill="#fff" stroke="#000" stroke-width="3.69" transform="translate(291.426 399.134)"/><path d="m325.439 367.424h4.5596v15.892h-4.5596z"/><path d="m0 0c-.149.271-.61 1.317-.61 2.542s.519 3.358.591 4.04c.077.683-.332 2.859-.332 3.678 0 .817.657 2.405.38 3.179-.183.499-.409 1.859-.149 2.45h-.793c-.259-.591-.009-1.941.149-2.45.24-.774-.298-2.362-.298-3.179 0-.819.409-2.995.332-3.678-.072-.682-.591-2.815-.591-4.04s.298-2.271.445-2.542z" fill="#fff" transform="translate(328.206 367.408)"/><path d="m331.93 367.432h4.5645v15.889h-4.5645z"/><path d="m0 0c-.149.274-.61 1.318-.61 2.543 0 1.229.519 3.362.596 4.041.072.681-.337 2.859-.337 3.679 0 .817.657 2.404.38 3.177-.183.498-.408 1.863-.149 2.451h-.793c-.259-.588-.01-1.941.149-2.451.24-.773-.298-2.36-.298-3.177 0-.82.409-2.998.337-3.679-.077-.679-.596-2.812-.596-4.041 0-1.225.298-2.269.445-2.543z" fill="#fff" transform="translate(334.692 367.413)"/><path d="m338.363 367.432h4.5629v15.889h-4.5629z"/><path d="m0 0c-.149.274-.61 1.318-.61 2.543 0 1.229.519 3.362.596 4.041.072.681-.337 2.859-.337 3.679 0 .817.657 2.404.38 3.177-.183.498-.409 1.863-.149 2.451h-.793c-.259-.588-.01-1.941.149-2.451.24-.773-.298-2.36-.298-3.177 0-.82.409-2.998.336-3.679-.076-.679-.595-2.812-.595-4.041 0-1.225.298-2.269.447-2.543z" fill="#fff" transform="translate(341.121 367.413)"/><path d="m351.488 367.447h4.5613v15.889h-4.5613z"/><path d="m0 0c-.147.274-.609 1.316-.609 2.543 0 1.225.519 3.359.591 4.039.076.683-.331 2.859-.331 3.678 0 .82.653 2.405.378 3.179-.181.499-.412 1.861-.148 2.452h-.792c-.26-.591-.011-1.943.147-2.452.242-.774-.296-2.359-.296-3.179 0-.819.408-2.995.331-3.678-.072-.68-.591-2.814-.591-4.039 0-1.227.297-2.269.442-2.543z" fill="#fff" transform="translate(354.255 367.427)"/><path d="m344.821 367.41h4.5629v15.889h-4.5629z"/><path d="m0 0c-.149.271-.61 1.316-.61 2.542 0 1.225.519 3.358.591 4.04.077.683-.332 2.859-.332 3.678 0 .816.658 2.405.38 3.179-.18.499-.409 1.859-.149 2.45h-.793c-.259-.591-.01-1.941.149-2.45.24-.774-.295-2.363-.295-3.179 0-.819.406-2.995.333-3.678-.073-.682-.592-2.815-.592-4.04 0-1.226.295-2.271.444-2.542z" fill="#fff" transform="translate(347.473 367.394)"/><path d="m427.504 367.424h4.5596v15.892h-4.5596z"/><path d="m0 0c-.154.271-.61 1.317-.61 2.542s.519 3.358.591 4.04c.077.683-.332 2.859-.332 3.678 0 .817.657 2.405.38 3.179-.183.499-.409 1.859-.149 2.45h-.793c-.259-.591-.009-1.941.149-2.45.24-.774-.298-2.362-.298-3.179 0-.819.409-2.995.332-3.678-.072-.682-.591-2.815-.591-4.04s.298-2.271.445-2.542z" fill="#fff" transform="translate(430.272 367.408)"/><path d="m434.366 367.432h4.5596v15.889h-4.5596z"/><path d="m0 0c-.146.274-.607 1.318-.607 2.543 0 1.229.519 3.362.593 4.041.076.681-.334 2.859-.334 3.679 0 .817.66 2.404.377 3.177-.178.498-.405 1.863-.146 2.451h-.793c-.258-.588-.013-1.941.151-2.451.238-.773-.298-2.36-.298-3.177 0-.82.407-2.998.335-3.679-.076-.679-.595-2.812-.595-4.041 0-1.225.298-2.269.447-2.543z" fill="#fff" transform="translate(437.124 367.413)"/><path d="m440.693 367.432h4.5596v15.889h-4.5596z"/><path d="m0 0c-.152.274-.609 1.318-.609 2.543 0 1.229.519 3.362.591 4.041.076.681-.336 2.859-.336 3.679 0 .817.658 2.404.383 3.177-.186.498-.412 1.863-.152 2.451h-.788c-.26-.588-.015-1.941.147-2.451.242-.773-.296-2.36-.296-3.177 0-.82.408-2.998.331-3.679-.072-.679-.591-2.812-.591-4.041 0-1.225.297-2.269.442-2.543z" fill="#fff" transform="translate(443.45 367.413)"/><path d="m453.849 367.447h4.5629v15.889h-4.5629z"/><path d="m0 0c-.146.274-.607 1.316-.607 2.543 0 1.225.519 3.359.593 4.039.072.683-.334 2.859-.334 3.678 0 .82.66 2.405.382 3.179-.18.499-.41 1.861-.151 2.452h-.793c-.259-.591-.012-1.943.151-2.452.24-.774-.298-2.359-.298-3.179 0-.819.407-2.995.335-3.678-.076-.68-.594-2.814-.594-4.039 0-1.227.293-2.269.446-2.543z" fill="#fff" transform="translate(456.611 367.427)"/><path d="m447.151 367.41h4.5596v15.889h-4.5596z"/><path d="m0 0c-.154.271-.615 1.316-.615 2.542 0 1.225.519 3.358.596 4.04.072.683-.337 2.859-.337 3.678 0 .816.662 2.405.38 3.179-.179.499-.408 1.859-.149 2.45h-.793c-.259-.591-.009-1.941.154-2.45.24-.774-.299-2.363-.299-3.179 0-.819.41-2.995.333-3.678-.074-.682-.593-2.815-.593-4.04 0-1.226.3-2.271.447-2.542z" fill="#fff" transform="translate(449.803 367.394)"/><path d="m0 0v-150.092h-29.169v68.962h-22.217v-104.93h-28.945v104.93h-21.99v-68.954h-29.174v149.994z" fill="#da121a" stroke="#000" stroke-width="2.214" transform="translate(457.491 534.083)"/><path d="m376.58 331.493h4.5596v15.889h-4.5596z"/><path d="m0 0c-.149.274-.61 1.316-.61 2.542s.524 3.36.596 4.042c.075.681-.337 2.859-.337 3.679 0 .817.658 2.404.383 3.176-.181.499-.412 1.861-.152 2.45h-.788c-.26-.589-.014-1.939.147-2.45.242-.772-.301-2.359-.301-3.176 0-.82.413-2.998.336-3.679-.076-.682-.595-2.816-.595-4.042s.301-2.268.447-2.542z" fill="#fff" transform="translate(379.347 331.474)"/><path d="m383.071 331.456h4.5645v15.889h-4.5645z"/><path d="m0 0c-.149.272-.61 1.316-.61 2.545 0 1.225.519 3.358.596 4.037.075.681-.337 2.862-.337 3.679s.658 2.407.38 3.181c-.183.496-.409 1.859-.149 2.45h-.793c-.254-.591-.009-1.941.152-2.45.237-.774-.301-2.364-.301-3.181s.409-2.998.337-3.679c-.077-.679-.596-2.812-.596-4.037 0-1.229.301-2.273.447-2.545z" fill="#fff" transform="translate(385.833 331.437)"/><path d="m389.527 331.5h4.5612v15.889h-4.5612z"/><path d="m0 0c-.147.272-.605 1.317-.605 2.545 0 1.225.519 3.358.591 4.041.073.679-.335 2.858-.335 3.675s.658 2.407.379 3.181c-.182.496-.408 1.859-.145 2.45h-.793c-.26-.591-.014-1.941.146-2.45.243-.774-.293-2.364-.293-3.181s.406-2.996.331-3.675c-.072-.683-.596-2.816-.596-4.041 0-1.228.298-2.273.447-2.545z" fill="#fff" transform="translate(392.28 331.48)"/><path d="m402.41 331.512h4.5596v15.889h-4.5596z"/><path d="m0 0c-.149.274-.61 1.318-.61 2.543 0 1.229.519 3.362.591 4.041.077.681-.332 2.859-.332 3.679 0 .817.657 2.404.38 3.177-.183.5-.409 1.863-.149 2.451h-.793c-.259-.588-.01-1.941.149-2.451.24-.773-.298-2.36-.298-3.177 0-.82.409-2.998.332-3.679-.072-.679-.591-2.812-.591-4.041 0-1.225.298-2.269.445-2.543z" fill="#fff" transform="translate(405.177 331.493)"/><path d="m395.904 331.479h4.5628v15.889h-4.5628z"/><path d="m0 0c-.149.274-.61 1.316-.61 2.542 0 1.225.519 3.358.591 4.042.077.681-.332 2.859-.332 3.679 0 .813.658 2.404.38 3.176-.18.499-.409 1.859-.149 2.45h-.793c-.259-.591-.01-1.941.149-2.45.24-.772-.295-2.363-.295-3.176 0-.82.406-2.998.332-3.679-.072-.684-.591-2.817-.591-4.042 0-1.226.295-2.268.444-2.542z" fill="#fff" transform="translate(398.556 331.46)"/><g stroke="#000"><path d="m0 0c7.812 0 14.145 6.329 14.145 14.14 0 7.813-6.333 14.145-14.145 14.145s-14.142-6.332-14.142-14.145c0-7.811 6.33-14.14 14.142-14.14z" fill="#da121a" stroke-width="2.214" transform="translate(326.222 534.169)"/><path d="m0 0c4.784 0 8.658 3.877 8.658 8.653 0 4.781-3.874 8.658-8.658 8.658-4.776 0-8.65-3.877-8.65-8.658 0-4.776 3.874-8.653 8.65-8.653z" fill="#fff" stroke-width="2.214" transform="translate(326.222 539.656)"/><path d="m0 0c7.808 0 14.145 6.329 14.145 14.14 0 7.813-6.337 14.145-14.145 14.145-7.812 0-14.145-6.332-14.145-14.145 0-7.811 6.333-14.14 14.145-14.14z" fill="#da121a" stroke-width="2.214" transform="translate(457.438 534.169)"/><path d="m0 0c4.779 0 8.656 3.877 8.656 8.653 0 4.781-3.877 8.658-8.656 8.658-4.781 0-8.655-3.877-8.655-8.658 0-4.776 3.874-8.653 8.655-8.653z" fill="#fff" stroke-width="2.214" transform="translate(457.438 539.656)"/><path d="m0 0c7.812 0 14.142 6.329 14.142 14.14 0 7.813-6.33 14.145-14.142 14.145s-14.143-6.332-14.143-14.145c0-7.811 6.331-14.14 14.143-14.14z" fill="#da121a" stroke-width="2.214" transform="translate(391.66 534.169)"/><path d="m0 0c4.777 0 8.655 3.877 8.655 8.653 0 4.781-3.878 8.658-8.655 8.658-4.779 0-8.656-3.877-8.656-8.658 0-4.776 3.877-8.653 8.656-8.653z" fill="#fff" stroke-width="2.214" transform="translate(391.66 539.656)"/><g fill="none" stroke-width="3.69" transform="translate(326.164 424.859)"><path d="m0 0h29.241"/><g transform="translate(-.053 10.055)"><path d="m0 0h29.24"/><g transform="translate(102.422 -10.085)"><path d="m0 0h29.241"/><g transform="translate(-.111 10.085)"><path d="m0 0h29.24"/><g transform="translate(-50.983 -36.943)"><path d="m0 0h28.266"/><g transform="translate(.21 10.087)"><path d="m0 0h28.684"/><g transform="translate(-.162 -51.098)"><path d="m0 0h28.218"/><g transform="translate(50.973 35.861)"><path d="m0 0h29.241"/><g transform="translate(-102.369)"><path d="m0 0h29.241"/><g transform="translate(.062 94.303)"><path d="m0 0h131.644"/><path d="m0 0h131.461" transform="translate(.183 10.127)"/></g></g></g></g></g></g></g></g></g></g></g></g></g></g></svg>